<?xml version="1.0" encoding="UTF-8" standalone="no"?>
<!DOCTYPE svg PUBLIC "-//W3C//DTD SVG 1.1//EN"
 "http://www.w3.org/Graphics/SVG/1.1/DTD/svg11.dtd">
<!-- Generated by graphviz version 2.36.0 (20140111.2315)
 -->
<!-- Title: ShapeCollection.cpp Pages: 1 -->
<svg width="302pt" height="196pt"
 viewBox="0.00 0.00 302.26 196.00" xmlns="http://www.w3.org/2000/svg" xmlns:xlink="http://www.w3.org/1999/xlink">
<g id="graph0" class="graph" transform="scale(1 1) rotate(0) translate(4 192)">
<title>ShapeCollection.cpp</title>
<polygon fill="white" stroke="none" points="-4,4 -4,-192 298.263,-192 298.263,4 -4,4"/>
<!-- Node1 -->
<g id="node1" class="node"><title>Node1</title>
<polygon fill="#bfbfbf" stroke="black" points="21.7626,-168.5 21.7626,-187.5 128.763,-187.5 128.763,-168.5 21.7626,-168.5"/>
<text text-anchor="middle" x="75.2626" y="-175.5" font-family="Helvetica,sans-Serif" font-size="10.00">ShapeCollection.cpp</text>
</g>
<!-- Node2 -->
<g id="node2" class="node"><title>Node2</title>
<polygon fill="white" stroke="#bfbfbf" points="24.2626,-56.5 24.2626,-75.5 64.2626,-75.5 64.2626,-56.5 24.2626,-56.5"/>
<text text-anchor="middle" x="44.2626" y="-63.5" font-family="Helvetica,sans-Serif" font-size="10.00">utility</text>
</g>
<!-- Node1&#45;&gt;Node2 -->
<g id="edge1" class="edge"><title>Node1&#45;&gt;Node2</title>
<path fill="none" stroke="midnightblue" d="M49.7582,-168.472C33.2757,-161.478 13.1238,-149.792 3.26262,-132 -6.45126,-114.474 9.34399,-95.14 24.0608,-82.1517"/>
<polygon fill="midnightblue" stroke="midnightblue" points="26.4684,-84.7029 31.9571,-75.6406 22.015,-79.3022 26.4684,-84.7029"/>
</g>
<!-- Node3 -->
<g id="node3" class="node"><title>Node3</title>
<polygon fill="white" stroke="#bfbfbf" points="12.2626,-112.5 12.2626,-131.5 68.2626,-131.5 68.2626,-112.5 12.2626,-112.5"/>
<text text-anchor="middle" x="40.2626" y="-119.5" font-family="Helvetica,sans-Serif" font-size="10.00">algorithm</text>
</g>
<!-- Node1&#45;&gt;Node3 -->
<g id="edge2" class="edge"><title>Node1&#45;&gt;Node3</title>
<path fill="none" stroke="midnightblue" d="M69.4831,-168.083C64.5903,-160.534 57.4352,-149.495 51.4301,-140.23"/>
<polygon fill="midnightblue" stroke="midnightblue" points="54.3107,-138.239 45.9346,-131.751 48.4366,-142.046 54.3107,-138.239"/>
</g>
<!-- Node4 -->
<g id="node4" class="node"><title>Node4</title>
<polygon fill="white" stroke="#bfbfbf" points="86.7626,-112.5 86.7626,-131.5 135.763,-131.5 135.763,-112.5 86.7626,-112.5"/>
<text text-anchor="middle" x="111.263" y="-119.5" font-family="Helvetica,sans-Serif" font-size="10.00">cassert</text>
</g>
<!-- Node1&#45;&gt;Node4 -->
<g id="edge3" class="edge"><title>Node1&#45;&gt;Node4</title>
<path fill="none" stroke="midnightblue" d="M81.2073,-168.083C86.2399,-160.534 93.5994,-149.495 99.7761,-140.23"/>
<polygon fill="midnightblue" stroke="midnightblue" points="102.794,-142.013 105.429,-131.751 96.9693,-138.13 102.794,-142.013"/>
</g>
<!-- Node5 -->
<g id="node5" class="node"><title>Node5</title>
<g id="a_node5"><a xlink:href="ShapeCollection_8h.html" target="_top" xlink:title="ShapeCollection.h">
<polygon fill="white" stroke="black" points="154.263,-112.5 154.263,-131.5 250.263,-131.5 250.263,-112.5 154.263,-112.5"/>
<text text-anchor="middle" x="202.263" y="-119.5" font-family="Helvetica,sans-Serif" font-size="10.00">ShapeCollection.h</text>
</a>
</g>
</g>
<!-- Node1&#45;&gt;Node5 -->
<g id="edge4" class="edge"><title>Node1&#45;&gt;Node5</title>
<path fill="none" stroke="midnightblue" d="M95.3861,-168.444C116.287,-159.557 149.197,-145.563 172.979,-135.451"/>
<polygon fill="midnightblue" stroke="midnightblue" points="174.4,-138.65 182.233,-131.516 171.661,-132.208 174.4,-138.65"/>
</g>
<!-- Node5&#45;&gt;Node2 -->
<g id="edge7" class="edge"><title>Node5&#45;&gt;Node2</title>
<path fill="none" stroke="midnightblue" d="M177.227,-112.444C149.239,-102.878 103.943,-87.3969 74.1289,-77.2075"/>
<polygon fill="midnightblue" stroke="midnightblue" points="75.2537,-73.8932 64.6592,-73.971 72.9898,-80.517 75.2537,-73.8932"/>
</g>
<!-- Node6 -->
<g id="node6" class="node"><title>Node6</title>
<polygon fill="white" stroke="#bfbfbf" points="150.263,-0.5 150.263,-19.5 204.263,-19.5 204.263,-0.5 150.263,-0.5"/>
<text text-anchor="middle" x="177.263" y="-7.5" font-family="Helvetica,sans-Serif" font-size="10.00">iostream</text>
</g>
<!-- Node5&#45;&gt;Node6 -->
<g id="edge5" class="edge"><title>Node5&#45;&gt;Node6</title>
<path fill="none" stroke="midnightblue" d="M193.78,-112.234C186.209,-103.75 175.659,-90.1314 171.263,-76 166.528,-60.7828 168.806,-42.6701 171.82,-29.4347"/>
<polygon fill="midnightblue" stroke="midnightblue" points="175.239,-30.1954 174.388,-19.6348 168.468,-28.4211 175.239,-30.1954"/>
</g>
<!-- Node7 -->
<g id="node7" class="node"><title>Node7</title>
<polygon fill="white" stroke="#bfbfbf" points="180.263,-56.5 180.263,-75.5 224.263,-75.5 224.263,-56.5 180.263,-56.5"/>
<text text-anchor="middle" x="202.263" y="-63.5" font-family="Helvetica,sans-Serif" font-size="10.00">vector</text>
</g>
<!-- Node5&#45;&gt;Node7 -->
<g id="edge6" class="edge"><title>Node5&#45;&gt;Node7</title>
<path fill="none" stroke="midnightblue" d="M202.263,-112.083C202.263,-105.006 202.263,-94.8611 202.263,-85.9865"/>
<polygon fill="midnightblue" stroke="midnightblue" points="205.763,-85.751 202.263,-75.7511 198.763,-85.7511 205.763,-85.751"/>
</g>
<!-- Node8 -->
<g id="node8" class="node"><title>Node8</title>
<g id="a_node8"><a xlink:href="shape_8h.html" target="_top" xlink:title="shape.h">
<polygon fill="white" stroke="black" points="242.763,-56.5 242.763,-75.5 293.763,-75.5 293.763,-56.5 242.763,-56.5"/>
<text text-anchor="middle" x="268.263" y="-63.5" font-family="Helvetica,sans-Serif" font-size="10.00">shape.h</text>
</a>
</g>
</g>
<!-- Node5&#45;&gt;Node8 -->
<g id="edge8" class="edge"><title>Node5&#45;&gt;Node8</title>
<path fill="none" stroke="midnightblue" d="M212.867,-112.324C222.719,-104.263 237.614,-92.0765 249.478,-82.3695"/>
<polygon fill="midnightblue" stroke="midnightblue" points="251.942,-84.8752 257.466,-75.8339 247.51,-79.4575 251.942,-84.8752"/>
</g>
<!-- Node8&#45;&gt;Node6 -->
<g id="edge9" class="edge"><title>Node8&#45;&gt;Node6</title>
<path fill="none" stroke="midnightblue" d="M253.642,-56.324C239.314,-47.8215 217.25,-34.7288 200.514,-24.7975"/>
<polygon fill="midnightblue" stroke="midnightblue" points="202.233,-21.7478 191.847,-19.6545 198.661,-27.7677 202.233,-21.7478"/>
</g>
<!-- Node9 -->
<g id="node9" class="node"><title>Node9</title>
<polygon fill="white" stroke="#bfbfbf" points="247.763,-0.5 247.763,-19.5 288.763,-19.5 288.763,-0.5 247.763,-0.5"/>
<text text-anchor="middle" x="268.263" y="-7.5" font-family="Helvetica,sans-Serif" font-size="10.00">string</text>
</g>
<!-- Node8&#45;&gt;Node9 -->
<g id="edge10" class="edge"><title>Node8&#45;&gt;Node9</title>
<path fill="none" stroke="midnightblue" d="M268.263,-56.083C268.263,-49.0059 268.263,-38.8611 268.263,-29.9865"/>
<polygon fill="midnightblue" stroke="midnightblue" points="271.763,-29.751 268.263,-19.7511 264.763,-29.7511 271.763,-29.751"/>
</g>
</g>
</svg>
