<?xml version="1.0" encoding="UTF-8" standalone="no"?>
<!DOCTYPE svg PUBLIC "-//W3C//DTD SVG 1.1//EN"
 "http://www.w3.org/Graphics/SVG/1.1/DTD/svg11.dtd">
<!-- Generated by graphviz version 2.36.0 (20140111.2315)
 -->
<!-- Title: runShapes.cpp Pages: 1 -->
<!--zoomable 308 -->
<svg id="main" version="1.1" xmlns="http://www.w3.org/2000/svg" xmlns:xlink="http://www.w3.org/1999/xlink" xml:space="preserve" onload="init(evt)">
<style type="text/css"><![CDATA[
.edge:hover path { stroke: red; }
.edge:hover polygon { stroke: red; fill: red; }
]]></style>
<script type="text/javascript"><![CDATA[
var edges = document.getElementsByTagName('g');
if (edges && edges.length) {
  for (var i=0;i<edges.length;i++) {
    if (edges[i].id.substr(0,4)=='edge') {
      edges[i].setAttribute('class','edge');
    }
  }
}
]]></script>
        <defs>
                <circle id="rim" cx="0" cy="0" r="7"/>
                <circle id="rim2" cx="0" cy="0" r="3.5"/>
                <g id="zoomPlus">
                        <use xlink:href="#rim" fill="#404040">
                                <set attributeName="fill" to="#808080" begin="zoomplus.mouseover" end="zoomplus.mouseout"/>
                        </use>
                        <path d="M-4,0h8M0,-4v8" fill="none" stroke="white" stroke-width="1.5" pointer-events="none"/>
                </g>
                <g id="zoomMin">
                        <use xlink:href="#rim" fill="#404040">
                                <set attributeName="fill" to="#808080" begin="zoomminus.mouseover" end="zoomminus.mouseout"/>
                        </use>
                        <path d="M-4,0h8" fill="none" stroke="white" stroke-width="1.5" pointer-events="none"/>
                </g>
                <g id="dirArrow">
                        <path fill="none" stroke="white" stroke-width="1.5" d="M0,-3.0v7 M-2.5,-0.5L0,-3.0L2.5,-0.5"/>
                </g>
               <g id="resetDef">
                       <use xlink:href="#rim2" fill="#404040">
                               <set attributeName="fill" to="#808080" begin="reset.mouseover" end="reset.mouseout"/>
                       </use>
               </g>
        </defs>

<script type="text/javascript">
var viewWidth = 1085;
var viewHeight = 308;
var sectionId = 'dynsection-0';
</script>
<script xlink:href="svgpan.js"/>
<svg id="graph" class="graph">
<g id="viewport">
<title>runShapes.cpp</title>
<polygon fill="white" stroke="none" points="-4,4 -4,-304 1081.13,-304 1081.13,4 -4,4"/>
<!-- Node1 -->
<g id="node1" class="node"><title>Node1</title>
<polygon fill="#bfbfbf" stroke="black" points="691.129,-280.5 691.129,-299.5 773.129,-299.5 773.129,-280.5 691.129,-280.5"/>
<text text-anchor="middle" x="732.129" y="-287.5" font-family="Helvetica,sans-Serif" font-size="10.00">runShapes.cpp</text>
</g>
<!-- Node2 -->
<g id="node2" class="node"><title>Node2</title>
<polygon fill="white" stroke="#bfbfbf" points="336.129,-0.5 336.129,-19.5 390.129,-19.5 390.129,-0.5 336.129,-0.5"/>
<text text-anchor="middle" x="363.129" y="-7.5" font-family="Helvetica,sans-Serif" font-size="10.00">iostream</text>
</g>
<!-- Node1&#45;&gt;Node2 -->
<g id="edge1" class="edge"><title>Node1&#45;&gt;Node2</title>
<path fill="none" stroke="midnightblue" d="M754.851,-280.422C801.235,-262.398 904.064,-219.649 923.129,-188 927.716,-180.386 927.816,-175.553 923.129,-168 864.025,-72.7448 804.323,-88.8084 697.129,-56 592.675,-24.0299 462.932,-14.7569 400.342,-12.0792"/>
<polygon fill="midnightblue" stroke="midnightblue" points="400.302,-8.57494 390.172,-11.6775 400.026,-15.5695 400.302,-8.57494"/>
</g>
<!-- Node3 -->
<g id="node3" class="node"><title>Node3</title>
<polygon fill="white" stroke="#bfbfbf" points="548.129,-168.5 548.129,-187.5 598.129,-187.5 598.129,-168.5 548.129,-168.5"/>
<text text-anchor="middle" x="573.129" y="-175.5" font-family="Helvetica,sans-Serif" font-size="10.00">iomanip</text>
</g>
<!-- Node1&#45;&gt;Node3 -->
<g id="edge2" class="edge"><title>Node1&#45;&gt;Node3</title>
<path fill="none" stroke="midnightblue" d="M719.653,-280.368C692.485,-261.573 627.722,-216.768 594.137,-193.533"/>
<polygon fill="midnightblue" stroke="midnightblue" points="595.763,-190.403 585.548,-187.591 591.78,-196.159 595.763,-190.403"/>
</g>
<!-- Node4 -->
<g id="node4" class="node"><title>Node4</title>
<polygon fill="white" stroke="#bfbfbf" points="616.129,-168.5 616.129,-187.5 666.129,-187.5 666.129,-168.5 616.129,-168.5"/>
<text text-anchor="middle" x="641.129" y="-175.5" font-family="Helvetica,sans-Serif" font-size="10.00">fstream</text>
</g>
<!-- Node1&#45;&gt;Node4 -->
<g id="edge3" class="edge"><title>Node1&#45;&gt;Node4</title>
<path fill="none" stroke="midnightblue" d="M724.989,-280.368C709.838,-262.055 674.261,-219.049 654.666,-195.362"/>
<polygon fill="midnightblue" stroke="midnightblue" points="657.308,-193.066 648.237,-187.591 651.914,-197.528 657.308,-193.066"/>
</g>
<!-- Node5 -->
<g id="node5" class="node"><title>Node5</title>
<polygon fill="white" stroke="#bfbfbf" points="893.129,-224.5 893.129,-243.5 937.129,-243.5 937.129,-224.5 893.129,-224.5"/>
<text text-anchor="middle" x="915.129" y="-231.5" font-family="Helvetica,sans-Serif" font-size="10.00">vector</text>
</g>
<!-- Node1&#45;&gt;Node5 -->
<g id="edge4" class="edge"><title>Node1&#45;&gt;Node5</title>
<path fill="none" stroke="midnightblue" d="M761.126,-280.444C794.281,-270.66 848.408,-254.688 882.869,-244.519"/>
<polygon fill="midnightblue" stroke="midnightblue" points="884.287,-247.75 892.888,-241.563 882.306,-241.036 884.287,-247.75"/>
</g>
<!-- Node6 -->
<g id="node6" class="node"><title>Node6</title>
<polygon fill="white" stroke="#bfbfbf" points="478.129,-168.5 478.129,-187.5 530.129,-187.5 530.129,-168.5 478.129,-168.5"/>
<text text-anchor="middle" x="504.129" y="-175.5" font-family="Helvetica,sans-Serif" font-size="10.00">memory</text>
</g>
<!-- Node1&#45;&gt;Node6 -->
<g id="edge5" class="edge"><title>Node1&#45;&gt;Node6</title>
<path fill="none" stroke="midnightblue" d="M713.102,-280.351C693.494,-271.397 662.075,-256.933 635.129,-244 598.435,-226.389 556.327,-205.345 529.974,-192.073"/>
<polygon fill="midnightblue" stroke="midnightblue" points="531.523,-188.934 521.018,-187.556 528.37,-195.185 531.523,-188.934"/>
</g>
<!-- Node7 -->
<g id="node7" class="node"><title>Node7</title>
<polygon fill="white" stroke="#bfbfbf" points="955.629,-224.5 955.629,-243.5 1002.63,-243.5 1002.63,-224.5 955.629,-224.5"/>
<text text-anchor="middle" x="979.129" y="-231.5" font-family="Helvetica,sans-Serif" font-size="10.00">iterator</text>
</g>
<!-- Node1&#45;&gt;Node7 -->
<g id="edge6" class="edge"><title>Node1&#45;&gt;Node7</title>
<path fill="none" stroke="midnightblue" d="M773.499,-280.905C816.517,-272.336 885.746,-258.123 945.129,-244 945.233,-243.975 945.338,-243.95 945.442,-243.926"/>
<polygon fill="midnightblue" stroke="midnightblue" points="946.532,-247.261 955.39,-241.448 944.84,-240.469 946.532,-247.261"/>
</g>
<!-- Node8 -->
<g id="node8" class="node"><title>Node8</title>
<polygon fill="white" stroke="#bfbfbf" points="1021.13,-224.5 1021.13,-243.5 1077.13,-243.5 1077.13,-224.5 1021.13,-224.5"/>
<text text-anchor="middle" x="1049.13" y="-231.5" font-family="Helvetica,sans-Serif" font-size="10.00">algorithm</text>
</g>
<!-- Node1&#45;&gt;Node8 -->
<g id="edge7" class="edge"><title>Node1&#45;&gt;Node8</title>
<path fill="none" stroke="midnightblue" d="M773.424,-283.297C828.03,-275.537 927.157,-260.693 1011.13,-244 1011.23,-243.98 1011.33,-243.96 1011.43,-243.94"/>
<polygon fill="midnightblue" stroke="midnightblue" points="1011.91,-247.417 1020.96,-241.913 1010.45,-240.571 1011.91,-247.417"/>
</g>
<!-- Node9 -->
<g id="node9" class="node"><title>Node9</title>
<g id="a_node9"><a xlink:href="utilities_8h.html" target="_top" xlink:title="utilities.h">
<polygon fill="white" stroke="black" points="704.129,-224.5 704.129,-243.5 760.129,-243.5 760.129,-224.5 704.129,-224.5"/>
<text text-anchor="middle" x="732.129" y="-231.5" font-family="Helvetica,sans-Serif" font-size="10.00">utilities.h</text>
</a>
</g>
</g>
<!-- Node1&#45;&gt;Node9 -->
<g id="edge8" class="edge"><title>Node1&#45;&gt;Node9</title>
<path fill="none" stroke="midnightblue" d="M732.129,-280.083C732.129,-273.006 732.129,-262.861 732.129,-253.986"/>
<polygon fill="midnightblue" stroke="midnightblue" points="735.63,-253.751 732.129,-243.751 728.63,-253.751 735.63,-253.751"/>
</g>
<!-- Node14 -->
<g id="node14" class="node"><title>Node14</title>
<g id="a_node14"><a xlink:href="shapeFactory_8h.html" target="_top" xlink:title="shapeFactory.h">
<polygon fill="white" stroke="black" points="152.129,-224.5 152.129,-243.5 236.129,-243.5 236.129,-224.5 152.129,-224.5"/>
<text text-anchor="middle" x="194.129" y="-231.5" font-family="Helvetica,sans-Serif" font-size="10.00">shapeFactory.h</text>
</a>
</g>
</g>
<!-- Node1&#45;&gt;Node14 -->
<g id="edge16" class="edge"><title>Node1&#45;&gt;Node14</title>
<path fill="none" stroke="midnightblue" d="M690.807,-284.852C594.128,-275.149 353.329,-250.979 246.546,-240.261"/>
<polygon fill="midnightblue" stroke="midnightblue" points="246.635,-236.753 236.335,-239.236 245.935,-243.718 246.635,-236.753"/>
</g>
<!-- Node9&#45;&gt;Node2 -->
<g id="edge9" class="edge"><title>Node9&#45;&gt;Node2</title>
<path fill="none" stroke="midnightblue" d="M759.828,-224.467C789.9,-213.691 831.469,-193.445 814.129,-168 719.145,-28.6168 490.297,-11.6164 400.339,-10.5106"/>
<polygon fill="midnightblue" stroke="midnightblue" points="400.345,-7.01069 390.323,-10.4474 400.301,-14.0105 400.345,-7.01069"/>
</g>
<!-- Node9&#45;&gt;Node3 -->
<g id="edge12" class="edge"><title>Node9&#45;&gt;Node3</title>
<path fill="none" stroke="midnightblue" d="M706.935,-224.444C680.187,-215.359 637.727,-200.939 607.824,-190.783"/>
<polygon fill="midnightblue" stroke="midnightblue" points="608.8,-187.418 598.206,-187.516 606.549,-194.046 608.8,-187.418"/>
</g>
<!-- Node9&#45;&gt;Node4 -->
<g id="edge10" class="edge"><title>Node9&#45;&gt;Node4</title>
<path fill="none" stroke="midnightblue" d="M717.509,-224.324C703.181,-215.822 681.117,-202.729 664.381,-192.797"/>
<polygon fill="midnightblue" stroke="midnightblue" points="666.1,-189.748 655.714,-187.655 662.528,-195.768 666.1,-189.748"/>
</g>
<!-- Node10 -->
<g id="node10" class="node"><title>Node10</title>
<polygon fill="white" stroke="#bfbfbf" points="862.129,-168.5 862.129,-187.5 914.129,-187.5 914.129,-168.5 862.129,-168.5"/>
<text text-anchor="middle" x="888.129" y="-175.5" font-family="Helvetica,sans-Serif" font-size="10.00">sstream</text>
</g>
<!-- Node9&#45;&gt;Node10 -->
<g id="edge11" class="edge"><title>Node9&#45;&gt;Node10</title>
<path fill="none" stroke="midnightblue" d="M756.848,-224.444C782.978,-215.399 824.389,-201.064 853.706,-190.916"/>
<polygon fill="midnightblue" stroke="midnightblue" points="855.222,-194.095 863.526,-187.516 852.932,-187.48 855.222,-194.095"/>
</g>
<!-- Node11 -->
<g id="node11" class="node"><title>Node11</title>
<polygon fill="white" stroke="#bfbfbf" points="190.629,-0.5 190.629,-19.5 231.629,-19.5 231.629,-0.5 190.629,-0.5"/>
<text text-anchor="middle" x="211.129" y="-7.5" font-family="Helvetica,sans-Serif" font-size="10.00">string</text>
</g>
<!-- Node9&#45;&gt;Node11 -->
<g id="edge13" class="edge"><title>Node9&#45;&gt;Node11</title>
<path fill="none" stroke="midnightblue" d="M729.858,-224.336C725.902,-210.749 716.558,-184.302 700.129,-168 618.856,-87.3508 577.115,-91.0975 468.129,-56 388.962,-30.5052 291.15,-18.4327 242.164,-13.6438"/>
<polygon fill="midnightblue" stroke="midnightblue" points="242.201,-10.1319 231.917,-12.6796 241.545,-17.1011 242.201,-10.1319"/>
</g>
<!-- Node12 -->
<g id="node12" class="node"><title>Node12</title>
<polygon fill="white" stroke="#bfbfbf" points="760.629,-168.5 760.629,-187.5 805.629,-187.5 805.629,-168.5 760.629,-168.5"/>
<text text-anchor="middle" x="783.129" y="-175.5" font-family="Helvetica,sans-Serif" font-size="10.00">cstdlib</text>
</g>
<!-- Node9&#45;&gt;Node12 -->
<g id="edge14" class="edge"><title>Node9&#45;&gt;Node12</title>
<path fill="none" stroke="midnightblue" d="M740.551,-224.083C747.978,-216.22 758.981,-204.569 767.942,-195.081"/>
<polygon fill="midnightblue" stroke="midnightblue" points="770.543,-197.424 774.865,-187.751 765.454,-192.618 770.543,-197.424"/>
</g>
<!-- Node13 -->
<g id="node13" class="node"><title>Node13</title>
<polygon fill="white" stroke="#bfbfbf" points="397.129,-56.5 397.129,-75.5 441.129,-75.5 441.129,-56.5 397.129,-56.5"/>
<text text-anchor="middle" x="419.129" y="-63.5" font-family="Helvetica,sans-Serif" font-size="10.00">cmath</text>
</g>
<!-- Node9&#45;&gt;Node13 -->
<g id="edge15" class="edge"><title>Node9&#45;&gt;Node13</title>
<path fill="none" stroke="midnightblue" d="M727.003,-224.367C718.211,-210.332 698.885,-182.664 675.129,-168 621.192,-134.705 596.009,-155.472 537.129,-132 501.804,-117.918 463.749,-95.5022 440.684,-81.0202"/>
<polygon fill="midnightblue" stroke="midnightblue" points="442.366,-77.9422 432.05,-75.5286 438.609,-83.8487 442.366,-77.9422"/>
</g>
<!-- Node14&#45;&gt;Node2 -->
<g id="edge17" class="edge"><title>Node14&#45;&gt;Node2</title>
<path fill="none" stroke="midnightblue" d="M236.403,-230.498C285.093,-226.383 366.658,-215.651 431.129,-188 450.74,-179.589 499.389,-150.985 509.129,-132 524.549,-101.947 529.19,-83.1753 509.129,-56 484.361,-22.4472 434.941,-13.1348 400.495,-10.9433"/>
<polygon fill="midnightblue" stroke="midnightblue" points="400.481,-7.43903 390.33,-10.4729 400.157,-14.4315 400.481,-7.43903"/>
</g>
<!-- Node14&#45;&gt;Node6 -->
<g id="edge18" class="edge"><title>Node14&#45;&gt;Node6</title>
<path fill="none" stroke="midnightblue" d="M236.352,-226.714C289.605,-218.614 383.914,-203.696 464.129,-188 465.387,-187.754 466.665,-187.498 467.955,-187.235"/>
<polygon fill="midnightblue" stroke="midnightblue" points="468.869,-190.619 477.924,-185.118 467.415,-183.772 468.869,-190.619"/>
</g>
<!-- Node14&#45;&gt;Node11 -->
<g id="edge20" class="edge"><title>Node14&#45;&gt;Node11</title>
<path fill="none" stroke="midnightblue" d="M151.806,-229.064C101.285,-223.388 21.3165,-210.97 3.12949,-188 -2.38834,-181.031 1.64719,-176.764 3.12949,-168 11.9192,-116.029 3.48995,-91.8505 42.1295,-56 80.2148,-20.6638 142.889,-12.4608 180.268,-10.9062"/>
<polygon fill="midnightblue" stroke="midnightblue" points="180.65,-14.397 190.549,-10.6205 180.456,-7.3997 180.65,-14.397"/>
</g>
<!-- Node15 -->
<g id="node15" class="node"><title>Node15</title>
<polygon fill="white" stroke="#bfbfbf" points="12.1295,-168.5 12.1295,-187.5 52.1295,-187.5 52.1295,-168.5 12.1295,-168.5"/>
<text text-anchor="middle" x="32.1295" y="-175.5" font-family="Helvetica,sans-Serif" font-size="10.00">utility</text>
</g>
<!-- Node14&#45;&gt;Node15 -->
<g id="edge19" class="edge"><title>Node14&#45;&gt;Node15</title>
<path fill="none" stroke="midnightblue" d="M168.46,-224.444C139.604,-214.825 92.8008,-199.224 62.2411,-189.037"/>
<polygon fill="midnightblue" stroke="midnightblue" points="63.1431,-185.649 52.5494,-185.807 60.9295,-192.289 63.1431,-185.649"/>
</g>
<!-- Node16 -->
<g id="node16" class="node"><title>Node16</title>
<g id="a_node16"><a xlink:href="shape_8h.html" target="_top" xlink:title="shape.h">
<polygon fill="white" stroke="black" points="93.6295,-56.5 93.6295,-75.5 144.629,-75.5 144.629,-56.5 93.6295,-56.5"/>
<text text-anchor="middle" x="119.129" y="-63.5" font-family="Helvetica,sans-Serif" font-size="10.00">shape.h</text>
</a>
</g>
</g>
<!-- Node14&#45;&gt;Node16 -->
<g id="edge21" class="edge"><title>Node14&#45;&gt;Node16</title>
<path fill="none" stroke="midnightblue" d="M188.345,-224.449C177.091,-207.487 152.051,-168.098 137.129,-132 130.839,-116.782 126.028,-98.6698 122.969,-85.4345"/>
<polygon fill="midnightblue" stroke="midnightblue" points="126.381,-84.6516 120.818,-75.6347 119.544,-86.1526 126.381,-84.6516"/>
</g>
<!-- Node17 -->
<g id="node17" class="node"><title>Node17</title>
<g id="a_node17"><a xlink:href="triangle_8h.html" target="_top" xlink:title="triangle.h">
<polygon fill="white" stroke="black" points="277.129,-112.5 277.129,-131.5 333.129,-131.5 333.129,-112.5 277.129,-112.5"/>
<text text-anchor="middle" x="305.129" y="-119.5" font-family="Helvetica,sans-Serif" font-size="10.00">triangle.h</text>
</a>
</g>
</g>
<!-- Node14&#45;&gt;Node17 -->
<g id="edge24" class="edge"><title>Node14&#45;&gt;Node17</title>
<path fill="none" stroke="midnightblue" d="M194.485,-224.393C195.474,-210.885 199.191,-184.544 213.129,-168 227.08,-151.442 248.576,-140.454 267.281,-133.484"/>
<polygon fill="midnightblue" stroke="midnightblue" points="268.454,-136.782 276.754,-130.197 266.16,-130.169 268.454,-136.782"/>
</g>
<!-- Node18 -->
<g id="node18" class="node"><title>Node18</title>
<g id="a_node18"><a xlink:href="rightTriangle_8h.html" target="_top" xlink:title="rightTriangle.h">
<polygon fill="white" stroke="black" points="344.129,-168.5 344.129,-187.5 422.129,-187.5 422.129,-168.5 344.129,-168.5"/>
<text text-anchor="middle" x="383.129" y="-175.5" font-family="Helvetica,sans-Serif" font-size="10.00">rightTriangle.h</text>
</a>
</g>
</g>
<!-- Node14&#45;&gt;Node18 -->
<g id="edge29" class="edge"><title>Node14&#45;&gt;Node18</title>
<path fill="none" stroke="midnightblue" d="M224.077,-224.444C256.287,-215.241 307.664,-200.562 343.272,-190.388"/>
<polygon fill="midnightblue" stroke="midnightblue" points="344.668,-193.629 353.322,-187.516 342.745,-186.898 344.668,-193.629"/>
</g>
<!-- Node19 -->
<g id="node19" class="node"><title>Node19</title>
<g id="a_node19"><a xlink:href="equilateralTriangle_8h.html" target="_top" xlink:title="equilateralTriangle.h">
<polygon fill="white" stroke="black" points="222.129,-168.5 222.129,-187.5 326.129,-187.5 326.129,-168.5 222.129,-168.5"/>
<text text-anchor="middle" x="274.129" y="-175.5" font-family="Helvetica,sans-Serif" font-size="10.00">equilateralTriangle.h</text>
</a>
</g>
</g>
<!-- Node14&#45;&gt;Node19 -->
<g id="edge34" class="edge"><title>Node14&#45;&gt;Node19</title>
<path fill="none" stroke="midnightblue" d="M206.983,-224.324C219.346,-215.979 238.26,-203.212 252.867,-193.352"/>
<polygon fill="midnightblue" stroke="midnightblue" points="254.978,-196.15 261.308,-187.655 251.061,-190.348 254.978,-196.15"/>
</g>
<!-- Node20 -->
<g id="node20" class="node"><title>Node20</title>
<g id="a_node20"><a xlink:href="square_8h.html" target="_top" xlink:title="square.h">
<polygon fill="white" stroke="black" points="146.129,-112.5 146.129,-131.5 200.129,-131.5 200.129,-112.5 146.129,-112.5"/>
<text text-anchor="middle" x="173.129" y="-119.5" font-family="Helvetica,sans-Serif" font-size="10.00">square.h</text>
</a>
</g>
</g>
<!-- Node14&#45;&gt;Node20 -->
<g id="edge39" class="edge"><title>Node14&#45;&gt;Node20</title>
<path fill="none" stroke="midnightblue" d="M190.821,-224.169C187.592,-215.192 182.787,-200.818 180.129,-188 176.957,-172.7 175.172,-155.057 174.2,-142.017"/>
<polygon fill="midnightblue" stroke="midnightblue" points="177.685,-141.667 173.541,-131.916 170.7,-142.123 177.685,-141.667"/>
</g>
<!-- Node21 -->
<g id="node21" class="node"><title>Node21</title>
<g id="a_node21"><a xlink:href="circle_8h.html" target="_top" xlink:title="circle.h">
<polygon fill="white" stroke="black" points="41.1295,-112.5 41.1295,-131.5 89.1295,-131.5 89.1295,-112.5 41.1295,-112.5"/>
<text text-anchor="middle" x="65.1295" y="-119.5" font-family="Helvetica,sans-Serif" font-size="10.00">circle.h</text>
</a>
</g>
</g>
<!-- Node14&#45;&gt;Node21 -->
<g id="edge43" class="edge"><title>Node14&#45;&gt;Node21</title>
<path fill="none" stroke="midnightblue" d="M167.717,-224.358C148.393,-217.026 122.459,-204.973 104.129,-188 89.8328,-174.761 79.0277,-155.093 72.4577,-140.861"/>
<polygon fill="midnightblue" stroke="midnightblue" points="75.6376,-139.397 68.4329,-131.628 69.2208,-142.194 75.6376,-139.397"/>
</g>
<!-- Node16&#45;&gt;Node2 -->
<g id="edge22" class="edge"><title>Node16&#45;&gt;Node2</title>
<path fill="none" stroke="midnightblue" d="M144.781,-59.3231C188.164,-49.7218 276.177,-30.2435 326.2,-19.173"/>
<polygon fill="midnightblue" stroke="midnightblue" points="326.963,-22.5889 335.97,-17.0107 325.45,-15.7542 326.963,-22.5889"/>
</g>
<!-- Node16&#45;&gt;Node11 -->
<g id="edge23" class="edge"><title>Node16&#45;&gt;Node11</title>
<path fill="none" stroke="midnightblue" d="M133.911,-56.324C148.397,-47.8215 170.703,-34.7288 187.623,-24.7975"/>
<polygon fill="midnightblue" stroke="midnightblue" points="189.532,-27.735 196.385,-19.6545 185.989,-21.6981 189.532,-27.735"/>
</g>
<!-- Node17&#45;&gt;Node2 -->
<g id="edge25" class="edge"><title>Node17&#45;&gt;Node2</title>
<path fill="none" stroke="midnightblue" d="M309.681,-112.368C319.168,-94.376 341.221,-52.5503 353.835,-28.6267"/>
<polygon fill="midnightblue" stroke="midnightblue" points="357.031,-30.0696 358.599,-19.5914 350.839,-26.8047 357.031,-30.0696"/>
</g>
<!-- Node17&#45;&gt;Node11 -->
<g id="edge26" class="edge"><title>Node17&#45;&gt;Node11</title>
<path fill="none" stroke="midnightblue" d="M300.651,-112.472C293.632,-99.5225 279.171,-74.4552 263.129,-56 253.584,-45.0183 241.341,-34.2937 231.134,-26.0704"/>
<polygon fill="midnightblue" stroke="midnightblue" points="233.169,-23.219 223.141,-19.8004 228.849,-28.7265 233.169,-23.219"/>
</g>
<!-- Node17&#45;&gt;Node13 -->
<g id="edge27" class="edge"><title>Node17&#45;&gt;Node13</title>
<path fill="none" stroke="midnightblue" d="M323.193,-112.444C341.704,-103.675 370.71,-89.9355 391.985,-79.8579"/>
<polygon fill="midnightblue" stroke="midnightblue" points="393.611,-82.9604 401.15,-75.5164 390.615,-76.6343 393.611,-82.9604"/>
</g>
<!-- Node17&#45;&gt;Node16 -->
<g id="edge28" class="edge"><title>Node17&#45;&gt;Node16</title>
<path fill="none" stroke="midnightblue" d="M276.88,-112.799C244.136,-103.292 190.133,-87.614 154.594,-77.2962"/>
<polygon fill="midnightblue" stroke="midnightblue" points="155.227,-73.8354 144.648,-74.4085 153.275,-80.5579 155.227,-73.8354"/>
</g>
<!-- Node18&#45;&gt;Node2 -->
<g id="edge30" class="edge"><title>Node18&#45;&gt;Node2</title>
<path fill="none" stroke="midnightblue" d="M422.332,-171.302C445.994,-165.622 474.344,-154.34 489.129,-132 507.772,-103.833 508.587,-83.6105 489.129,-56 469.201,-27.7207 429.812,-17.1151 400.352,-13.1903"/>
<polygon fill="midnightblue" stroke="midnightblue" points="400.724,-9.7102 390.394,-12.0627 399.936,-16.6657 400.724,-9.7102"/>
</g>
<!-- Node18&#45;&gt;Node11 -->
<g id="edge31" class="edge"><title>Node18&#45;&gt;Node11</title>
<path fill="none" stroke="midnightblue" d="M394.43,-168.398C420.462,-147.572 480.123,-93.4028 449.129,-56 435.999,-40.1545 303.797,-22.231 242.294,-14.6717"/>
<polygon fill="midnightblue" stroke="midnightblue" points="242.37,-11.1553 232.021,-13.4248 241.527,-18.1043 242.37,-11.1553"/>
</g>
<!-- Node18&#45;&gt;Node13 -->
<g id="edge32" class="edge"><title>Node18&#45;&gt;Node13</title>
<path fill="none" stroke="midnightblue" d="M390.777,-168.414C397.914,-159.849 408.182,-145.986 413.129,-132 418.391,-117.126 419.705,-99.2064 419.808,-85.9525"/>
<polygon fill="midnightblue" stroke="midnightblue" points="423.304,-85.6471 419.656,-75.7001 416.305,-85.7509 423.304,-85.6471"/>
</g>
<!-- Node18&#45;&gt;Node17 -->
<g id="edge33" class="edge"><title>Node18&#45;&gt;Node17</title>
<path fill="none" stroke="midnightblue" d="M370.597,-168.324C358.544,-159.979 340.103,-147.212 325.861,-137.352"/>
<polygon fill="midnightblue" stroke="midnightblue" points="327.845,-134.469 317.63,-131.655 323.86,-140.224 327.845,-134.469"/>
</g>
<!-- Node19&#45;&gt;Node2 -->
<g id="edge35" class="edge"><title>Node19&#45;&gt;Node2</title>
<path fill="none" stroke="midnightblue" d="M295.035,-168.391C310.261,-161.01 330.078,-148.882 341.129,-132 361.715,-100.552 364.393,-55.1378 364.056,-29.8359"/>
<polygon fill="midnightblue" stroke="midnightblue" points="367.552,-29.635 363.744,-19.7484 360.555,-29.8521 367.552,-29.635"/>
</g>
<!-- Node19&#45;&gt;Node11 -->
<g id="edge36" class="edge"><title>Node19&#45;&gt;Node11</title>
<path fill="none" stroke="midnightblue" d="M270.742,-168.075C260.783,-141.832 231.451,-64.5453 218.005,-29.1165"/>
<polygon fill="midnightblue" stroke="midnightblue" points="221.202,-27.6755 214.381,-19.5681 214.657,-30.1594 221.202,-27.6755"/>
</g>
<!-- Node19&#45;&gt;Node13 -->
<g id="edge37" class="edge"><title>Node19&#45;&gt;Node13</title>
<path fill="none" stroke="midnightblue" d="M304.403,-168.44C325.851,-161.269 354.383,-149.384 375.129,-132 390.595,-119.042 402.889,-99.3294 410.507,-85.0106"/>
<polygon fill="midnightblue" stroke="midnightblue" points="413.82,-86.2149 415.207,-75.7112 407.573,-83.0578 413.82,-86.2149"/>
</g>
<!-- Node19&#45;&gt;Node17 -->
<g id="edge38" class="edge"><title>Node19&#45;&gt;Node17</title>
<path fill="none" stroke="midnightblue" d="M279.249,-168.083C283.537,-160.613 289.788,-149.724 295.072,-140.52"/>
<polygon fill="midnightblue" stroke="midnightblue" points="298.162,-142.166 300.106,-131.751 292.092,-138.681 298.162,-142.166"/>
</g>
<!-- Node20&#45;&gt;Node2 -->
<g id="edge40" class="edge"><title>Node20&#45;&gt;Node2</title>
<path fill="none" stroke="midnightblue" d="M188.038,-112.368C220.92,-93.3318 299.885,-47.6153 339.551,-24.6505"/>
<polygon fill="midnightblue" stroke="midnightblue" points="341.389,-27.6308 348.29,-19.5914 337.882,-21.5728 341.389,-27.6308"/>
</g>
<!-- Node20&#45;&gt;Node11 -->
<g id="edge41" class="edge"><title>Node20&#45;&gt;Node11</title>
<path fill="none" stroke="midnightblue" d="M176.111,-112.368C182.271,-94.5366 196.518,-53.2953 204.817,-29.2717"/>
<polygon fill="midnightblue" stroke="midnightblue" points="208.204,-30.1862 208.162,-19.5914 201.588,-27.9005 208.204,-30.1862"/>
</g>
<!-- Node20&#45;&gt;Node16 -->
<g id="edge42" class="edge"><title>Node20&#45;&gt;Node16</title>
<path fill="none" stroke="midnightblue" d="M164.212,-112.083C156.349,-104.22 144.698,-92.5688 135.211,-83.0813"/>
<polygon fill="midnightblue" stroke="midnightblue" points="137.427,-80.3473 127.881,-75.7511 132.477,-85.2971 137.427,-80.3473"/>
</g>
<!-- Node21&#45;&gt;Node2 -->
<g id="edge44" class="edge"><title>Node21&#45;&gt;Node2</title>
<path fill="none" stroke="midnightblue" d="M64.937,-112.324C65.1336,-98.227 67.7347,-70.4713 84.1295,-56 102.054,-40.1787 254.421,-22.3629 326.115,-14.7614"/>
<polygon fill="midnightblue" stroke="midnightblue" points="326.502,-18.2401 336.082,-13.7154 325.771,-11.2783 326.502,-18.2401"/>
</g>
<!-- Node21&#45;&gt;Node11 -->
<g id="edge45" class="edge"><title>Node21&#45;&gt;Node11</title>
<path fill="none" stroke="midnightblue" d="M59.3866,-112.485C51.1475,-99.1025 38.3038,-72.9305 51.1295,-56 66.7106,-35.4323 138.61,-21.6397 180.535,-15.1941"/>
<polygon fill="midnightblue" stroke="midnightblue" points="181.118,-18.6459 190.495,-13.714 180.089,-11.7219 181.118,-18.6459"/>
</g>
<!-- Node21&#45;&gt;Node16 -->
<g id="edge46" class="edge"><title>Node21&#45;&gt;Node16</title>
<path fill="none" stroke="midnightblue" d="M74.0465,-112.083C81.91,-104.22 93.5607,-92.5688 103.048,-83.0813"/>
<polygon fill="midnightblue" stroke="midnightblue" points="105.782,-85.2971 110.378,-75.7511 100.832,-80.3473 105.782,-85.2971"/>
</g>
</g>
</svg>
        <g id="navigator" transform="translate(0 0)" fill="#404254">
                <rect fill="#f2f5e9" fill-opacity="0.5" stroke="#606060" stroke-width=".5" x="0" y="0" width="60" height="60"/>
                <use id="zoomplus" xlink:href="#zoomPlus" x="17" y="9" onmousedown="handleZoom(evt,'in')"/>
                <use id="zoomminus" xlink:href="#zoomMin" x="42" y="9" onmousedown="handleZoom(evt,'out')"/>
                <use id="reset" xlink:href="#resetDef" x="30" y="36" onmousedown="handleReset()"/>
                <g id="arrowUp" xlink:href="#dirArrow" transform="translate(30 24)" onmousedown="handlePan(0,-1)">
                  <use xlink:href="#rim" fill="#404040">
                        <set attributeName="fill" to="#808080" begin="arrowUp.mouseover" end="arrowUp.mouseout"/>
                  </use>
                  <path fill="none" stroke="white" stroke-width="1.5" d="M0,-3.0v7 M-2.5,-0.5L0,-3.0L2.5,-0.5"/>
                </g>
                <g id="arrowRight" xlink:href="#dirArrow" transform="rotate(90) translate(36 -43)" onmousedown="handlePan(1,0)">
                  <use xlink:href="#rim" fill="#404040">
                        <set attributeName="fill" to="#808080" begin="arrowRight.mouseover" end="arrowRight.mouseout"/>
                  </use>
                  <path fill="none" stroke="white" stroke-width="1.5" d="M0,-3.0v7 M-2.5,-0.5L0,-3.0L2.5,-0.5"/>
                </g>
                <g id="arrowDown" xlink:href="#dirArrow" transform="rotate(180) translate(-30 -48)" onmousedown="handlePan(0,1)">
                  <use xlink:href="#rim" fill="#404040">
                        <set attributeName="fill" to="#808080" begin="arrowDown.mouseover" end="arrowDown.mouseout"/>
                  </use>
                  <path fill="none" stroke="white" stroke-width="1.5" d="M0,-3.0v7 M-2.5,-0.5L0,-3.0L2.5,-0.5"/>
                </g>
                <g id="arrowLeft" xlink:href="#dirArrow" transform="rotate(270) translate(-36 17)" onmousedown="handlePan(-1,0)">
                  <use xlink:href="#rim" fill="#404040">
                        <set attributeName="fill" to="#808080" begin="arrowLeft.mouseover" end="arrowLeft.mouseout"/>
                  </use>
                  <path fill="none" stroke="white" stroke-width="1.5" d="M0,-3.0v7 M-2.5,-0.5L0,-3.0L2.5,-0.5"/>
                </g>
        </g>
        <svg viewBox="0 0 15 15" width="100%" height="30px" preserveAspectRatio="xMaxYMin meet">
         <g id="arrow_out" transform="scale(0.3 0.3)">
          <a xlink:href="runShapes_8cpp__incl_org.svg" target="_base">
           <rect id="button" ry="5" rx="5" y="6" x="6" height="38" width="38"
                fill="#f2f5e9" fill-opacity="0.5" stroke="#606060" stroke-width="1.0"/>
           <path id="arrow"
             d="M 11.500037,31.436501 C 11.940474,20.09759 22.043105,11.32322 32.158766,21.979434 L 37.068811,17.246167 C 37.068811,17.246167 37.088388,32 37.088388,32 L 22.160133,31.978069 C 22.160133,31.978069 26.997745,27.140456 26.997745,27.140456 C 18.528582,18.264221 13.291696,25.230495 11.500037,31.436501 z"
             style="fill:#404040;"/>
          </a>
         </g>
        </svg>
</svg>
