<?xml version="1.0" encoding="UTF-8" standalone="no"?>
<!DOCTYPE svg PUBLIC "-//W3C//DTD SVG 1.1//EN"
 "http://www.w3.org/Graphics/SVG/1.1/DTD/svg11.dtd">
<!-- Generated by graphviz version 2.36.0 (20140111.2315)
 -->
<!-- Title: main Pages: 1 -->
<svg width="398pt" height="288pt"
 viewBox="0.00 0.00 398.00 288.43" xmlns="http://www.w3.org/2000/svg" xmlns:xlink="http://www.w3.org/1999/xlink">
<g id="graph0" class="graph" transform="scale(1 1) rotate(0) translate(4 284.428)">
<title>main</title>
<polygon fill="white" stroke="none" points="-4,4 -4,-284.428 394,-284.428 394,4 -4,4"/>
<!-- Node1 -->
<g id="node1" class="node"><title>Node1</title>
<polygon fill="#bfbfbf" stroke="black" points="0,-133.5 0,-152.5 38,-152.5 38,-133.5 0,-133.5"/>
<text text-anchor="middle" x="19" y="-140.5" font-family="Helvetica,sans-Serif" font-size="10.00">main</text>
</g>
<!-- Node2 -->
<g id="node2" class="node"><title>Node2</title>
<g id="a_node2"><a xlink:href="namespaceutilities.html#a5a4a24938bfeb46f18a7d7ecf96e7b6b" target="_top" xlink:title="utilities::printProjectHeading">
<polygon fill="white" stroke="black" points="77.5,-228.5 77.5,-247.5 216.5,-247.5 216.5,-228.5 77.5,-228.5"/>
<text text-anchor="middle" x="147" y="-235.5" font-family="Helvetica,sans-Serif" font-size="10.00">utilities::printProjectHeading</text>
</a>
</g>
</g>
<!-- Node1&#45;&gt;Node2 -->
<g id="edge1" class="edge"><title>Node1&#45;&gt;Node2</title>
<path fill="none" stroke="midnightblue" d="M24.1103,-152.572C31.5859,-168.811 48.9807,-201.68 74,-219 76.9048,-221.011 80.0099,-222.809 83.2395,-224.417"/>
<polygon fill="midnightblue" stroke="midnightblue" points="82.0394,-227.711 92.6075,-228.463 84.8149,-221.285 82.0394,-227.711"/>
</g>
<!-- Node3 -->
<g id="node3" class="node"><title>Node3</title>
<g id="a_node3"><a xlink:href="namespaceutilities.html#a2ca4bf55e15b157fc1255112ecf60b4b" target="_top" xlink:title="utilities::printHorizontalLine">
<polygon fill="white" stroke="black" points="256,-234.5 256,-253.5 390,-253.5 390,-234.5 256,-234.5"/>
<text text-anchor="middle" x="323" y="-241.5" font-family="Helvetica,sans-Serif" font-size="10.00">utilities::printHorizontalLine</text>
</a>
</g>
</g>
<!-- Node1&#45;&gt;Node3 -->
<g id="edge8" class="edge"><title>Node1&#45;&gt;Node3</title>
<path fill="none" stroke="midnightblue" d="M21.1548,-152.579C24.49,-175.473 36.4337,-233.227 74,-257 140.603,-299.148 238.551,-274.47 289.112,-256.915"/>
<polygon fill="midnightblue" stroke="midnightblue" points="290.339,-260.193 298.569,-253.521 287.974,-253.604 290.339,-260.193"/>
</g>
<!-- Node5 -->
<g id="node5" class="node"><title>Node5</title>
<g id="a_node5"><a xlink:href="namespaceutilities.html#a00ebb5fe3065cdb7f3a0cd6cc1c716e0" target="_top" xlink:title="utilities::printHeading">
<polygon fill="white" stroke="black" points="93,-190.5 93,-209.5 201,-209.5 201,-190.5 93,-190.5"/>
<text text-anchor="middle" x="147" y="-197.5" font-family="Helvetica,sans-Serif" font-size="10.00">utilities::printHeading</text>
</a>
</g>
</g>
<!-- Node1&#45;&gt;Node5 -->
<g id="edge4" class="edge"><title>Node1&#45;&gt;Node5</title>
<path fill="none" stroke="midnightblue" d="M31.2639,-152.743C41.7044,-161.313 57.9947,-173.551 74,-181 79.0545,-183.353 84.4493,-185.452 89.9263,-187.316"/>
<polygon fill="midnightblue" stroke="midnightblue" points="89.2285,-190.765 99.8178,-190.422 91.3258,-184.087 89.2285,-190.765"/>
</g>
<!-- Node6 -->
<g id="node6" class="node"><title>Node6</title>
<g id="a_node6"><a xlink:href="classShapeFactory.html#a8618cdfc6a7320bee3bf96e95e92eaff" target="_top" xlink:title="ShapeFactory::listKnown">
<polygon fill="white" stroke="black" points="84,-152.5 84,-171.5 210,-171.5 210,-152.5 84,-152.5"/>
<text text-anchor="middle" x="147" y="-159.5" font-family="Helvetica,sans-Serif" font-size="10.00">ShapeFactory::listKnown</text>
</a>
</g>
</g>
<!-- Node1&#45;&gt;Node6 -->
<g id="edge7" class="edge"><title>Node1&#45;&gt;Node6</title>
<path fill="none" stroke="midnightblue" d="M38.0527,-145.722C47.759,-147.186 60.4354,-149.097 73.6736,-151.094"/>
<polygon fill="midnightblue" stroke="midnightblue" points="73.4565,-154.6 83.8666,-152.631 74.5003,-147.679 73.4565,-154.6"/>
</g>
<!-- Node7 -->
<g id="node7" class="node"><title>Node7</title>
<g id="a_node7"><a xlink:href="classShapeFactory.html#a914d40208527df461c103f4045b62e42" target="_top" xlink:title="ShapeFactory::numberKnown">
<polygon fill="white" stroke="black" points="74,-114.5 74,-133.5 220,-133.5 220,-114.5 74,-114.5"/>
<text text-anchor="middle" x="147" y="-121.5" font-family="Helvetica,sans-Serif" font-size="10.00">ShapeFactory::numberKnown</text>
</a>
</g>
</g>
<!-- Node1&#45;&gt;Node7 -->
<g id="edge9" class="edge"><title>Node1&#45;&gt;Node7</title>
<path fill="none" stroke="midnightblue" d="M38.0527,-140.278C47.5421,-138.847 59.8703,-136.988 72.787,-135.04"/>
<polygon fill="midnightblue" stroke="midnightblue" points="73.3756,-138.491 82.7419,-133.539 72.3318,-131.569 73.3756,-138.491"/>
</g>
<!-- Node8 -->
<g id="node8" class="node"><title>Node8</title>
<g id="a_node8"><a xlink:href="runShapes_8cpp.html#a0223e658d108bc16bce442b4c24ad7e5" target="_top" xlink:title="readShapes">
<polygon fill="white" stroke="black" points="113,-76.5 113,-95.5 181,-95.5 181,-76.5 113,-76.5"/>
<text text-anchor="middle" x="147" y="-83.5" font-family="Helvetica,sans-Serif" font-size="10.00">readShapes</text>
</a>
</g>
</g>
<!-- Node1&#45;&gt;Node8 -->
<g id="edge10" class="edge"><title>Node1&#45;&gt;Node8</title>
<path fill="none" stroke="midnightblue" d="M31.2639,-133.257C41.7044,-124.687 57.9947,-112.449 74,-105 83.0469,-100.789 93.1838,-97.3906 102.931,-94.6968"/>
<polygon fill="midnightblue" stroke="midnightblue" points="104.07,-98.0179 112.885,-92.1404 102.329,-91.2379 104.07,-98.0179"/>
</g>
<!-- Node9 -->
<g id="node9" class="node"><title>Node9</title>
<g id="a_node9"><a xlink:href="runShapes_8cpp.html#aef0dfe19adea7d9d7c1897b5e3ce17a1" target="_top" xlink:title="printShapes">
<polygon fill="white" stroke="black" points="113,-38.5 113,-57.5 181,-57.5 181,-38.5 113,-38.5"/>
<text text-anchor="middle" x="147" y="-45.5" font-family="Helvetica,sans-Serif" font-size="10.00">printShapes</text>
</a>
</g>
</g>
<!-- Node1&#45;&gt;Node9 -->
<g id="edge11" class="edge"><title>Node1&#45;&gt;Node9</title>
<path fill="none" stroke="midnightblue" d="M24.1103,-133.428C31.5859,-117.189 48.9807,-84.3203 74,-67 82.5301,-61.0948 92.7875,-57.0248 102.851,-54.2197"/>
<polygon fill="midnightblue" stroke="midnightblue" points="103.884,-57.5709 112.779,-51.8152 102.236,-50.7676 103.884,-57.5709"/>
</g>
<!-- Node10 -->
<g id="node10" class="node"><title>Node10</title>
<g id="a_node10"><a xlink:href="runShapes_8cpp.html#a4737fcffcbcaf6725cf27c3164956c6e" target="_top" xlink:title="printShapeNames">
<polygon fill="white" stroke="black" points="99.5,-0.5 99.5,-19.5 194.5,-19.5 194.5,-0.5 99.5,-0.5"/>
<text text-anchor="middle" x="147" y="-7.5" font-family="Helvetica,sans-Serif" font-size="10.00">printShapeNames</text>
</a>
</g>
</g>
<!-- Node1&#45;&gt;Node10 -->
<g id="edge12" class="edge"><title>Node1&#45;&gt;Node10</title>
<path fill="none" stroke="midnightblue" d="M21.718,-133.37C26.1619,-111.364 40.1411,-57.1284 74,-29 78.6504,-25.1366 84.0045,-22.0507 89.65,-19.5871"/>
<polygon fill="midnightblue" stroke="midnightblue" points="91.1865,-22.7507 99.3533,-16.0013 88.76,-16.1847 91.1865,-22.7507"/>
</g>
<!-- Node2&#45;&gt;Node3 -->
<g id="edge2" class="edge"><title>Node2&#45;&gt;Node3</title>
<path fill="none" stroke="midnightblue" d="M216.769,-240.371C226.187,-240.696 235.903,-241.031 245.449,-241.36"/>
<polygon fill="midnightblue" stroke="midnightblue" points="245.603,-244.868 255.718,-241.714 245.844,-237.872 245.603,-244.868"/>
</g>
<!-- Node4 -->
<g id="node4" class="node"><title>Node4</title>
<g id="a_node4"><a xlink:href="namespaceutilities.html#a0364030fce3431e2ec985b20e571ce9a" target="_top" xlink:title="utilities::printCentered\lTitle">
<polygon fill="white" stroke="black" points="267,-185 267,-215 379,-215 379,-185 267,-185"/>
<text text-anchor="start" x="275" y="-203" font-family="Helvetica,sans-Serif" font-size="10.00">utilities::printCentered</text>
<text text-anchor="middle" x="323" y="-192" font-family="Helvetica,sans-Serif" font-size="10.00">Title</text>
</a>
</g>
</g>
<!-- Node2&#45;&gt;Node4 -->
<g id="edge3" class="edge"><title>Node2&#45;&gt;Node4</title>
<path fill="none" stroke="midnightblue" d="M191.908,-228.411C211.638,-224.102 235.326,-218.929 257.049,-214.185"/>
<polygon fill="midnightblue" stroke="midnightblue" points="257.848,-217.593 266.871,-212.04 256.354,-210.754 257.848,-217.593"/>
</g>
<!-- Node5&#45;&gt;Node3 -->
<g id="edge5" class="edge"><title>Node5&#45;&gt;Node3</title>
<path fill="none" stroke="midnightblue" d="M185.755,-209.547C211.749,-216.12 246.487,-224.905 274.38,-231.958"/>
<polygon fill="midnightblue" stroke="midnightblue" points="273.765,-235.413 284.318,-234.471 275.482,-228.626 273.765,-235.413"/>
</g>
<!-- Node5&#45;&gt;Node4 -->
<g id="edge6" class="edge"><title>Node5&#45;&gt;Node4</title>
<path fill="none" stroke="midnightblue" d="M201.151,-200C218.691,-200 238.405,-200 256.743,-200"/>
<polygon fill="midnightblue" stroke="midnightblue" points="256.766,-203.5 266.766,-200 256.766,-196.5 256.766,-203.5"/>
</g>
</g>
</svg>
