<?xml version="1.0" encoding="UTF-8" standalone="no"?>
<!DOCTYPE svg PUBLIC "-//W3C//DTD SVG 1.1//EN"
 "http://www.w3.org/Graphics/SVG/1.1/DTD/svg11.dtd">
<!-- Generated by graphviz version 2.36.0 (20140111.2315)
 -->
<!-- Title: shapeFactory.cpp Pages: 1 -->
<!--zoomable 308 -->
<svg id="main" version="1.1" xmlns="http://www.w3.org/2000/svg" xmlns:xlink="http://www.w3.org/1999/xlink" xml:space="preserve" onload="init(evt)">
<style type="text/css"><![CDATA[
.edge:hover path { stroke: red; }
.edge:hover polygon { stroke: red; fill: red; }
]]></style>
<script type="text/javascript"><![CDATA[
var edges = document.getElementsByTagName('g');
if (edges && edges.length) {
  for (var i=0;i<edges.length;i++) {
    if (edges[i].id.substr(0,4)=='edge') {
      edges[i].setAttribute('class','edge');
    }
  }
}
]]></script>
        <defs>
                <circle id="rim" cx="0" cy="0" r="7"/>
                <circle id="rim2" cx="0" cy="0" r="3.5"/>
                <g id="zoomPlus">
                        <use xlink:href="#rim" fill="#404040">
                                <set attributeName="fill" to="#808080" begin="zoomplus.mouseover" end="zoomplus.mouseout"/>
                        </use>
                        <path d="M-4,0h8M0,-4v8" fill="none" stroke="white" stroke-width="1.5" pointer-events="none"/>
                </g>
                <g id="zoomMin">
                        <use xlink:href="#rim" fill="#404040">
                                <set attributeName="fill" to="#808080" begin="zoomminus.mouseover" end="zoomminus.mouseout"/>
                        </use>
                        <path d="M-4,0h8" fill="none" stroke="white" stroke-width="1.5" pointer-events="none"/>
                </g>
                <g id="dirArrow">
                        <path fill="none" stroke="white" stroke-width="1.5" d="M0,-3.0v7 M-2.5,-0.5L0,-3.0L2.5,-0.5"/>
                </g>
               <g id="resetDef">
                       <use xlink:href="#rim2" fill="#404040">
                               <set attributeName="fill" to="#808080" begin="reset.mouseover" end="reset.mouseout"/>
                       </use>
               </g>
        </defs>

<script type="text/javascript">
var viewWidth = 628;
var viewHeight = 308;
var sectionId = 'dynsection-0';
</script>
<script xlink:href="svgpan.js"/>
<svg id="graph" class="graph">
<g id="viewport">
<title>shapeFactory.cpp</title>
<polygon fill="white" stroke="none" points="-4,4 -4,-304 623.685,-304 623.685,4 -4,4"/>
<!-- Node1 -->
<g id="node1" class="node"><title>Node1</title>
<polygon fill="#bfbfbf" stroke="black" points="211.185,-280.5 211.185,-299.5 306.185,-299.5 306.185,-280.5 211.185,-280.5"/>
<text text-anchor="middle" x="258.685" y="-287.5" font-family="Helvetica,sans-Serif" font-size="10.00">shapeFactory.cpp</text>
</g>
<!-- Node2 -->
<g id="node2" class="node"><title>Node2</title>
<g id="a_node2"><a xlink:href="shapeFactory_8h.html" target="_top" xlink:title="shapeFactory.h">
<polygon fill="white" stroke="black" points="216.685,-224.5 216.685,-243.5 300.685,-243.5 300.685,-224.5 216.685,-224.5"/>
<text text-anchor="middle" x="258.685" y="-231.5" font-family="Helvetica,sans-Serif" font-size="10.00">shapeFactory.h</text>
</a>
</g>
</g>
<!-- Node1&#45;&gt;Node2 -->
<g id="edge1" class="edge"><title>Node1&#45;&gt;Node2</title>
<path fill="none" stroke="midnightblue" d="M258.685,-280.083C258.685,-273.006 258.685,-262.861 258.685,-253.986"/>
<polygon fill="midnightblue" stroke="midnightblue" points="262.185,-253.751 258.685,-243.751 255.185,-253.751 262.185,-253.751"/>
</g>
<!-- Node3 -->
<g id="node3" class="node"><title>Node3</title>
<polygon fill="white" stroke="#bfbfbf" points="12.6854,-0.5 12.6854,-19.5 66.6854,-19.5 66.6854,-0.5 12.6854,-0.5"/>
<text text-anchor="middle" x="39.6854" y="-7.5" font-family="Helvetica,sans-Serif" font-size="10.00">iostream</text>
</g>
<!-- Node2&#45;&gt;Node3 -->
<g id="edge2" class="edge"><title>Node2&#45;&gt;Node3</title>
<path fill="none" stroke="midnightblue" d="M216.683,-231.862C155.436,-227.542 45.0591,-208.926 9.68538,-132 -4.42765,-101.309 -1.3496,-88.2558 8.68538,-56 11.914,-45.6222 18.4611,-35.5209 24.7101,-27.5268"/>
<polygon fill="midnightblue" stroke="midnightblue" points="27.4705,-29.6818 31.2027,-19.7661 22.1016,-25.1902 27.4705,-29.6818"/>
</g>
<!-- Node4 -->
<g id="node4" class="node"><title>Node4</title>
<polygon fill="white" stroke="#bfbfbf" points="509.685,-168.5 509.685,-187.5 561.685,-187.5 561.685,-168.5 509.685,-168.5"/>
<text text-anchor="middle" x="535.685" y="-175.5" font-family="Helvetica,sans-Serif" font-size="10.00">memory</text>
</g>
<!-- Node2&#45;&gt;Node4 -->
<g id="edge3" class="edge"><title>Node2&#45;&gt;Node4</title>
<path fill="none" stroke="midnightblue" d="M300.725,-225.46C348.169,-216.847 427.611,-202.117 495.685,-188 496.94,-187.74 498.216,-187.472 499.504,-187.198"/>
<polygon fill="midnightblue" stroke="midnightblue" points="500.435,-190.578 509.463,-185.033 498.947,-183.737 500.435,-190.578"/>
</g>
<!-- Node5 -->
<g id="node5" class="node"><title>Node5</title>
<polygon fill="white" stroke="#bfbfbf" points="579.685,-168.5 579.685,-187.5 619.685,-187.5 619.685,-168.5 579.685,-168.5"/>
<text text-anchor="middle" x="599.685" y="-175.5" font-family="Helvetica,sans-Serif" font-size="10.00">utility</text>
</g>
<!-- Node2&#45;&gt;Node5 -->
<g id="edge4" class="edge"><title>Node2&#45;&gt;Node5</title>
<path fill="none" stroke="midnightblue" d="M300.703,-229.066C359.1,-223.135 468.173,-210.377 569.713,-187.91"/>
<polygon fill="midnightblue" stroke="midnightblue" points="570.526,-191.315 579.514,-185.706 568.99,-184.486 570.526,-191.315"/>
</g>
<!-- Node6 -->
<g id="node6" class="node"><title>Node6</title>
<polygon fill="white" stroke="#bfbfbf" points="203.185,-0.5 203.185,-19.5 244.185,-19.5 244.185,-0.5 203.185,-0.5"/>
<text text-anchor="middle" x="223.685" y="-7.5" font-family="Helvetica,sans-Serif" font-size="10.00">string</text>
</g>
<!-- Node2&#45;&gt;Node6 -->
<g id="edge5" class="edge"><title>Node2&#45;&gt;Node6</title>
<path fill="none" stroke="midnightblue" d="M300.934,-227.818C347.132,-221.214 416.857,-208.175 433.685,-188 471.303,-142.902 476.736,-101.565 439.685,-56 416.69,-27.7197 308.511,-16.6175 254.509,-12.782"/>
<polygon fill="midnightblue" stroke="midnightblue" points="254.684,-9.28597 244.472,-12.1088 254.216,-16.2703 254.684,-9.28597"/>
</g>
<!-- Node7 -->
<g id="node7" class="node"><title>Node7</title>
<g id="a_node7"><a xlink:href="shape_8h.html" target="_top" xlink:title="shape.h">
<polygon fill="white" stroke="black" points="106.185,-56.5 106.185,-75.5 157.185,-75.5 157.185,-56.5 106.185,-56.5"/>
<text text-anchor="middle" x="131.685" y="-63.5" font-family="Helvetica,sans-Serif" font-size="10.00">shape.h</text>
</a>
</g>
</g>
<!-- Node2&#45;&gt;Node7 -->
<g id="edge6" class="edge"><title>Node2&#45;&gt;Node7</title>
<path fill="none" stroke="midnightblue" d="M231.792,-224.455C211.708,-217.108 184.435,-204.994 164.685,-188 141.886,-168.382 135.519,-160.752 126.685,-132 122.011,-116.786 123.981,-98.6729 126.706,-85.4366"/>
<polygon fill="midnightblue" stroke="midnightblue" points="130.128,-86.175 129.043,-75.6358 123.319,-84.5511 130.128,-86.175"/>
</g>
<!-- Node8 -->
<g id="node8" class="node"><title>Node8</title>
<g id="a_node8"><a xlink:href="triangle_8h.html" target="_top" xlink:title="triangle.h">
<polygon fill="white" stroke="black" points="245.685,-112.5 245.685,-131.5 301.685,-131.5 301.685,-112.5 245.685,-112.5"/>
<text text-anchor="middle" x="273.685" y="-119.5" font-family="Helvetica,sans-Serif" font-size="10.00">triangle.h</text>
</a>
</g>
</g>
<!-- Node2&#45;&gt;Node8 -->
<g id="edge9" class="edge"><title>Node2&#45;&gt;Node8</title>
<path fill="none" stroke="midnightblue" d="M262.541,-224.249C266.243,-215.333 271.575,-201.006 273.685,-188 276.174,-172.665 275.986,-155.025 275.28,-141.994"/>
<polygon fill="midnightblue" stroke="midnightblue" points="278.764,-141.638 274.581,-131.904 271.781,-142.122 278.764,-141.638"/>
</g>
<!-- Node10 -->
<g id="node10" class="node"><title>Node10</title>
<g id="a_node10"><a xlink:href="rightTriangle_8h.html" target="_top" xlink:title="rightTriangle.h">
<polygon fill="white" stroke="black" points="186.685,-168.5 186.685,-187.5 264.685,-187.5 264.685,-168.5 186.685,-168.5"/>
<text text-anchor="middle" x="225.685" y="-175.5" font-family="Helvetica,sans-Serif" font-size="10.00">rightTriangle.h</text>
</a>
</g>
</g>
<!-- Node2&#45;&gt;Node10 -->
<g id="edge14" class="edge"><title>Node2&#45;&gt;Node10</title>
<path fill="none" stroke="midnightblue" d="M253.236,-224.083C248.671,-216.613 242.017,-205.724 236.392,-196.52"/>
<polygon fill="midnightblue" stroke="midnightblue" points="239.234,-194.459 231.033,-187.751 233.261,-198.109 239.234,-194.459"/>
</g>
<!-- Node11 -->
<g id="node11" class="node"><title>Node11</title>
<g id="a_node11"><a xlink:href="equilateralTriangle_8h.html" target="_top" xlink:title="equilateralTriangle.h">
<polygon fill="white" stroke="black" points="320.685,-168.5 320.685,-187.5 424.685,-187.5 424.685,-168.5 320.685,-168.5"/>
<text text-anchor="middle" x="372.685" y="-175.5" font-family="Helvetica,sans-Serif" font-size="10.00">equilateralTriangle.h</text>
</a>
</g>
</g>
<!-- Node2&#45;&gt;Node11 -->
<g id="edge19" class="edge"><title>Node2&#45;&gt;Node11</title>
<path fill="none" stroke="midnightblue" d="M276.749,-224.444C295.26,-215.675 324.266,-201.935 345.541,-191.858"/>
<polygon fill="midnightblue" stroke="midnightblue" points="347.167,-194.96 354.706,-187.516 344.171,-188.634 347.167,-194.96"/>
</g>
<!-- Node12 -->
<g id="node12" class="node"><title>Node12</title>
<g id="a_node12"><a xlink:href="square_8h.html" target="_top" xlink:title="square.h">
<polygon fill="white" stroke="black" points="135.685,-112.5 135.685,-131.5 189.685,-131.5 189.685,-112.5 135.685,-112.5"/>
<text text-anchor="middle" x="162.685" y="-119.5" font-family="Helvetica,sans-Serif" font-size="10.00">square.h</text>
</a>
</g>
</g>
<!-- Node2&#45;&gt;Node12 -->
<g id="edge24" class="edge"><title>Node2&#45;&gt;Node12</title>
<path fill="none" stroke="midnightblue" d="M231.432,-224.437C213.531,-217.427 191.036,-205.737 177.685,-188 167.782,-174.844 164.252,-156.25 163.071,-142.318"/>
<polygon fill="midnightblue" stroke="midnightblue" points="166.547,-141.742 162.543,-131.932 159.556,-142.097 166.547,-141.742"/>
</g>
<!-- Node13 -->
<g id="node13" class="node"><title>Node13</title>
<g id="a_node13"><a xlink:href="circle_8h.html" target="_top" xlink:title="circle.h">
<polygon fill="white" stroke="black" points="31.6854,-112.5 31.6854,-131.5 79.6854,-131.5 79.6854,-112.5 31.6854,-112.5"/>
<text text-anchor="middle" x="55.6854" y="-119.5" font-family="Helvetica,sans-Serif" font-size="10.00">circle.h</text>
</a>
</g>
</g>
<!-- Node2&#45;&gt;Node13 -->
<g id="edge28" class="edge"><title>Node2&#45;&gt;Node13</title>
<path fill="none" stroke="midnightblue" d="M216.496,-230.307C180.619,-226.102 129.387,-215.367 93.6854,-188 78.1579,-176.097 67.7976,-155.894 61.8701,-141.165"/>
<polygon fill="midnightblue" stroke="midnightblue" points="65.0839,-139.765 58.3269,-131.604 58.5201,-142.197 65.0839,-139.765"/>
</g>
<!-- Node7&#45;&gt;Node3 -->
<g id="edge7" class="edge"><title>Node7&#45;&gt;Node3</title>
<path fill="none" stroke="midnightblue" d="M116.904,-56.324C102.418,-47.8215 80.1123,-34.7288 63.1922,-24.7975"/>
<polygon fill="midnightblue" stroke="midnightblue" points="64.826,-21.6981 54.4301,-19.6545 61.2825,-27.735 64.826,-21.6981"/>
</g>
<!-- Node7&#45;&gt;Node6 -->
<g id="edge8" class="edge"><title>Node7&#45;&gt;Node6</title>
<path fill="none" stroke="midnightblue" d="M146.467,-56.324C160.952,-47.8215 183.258,-34.7288 200.179,-24.7975"/>
<polygon fill="midnightblue" stroke="midnightblue" points="202.088,-27.735 208.941,-19.6545 198.545,-21.6981 202.088,-27.735"/>
</g>
<!-- Node8&#45;&gt;Node3 -->
<g id="edge10" class="edge"><title>Node8&#45;&gt;Node3</title>
<path fill="none" stroke="midnightblue" d="M261.177,-112.34C241.514,-98.993 201.877,-73.1449 165.685,-56 136.59,-42.2171 102.066,-30.1679 76.52,-22.0153"/>
<polygon fill="midnightblue" stroke="midnightblue" points="77.4444,-18.6371 66.8551,-18.9797 75.3468,-25.3155 77.4444,-18.6371"/>
</g>
<!-- Node8&#45;&gt;Node6 -->
<g id="edge11" class="edge"><title>Node8&#45;&gt;Node6</title>
<path fill="none" stroke="midnightblue" d="M276.343,-112.102C279.713,-99.1093 284.133,-74.4829 275.685,-56 269.908,-43.3602 258.633,-32.911 248.055,-25.2737"/>
<polygon fill="midnightblue" stroke="midnightblue" points="249.727,-22.1817 239.469,-19.5333 245.837,-28.0009 249.727,-22.1817"/>
</g>
<!-- Node8&#45;&gt;Node7 -->
<g id="edge13" class="edge"><title>Node8&#45;&gt;Node7</title>
<path fill="none" stroke="midnightblue" d="M251.185,-112.444C227.608,-103.478 190.363,-89.314 163.721,-79.1827"/>
<polygon fill="midnightblue" stroke="midnightblue" points="164.671,-75.7995 154.08,-75.5164 162.183,-82.3424 164.671,-75.7995"/>
</g>
<!-- Node9 -->
<g id="node9" class="node"><title>Node9</title>
<polygon fill="white" stroke="#bfbfbf" points="327.685,-56.5 327.685,-75.5 371.685,-75.5 371.685,-56.5 327.685,-56.5"/>
<text text-anchor="middle" x="349.685" y="-63.5" font-family="Helvetica,sans-Serif" font-size="10.00">cmath</text>
</g>
<!-- Node8&#45;&gt;Node9 -->
<g id="edge12" class="edge"><title>Node8&#45;&gt;Node9</title>
<path fill="none" stroke="midnightblue" d="M285.896,-112.324C297.461,-104.107 315.061,-91.6017 328.846,-81.8069"/>
<polygon fill="midnightblue" stroke="midnightblue" points="331.128,-84.4791 337.252,-75.8339 327.073,-78.7729 331.128,-84.4791"/>
</g>
<!-- Node10&#45;&gt;Node3 -->
<g id="edge15" class="edge"><title>Node10&#45;&gt;Node3</title>
<path fill="none" stroke="midnightblue" d="M186.357,-173.89C133.353,-168.803 43.2391,-156.693 22.6854,-132 -1.87531,-102.493 16.7858,-54.2341 29.8329,-28.4826"/>
<polygon fill="midnightblue" stroke="midnightblue" points="32.9987,-29.9843 34.6176,-19.5138 26.8226,-26.6893 32.9987,-29.9843"/>
</g>
<!-- Node10&#45;&gt;Node6 -->
<g id="edge16" class="edge"><title>Node10&#45;&gt;Node6</title>
<path fill="none" stroke="midnightblue" d="M225.578,-168.075C225.263,-141.945 224.339,-65.2106 223.909,-29.577"/>
<polygon fill="midnightblue" stroke="midnightblue" points="227.409,-29.5252 223.789,-19.5681 220.409,-29.6096 227.409,-29.5252"/>
</g>
<!-- Node10&#45;&gt;Node8 -->
<g id="edge18" class="edge"><title>Node10&#45;&gt;Node8</title>
<path fill="none" stroke="midnightblue" d="M233.612,-168.083C240.531,-160.298 250.751,-148.801 259.137,-139.367"/>
<polygon fill="midnightblue" stroke="midnightblue" points="261.879,-141.55 265.907,-131.751 256.647,-136.9 261.879,-141.55"/>
</g>
<!-- Node10&#45;&gt;Node9 -->
<g id="edge17" class="edge"><title>Node10&#45;&gt;Node9</title>
<path fill="none" stroke="midnightblue" d="M249.145,-168.388C267.253,-160.869 292.102,-148.561 309.685,-132 323.967,-118.549 335.109,-98.9139 341.966,-84.7478"/>
<polygon fill="midnightblue" stroke="midnightblue" points="345.19,-86.1139 346.185,-75.5658 338.829,-83.1911 345.19,-86.1139"/>
</g>
<!-- Node11&#45;&gt;Node3 -->
<g id="edge20" class="edge"><title>Node11&#45;&gt;Node3</title>
<path fill="none" stroke="midnightblue" d="M376.793,-168.369C386.524,-146.517 408.116,-88.4413 379.685,-56 359.951,-33.4816 161.322,-18.5682 77.1075,-13.2111"/>
<polygon fill="midnightblue" stroke="midnightblue" points="77.1518,-9.70715 66.9529,-12.5763 76.715,-16.6935 77.1518,-9.70715"/>
</g>
<!-- Node11&#45;&gt;Node6 -->
<g id="edge21" class="edge"><title>Node11&#45;&gt;Node6</title>
<path fill="none" stroke="midnightblue" d="M386.764,-168.259C398.039,-160.355 413.031,-147.584 419.685,-132 432.95,-100.936 440.729,-82.422 419.685,-56 399.371,-30.4932 304.35,-18.2508 254.459,-13.4957"/>
<polygon fill="midnightblue" stroke="midnightblue" points="254.529,-9.98769 244.253,-12.5676 253.895,-16.9589 254.529,-9.98769"/>
</g>
<!-- Node11&#45;&gt;Node8 -->
<g id="edge23" class="edge"><title>Node11&#45;&gt;Node8</title>
<path fill="none" stroke="midnightblue" d="M356.779,-168.324C341.047,-159.743 316.743,-146.486 298.476,-136.522"/>
<polygon fill="midnightblue" stroke="midnightblue" points="300.007,-133.37 289.552,-131.655 296.655,-139.516 300.007,-133.37"/>
</g>
<!-- Node11&#45;&gt;Node9 -->
<g id="edge22" class="edge"><title>Node11&#45;&gt;Node9</title>
<path fill="none" stroke="midnightblue" d="M370.881,-168.368C367.169,-150.617 358.607,-109.666 353.574,-85.5974"/>
<polygon fill="midnightblue" stroke="midnightblue" points="356.954,-84.6634 351.482,-75.5914 350.103,-86.0961 356.954,-84.6634"/>
</g>
<!-- Node12&#45;&gt;Node3 -->
<g id="edge25" class="edge"><title>Node12&#45;&gt;Node3</title>
<path fill="none" stroke="midnightblue" d="M148.022,-112.491C134.118,-104.088 112.988,-90.4328 96.6854,-76 79.9077,-61.1463 63.3129,-41.5104 52.3939,-27.7221"/>
<polygon fill="midnightblue" stroke="midnightblue" points="54.9932,-25.363 46.0933,-19.6147 49.466,-29.6584 54.9932,-25.363"/>
</g>
<!-- Node12&#45;&gt;Node6 -->
<g id="edge26" class="edge"><title>Node12&#45;&gt;Node6</title>
<path fill="none" stroke="midnightblue" d="M167.472,-112.368C177.45,-94.376 200.644,-52.5503 213.911,-28.6267"/>
<polygon fill="midnightblue" stroke="midnightblue" points="217.132,-30.0342 218.921,-19.5914 211.01,-26.6393 217.132,-30.0342"/>
</g>
<!-- Node12&#45;&gt;Node7 -->
<g id="edge27" class="edge"><title>Node12&#45;&gt;Node7</title>
<path fill="none" stroke="midnightblue" d="M157.566,-112.083C153.278,-104.613 147.027,-93.7244 141.743,-84.5199"/>
<polygon fill="midnightblue" stroke="midnightblue" points="144.723,-82.6811 136.709,-75.7511 138.652,-86.1662 144.723,-82.6811"/>
</g>
<!-- Node13&#45;&gt;Node3 -->
<g id="edge29" class="edge"><title>Node13&#45;&gt;Node3</title>
<path fill="none" stroke="midnightblue" d="M47.4718,-112.182C40.1416,-103.663 29.93,-90.0191 25.6854,-76 20.9343,-60.3081 25.7645,-42.0203 31.0068,-28.8473"/>
<polygon fill="midnightblue" stroke="midnightblue" points="34.2849,-30.0882 35.1243,-19.5267 27.8819,-27.2596 34.2849,-30.0882"/>
</g>
<!-- Node13&#45;&gt;Node6 -->
<g id="edge30" class="edge"><title>Node13&#45;&gt;Node6</title>
<path fill="none" stroke="midnightblue" d="M59.0399,-112.105C64.7178,-98.2007 77.5086,-71.3273 96.6854,-56 124.878,-33.4668 165.219,-21.749 192.824,-15.9949"/>
<polygon fill="midnightblue" stroke="midnightblue" points="193.579,-19.4137 202.728,-14.0714 192.245,-12.5421 193.579,-19.4137"/>
</g>
<!-- Node13&#45;&gt;Node7 -->
<g id="edge31" class="edge"><title>Node13&#45;&gt;Node7</title>
<path fill="none" stroke="midnightblue" d="M67.8961,-112.324C79.4613,-104.107 97.0608,-91.6017 110.846,-81.8069"/>
<polygon fill="midnightblue" stroke="midnightblue" points="113.128,-84.4791 119.252,-75.8339 109.073,-78.7729 113.128,-84.4791"/>
</g>
</g>
</svg>
        <g id="navigator" transform="translate(0 0)" fill="#404254">
                <rect fill="#f2f5e9" fill-opacity="0.5" stroke="#606060" stroke-width=".5" x="0" y="0" width="60" height="60"/>
                <use id="zoomplus" xlink:href="#zoomPlus" x="17" y="9" onmousedown="handleZoom(evt,'in')"/>
                <use id="zoomminus" xlink:href="#zoomMin" x="42" y="9" onmousedown="handleZoom(evt,'out')"/>
                <use id="reset" xlink:href="#resetDef" x="30" y="36" onmousedown="handleReset()"/>
                <g id="arrowUp" xlink:href="#dirArrow" transform="translate(30 24)" onmousedown="handlePan(0,-1)">
                  <use xlink:href="#rim" fill="#404040">
                        <set attributeName="fill" to="#808080" begin="arrowUp.mouseover" end="arrowUp.mouseout"/>
                  </use>
                  <path fill="none" stroke="white" stroke-width="1.5" d="M0,-3.0v7 M-2.5,-0.5L0,-3.0L2.5,-0.5"/>
                </g>
                <g id="arrowRight" xlink:href="#dirArrow" transform="rotate(90) translate(36 -43)" onmousedown="handlePan(1,0)">
                  <use xlink:href="#rim" fill="#404040">
                        <set attributeName="fill" to="#808080" begin="arrowRight.mouseover" end="arrowRight.mouseout"/>
                  </use>
                  <path fill="none" stroke="white" stroke-width="1.5" d="M0,-3.0v7 M-2.5,-0.5L0,-3.0L2.5,-0.5"/>
                </g>
                <g id="arrowDown" xlink:href="#dirArrow" transform="rotate(180) translate(-30 -48)" onmousedown="handlePan(0,1)">
                  <use xlink:href="#rim" fill="#404040">
                        <set attributeName="fill" to="#808080" begin="arrowDown.mouseover" end="arrowDown.mouseout"/>
                  </use>
                  <path fill="none" stroke="white" stroke-width="1.5" d="M0,-3.0v7 M-2.5,-0.5L0,-3.0L2.5,-0.5"/>
                </g>
                <g id="arrowLeft" xlink:href="#dirArrow" transform="rotate(270) translate(-36 17)" onmousedown="handlePan(-1,0)">
                  <use xlink:href="#rim" fill="#404040">
                        <set attributeName="fill" to="#808080" begin="arrowLeft.mouseover" end="arrowLeft.mouseout"/>
                  </use>
                  <path fill="none" stroke="white" stroke-width="1.5" d="M0,-3.0v7 M-2.5,-0.5L0,-3.0L2.5,-0.5"/>
                </g>
        </g>
        <svg viewBox="0 0 15 15" width="100%" height="30px" preserveAspectRatio="xMaxYMin meet">
         <g id="arrow_out" transform="scale(0.3 0.3)">
          <a xlink:href="shapeFactory_8cpp__incl_org.svg" target="_base">
           <rect id="button" ry="5" rx="5" y="6" x="6" height="38" width="38"
                fill="#f2f5e9" fill-opacity="0.5" stroke="#606060" stroke-width="1.0"/>
           <path id="arrow"
             d="M 11.500037,31.436501 C 11.940474,20.09759 22.043105,11.32322 32.158766,21.979434 L 37.068811,17.246167 C 37.068811,17.246167 37.088388,32 37.088388,32 L 22.160133,31.978069 C 22.160133,31.978069 26.997745,27.140456 26.997745,27.140456 C 18.528582,18.264221 13.291696,25.230495 11.500037,31.436501 z"
             style="fill:#404040;"/>
          </a>
         </g>
        </svg>
</svg>
