<?xml version="1.0" encoding="UTF-8" standalone="no"?>
<!DOCTYPE svg PUBLIC "-//W3C//DTD SVG 1.1//EN"
 "http://www.w3.org/Graphics/SVG/1.1/DTD/svg11.dtd">
<!-- Generated by graphviz version 2.36.0 (20140111.2315)
 -->
<!-- Title: EquilateralTriangle::clone Pages: 1 -->
<svg width="246pt" height="38pt"
 viewBox="0.00 0.00 246.00 38.00" xmlns="http://www.w3.org/2000/svg" xmlns:xlink="http://www.w3.org/1999/xlink">
<g id="graph0" class="graph" transform="scale(1 1) rotate(0) translate(4 34)">
<title>EquilateralTriangle::clone</title>
<polygon fill="white" stroke="none" points="-4,4 -4,-34 242,-34 242,4 -4,4"/>
<!-- Node1 -->
<g id="node1" class="node"><title>Node1</title>
<polygon fill="#bfbfbf" stroke="black" points="0.5,-0 0.5,-30 97.5,-30 97.5,-0 0.5,-0"/>
<text text-anchor="start" x="8.5" y="-18" font-family="Helvetica,sans-Serif" font-size="10.00">EquilateralTriangle</text>
<text text-anchor="middle" x="49" y="-7" font-family="Helvetica,sans-Serif" font-size="10.00">::clone</text>
</g>
<!-- Node2 -->
<g id="node2" class="node"><title>Node2</title>
<g id="a_node2"><a xlink:href="classEquilateralTriangle.html#af5fe23a9ef9233104d65e9bc85337b80" target="_top" xlink:title="EquilateralTriangle\l::EquilateralTriangle">
<polygon fill="white" stroke="black" points="134.5,-0 134.5,-30 237.5,-30 237.5,-0 134.5,-0"/>
<text text-anchor="start" x="142.5" y="-18" font-family="Helvetica,sans-Serif" font-size="10.00">EquilateralTriangle</text>
<text text-anchor="middle" x="186" y="-7" font-family="Helvetica,sans-Serif" font-size="10.00">::EquilateralTriangle</text>
</a>
</g>
</g>
<!-- Node1&#45;&gt;Node2 -->
<g id="edge1" class="edge"><title>Node1&#45;&gt;Node2</title>
<path fill="none" stroke="midnightblue" d="M97.5959,-15C106.108,-15 115.083,-15 123.911,-15"/>
<polygon fill="midnightblue" stroke="midnightblue" points="124.17,-18.5001 134.17,-15 124.17,-11.5001 124.17,-18.5001"/>
</g>
</g>
</svg>
