<?xml version="1.0" encoding="UTF-8" standalone="no"?>
<!DOCTYPE svg PUBLIC "-//W3C//DTD SVG 1.1//EN"
 "http://www.w3.org/Graphics/SVG/1.1/DTD/svg11.dtd">
<!-- Generated by graphviz version 2.36.0 (20140111.2315)
 -->
<!-- Title: runShapes.cpp Pages: 1 -->
<svg width="1185pt" height="308pt"
 viewBox="0.00 0.00 1185.00 308.00" xmlns="http://www.w3.org/2000/svg" xmlns:xlink="http://www.w3.org/1999/xlink">
<g id="graph0" class="graph" transform="scale(1 1) rotate(0) translate(4 304)">
<title>runShapes.cpp</title>
<polygon fill="white" stroke="none" points="-4,4 -4,-304 1181,-304 1181,4 -4,4"/>
<!-- Node1 -->
<g id="node1" class="node"><title>Node1</title>
<polygon fill="#bfbfbf" stroke="black" points="791,-280.5 791,-299.5 873,-299.5 873,-280.5 791,-280.5"/>
<text text-anchor="middle" x="832" y="-287.5" font-family="Helvetica,sans-Serif" font-size="10.00">runShapes.cpp</text>
</g>
<!-- Node2 -->
<g id="node2" class="node"><title>Node2</title>
<polygon fill="white" stroke="#bfbfbf" points="184,-0.5 184,-19.5 238,-19.5 238,-0.5 184,-0.5"/>
<text text-anchor="middle" x="211" y="-7.5" font-family="Helvetica,sans-Serif" font-size="10.00">iostream</text>
</g>
<!-- Node1&#45;&gt;Node2 -->
<g id="edge1" class="edge"><title>Node1&#45;&gt;Node2</title>
<path fill="none" stroke="midnightblue" d="M790.741,-287.941C622.861,-283.096 0,-259.682 0,-179 0,-179 0,-179 0,-121 0,-43.6422 112.896,-20.5989 173.527,-13.8014"/>
<polygon fill="midnightblue" stroke="midnightblue" points="174.256,-17.2452 183.847,-12.7445 173.543,-10.2816 174.256,-17.2452"/>
</g>
<!-- Node3 -->
<g id="node3" class="node"><title>Node3</title>
<polygon fill="white" stroke="#bfbfbf" points="686,-168.5 686,-187.5 736,-187.5 736,-168.5 686,-168.5"/>
<text text-anchor="middle" x="711" y="-175.5" font-family="Helvetica,sans-Serif" font-size="10.00">iomanip</text>
</g>
<!-- Node1&#45;&gt;Node3 -->
<g id="edge2" class="edge"><title>Node1&#45;&gt;Node3</title>
<path fill="none" stroke="midnightblue" d="M822.505,-280.368C802.095,-261.814 753.804,-217.913 727.981,-194.438"/>
<polygon fill="midnightblue" stroke="midnightblue" points="730.204,-191.728 720.451,-187.591 725.496,-196.908 730.204,-191.728"/>
</g>
<!-- Node4 -->
<g id="node4" class="node"><title>Node4</title>
<polygon fill="white" stroke="#bfbfbf" points="754,-168.5 754,-187.5 804,-187.5 804,-168.5 754,-168.5"/>
<text text-anchor="middle" x="779" y="-175.5" font-family="Helvetica,sans-Serif" font-size="10.00">fstream</text>
</g>
<!-- Node1&#45;&gt;Node4 -->
<g id="edge3" class="edge"><title>Node1&#45;&gt;Node4</title>
<path fill="none" stroke="midnightblue" d="M822.711,-280.222C814.264,-271.729 802.072,-258.105 795,-244 787.675,-229.391 783.57,-211.218 781.357,-197.805"/>
<polygon fill="midnightblue" stroke="midnightblue" points="784.811,-197.236 779.914,-187.84 777.883,-198.239 784.811,-197.236"/>
</g>
<!-- Node5 -->
<g id="node5" class="node"><title>Node5</title>
<polygon fill="white" stroke="#bfbfbf" points="916,-224.5 916,-243.5 960,-243.5 960,-224.5 916,-224.5"/>
<text text-anchor="middle" x="938" y="-231.5" font-family="Helvetica,sans-Serif" font-size="10.00">vector</text>
</g>
<!-- Node1&#45;&gt;Node5 -->
<g id="edge4" class="edge"><title>Node1&#45;&gt;Node5</title>
<path fill="none" stroke="midnightblue" d="M849.031,-280.324C866.03,-271.664 892.376,-258.242 911.993,-248.249"/>
<polygon fill="midnightblue" stroke="midnightblue" points="913.69,-251.312 921.012,-243.655 910.512,-245.075 913.69,-251.312"/>
</g>
<!-- Node6 -->
<g id="node6" class="node"><title>Node6</title>
<polygon fill="white" stroke="#bfbfbf" points="1070,-168.5 1070,-187.5 1108,-187.5 1108,-168.5 1070,-168.5"/>
<text text-anchor="middle" x="1089" y="-175.5" font-family="Helvetica,sans-Serif" font-size="10.00">array</text>
</g>
<!-- Node1&#45;&gt;Node6 -->
<g id="edge5" class="edge"><title>Node1&#45;&gt;Node6</title>
<path fill="none" stroke="midnightblue" d="M839.355,-280.35C851.803,-266.291 878.464,-238.588 907,-224 969.2,-192.201 992.6,-206.364 1060,-188 1060.1,-187.973 1060.2,-187.946 1060.3,-187.919"/>
<polygon fill="midnightblue" stroke="midnightblue" points="1061.08,-191.336 1069.71,-185.192 1059.13,-184.612 1061.08,-191.336"/>
</g>
<!-- Node7 -->
<g id="node7" class="node"><title>Node7</title>
<polygon fill="white" stroke="#bfbfbf" points="532,-168.5 532,-187.5 584,-187.5 584,-168.5 532,-168.5"/>
<text text-anchor="middle" x="558" y="-175.5" font-family="Helvetica,sans-Serif" font-size="10.00">memory</text>
</g>
<!-- Node1&#45;&gt;Node7 -->
<g id="edge6" class="edge"><title>Node1&#45;&gt;Node7</title>
<path fill="none" stroke="midnightblue" d="M810.5,-280.368C762.181,-260.97 644.857,-213.87 588.806,-191.367"/>
<polygon fill="midnightblue" stroke="midnightblue" points="589.985,-188.069 579.4,-187.591 587.377,-194.565 589.985,-188.069"/>
</g>
<!-- Node8 -->
<g id="node8" class="node"><title>Node8</title>
<polygon fill="white" stroke="#bfbfbf" points="978.5,-224.5 978.5,-243.5 1025.5,-243.5 1025.5,-224.5 978.5,-224.5"/>
<text text-anchor="middle" x="1002" y="-231.5" font-family="Helvetica,sans-Serif" font-size="10.00">iterator</text>
</g>
<!-- Node1&#45;&gt;Node8 -->
<g id="edge7" class="edge"><title>Node1&#45;&gt;Node8</title>
<path fill="none" stroke="midnightblue" d="M858.937,-280.444C888.674,-270.998 936.573,-255.783 968.656,-245.592"/>
<polygon fill="midnightblue" stroke="midnightblue" points="970.003,-248.836 978.474,-242.473 967.883,-242.165 970.003,-248.836"/>
</g>
<!-- Node9 -->
<g id="node9" class="node"><title>Node9</title>
<polygon fill="white" stroke="#bfbfbf" points="1044,-224.5 1044,-243.5 1100,-243.5 1100,-224.5 1044,-224.5"/>
<text text-anchor="middle" x="1072" y="-231.5" font-family="Helvetica,sans-Serif" font-size="10.00">algorithm</text>
</g>
<!-- Node1&#45;&gt;Node9 -->
<g id="edge8" class="edge"><title>Node1&#45;&gt;Node9</title>
<path fill="none" stroke="midnightblue" d="M871.137,-280.444C911.856,-271.503 977.448,-256.995 1034,-244 1034.1,-243.977 1034.2,-243.954 1034.3,-243.932"/>
<polygon fill="midnightblue" stroke="midnightblue" points="1034.84,-247.399 1043.79,-241.726 1033.26,-240.581 1034.84,-247.399"/>
</g>
<!-- Node10 -->
<g id="node10" class="node"><title>Node10</title>
<polygon fill="white" stroke="#bfbfbf" points="1118.5,-224.5 1118.5,-243.5 1177.5,-243.5 1177.5,-224.5 1118.5,-224.5"/>
<text text-anchor="middle" x="1148" y="-231.5" font-family="Helvetica,sans-Serif" font-size="10.00">functional</text>
</g>
<!-- Node1&#45;&gt;Node10 -->
<g id="edge9" class="edge"><title>Node1&#45;&gt;Node10</title>
<path fill="none" stroke="midnightblue" d="M873.285,-283.055C927.366,-275.087 1025.07,-260.076 1108,-244 1108.1,-243.98 1108.21,-243.959 1108.31,-243.939"/>
<polygon fill="midnightblue" stroke="midnightblue" points="1109.24,-247.321 1118.33,-241.882 1107.83,-240.464 1109.24,-247.321"/>
</g>
<!-- Node11 -->
<g id="node11" class="node"><title>Node11</title>
<g id="a_node11"><a xlink:href="utilities_8h.html" target="_top" xlink:title="utilities.h">
<polygon fill="white" stroke="black" points="804,-224.5 804,-243.5 860,-243.5 860,-224.5 804,-224.5"/>
<text text-anchor="middle" x="832" y="-231.5" font-family="Helvetica,sans-Serif" font-size="10.00">utilities.h</text>
</a>
</g>
</g>
<!-- Node1&#45;&gt;Node11 -->
<g id="edge10" class="edge"><title>Node1&#45;&gt;Node11</title>
<path fill="none" stroke="midnightblue" d="M832,-280.083C832,-273.006 832,-262.861 832,-253.986"/>
<polygon fill="midnightblue" stroke="midnightblue" points="835.5,-253.751 832,-243.751 828.5,-253.751 835.5,-253.751"/>
</g>
<!-- Node17 -->
<g id="node17" class="node"><title>Node17</title>
<g id="a_node17"><a xlink:href="shapeFactory_8h.html" target="_top" xlink:title="shapeFactory.h">
<polygon fill="white" stroke="black" points="246,-224.5 246,-243.5 330,-243.5 330,-224.5 246,-224.5"/>
<text text-anchor="middle" x="288" y="-231.5" font-family="Helvetica,sans-Serif" font-size="10.00">shapeFactory.h</text>
</a>
</g>
</g>
<!-- Node1&#45;&gt;Node17 -->
<g id="edge20" class="edge"><title>Node1&#45;&gt;Node17</title>
<path fill="none" stroke="midnightblue" d="M790.665,-284.897C692.903,-275.193 447.618,-250.844 339.994,-240.161"/>
<polygon fill="midnightblue" stroke="midnightblue" points="340.315,-236.676 330.018,-239.171 339.624,-243.642 340.315,-236.676"/>
</g>
<!-- Node11&#45;&gt;Node2 -->
<g id="edge11" class="edge"><title>Node11&#45;&gt;Node2</title>
<path fill="none" stroke="midnightblue" d="M831.826,-224.233C831.086,-210.505 827.703,-183.868 813,-168 717.119,-64.517 652.563,-91.3871 516,-56 421.372,-31.4794 306.53,-19.0424 248.477,-13.9277"/>
<polygon fill="midnightblue" stroke="midnightblue" points="248.579,-10.4236 238.316,-13.0566 247.981,-17.398 248.579,-10.4236"/>
</g>
<!-- Node11&#45;&gt;Node3 -->
<g id="edge14" class="edge"><title>Node11&#45;&gt;Node3</title>
<path fill="none" stroke="midnightblue" d="M812.827,-224.444C793.091,-215.636 762.115,-201.812 739.507,-191.722"/>
<polygon fill="midnightblue" stroke="midnightblue" points="740.641,-188.396 730.083,-187.516 737.789,-194.788 740.641,-188.396"/>
</g>
<!-- Node11&#45;&gt;Node4 -->
<g id="edge12" class="edge"><title>Node11&#45;&gt;Node4</title>
<path fill="none" stroke="midnightblue" d="M823.248,-224.083C815.53,-216.22 804.095,-204.569 794.783,-195.081"/>
<polygon fill="midnightblue" stroke="midnightblue" points="797.092,-192.436 787.589,-187.751 792.096,-197.34 797.092,-192.436"/>
</g>
<!-- Node11&#45;&gt;Node6 -->
<g id="edge19" class="edge"><title>Node11&#45;&gt;Node6</title>
<path fill="none" stroke="midnightblue" d="M860.45,-226.823C864.98,-225.863 869.616,-224.894 874,-224 956.503,-207.178 978.335,-208.509 1060,-188 1060.1,-187.975 1060.2,-187.95 1060.3,-187.925"/>
<polygon fill="midnightblue" stroke="midnightblue" points="1061.04,-191.351 1069.74,-185.3 1059.17,-184.606 1061.04,-191.351"/>
</g>
<!-- Node12 -->
<g id="node12" class="node"><title>Node12</title>
<polygon fill="white" stroke="#bfbfbf" points="898,-168.5 898,-187.5 950,-187.5 950,-168.5 898,-168.5"/>
<text text-anchor="middle" x="924" y="-175.5" font-family="Helvetica,sans-Serif" font-size="10.00">sstream</text>
</g>
<!-- Node11&#45;&gt;Node12 -->
<g id="edge13" class="edge"><title>Node11&#45;&gt;Node12</title>
<path fill="none" stroke="midnightblue" d="M846.781,-224.324C861.267,-215.822 883.573,-202.729 900.493,-192.797"/>
<polygon fill="midnightblue" stroke="midnightblue" points="902.403,-195.735 909.255,-187.655 898.859,-189.698 902.403,-195.735"/>
</g>
<!-- Node13 -->
<g id="node13" class="node"><title>Node13</title>
<polygon fill="white" stroke="#bfbfbf" points="377.5,-0.5 377.5,-19.5 418.5,-19.5 418.5,-0.5 377.5,-0.5"/>
<text text-anchor="middle" x="398" y="-7.5" font-family="Helvetica,sans-Serif" font-size="10.00">string</text>
</g>
<!-- Node11&#45;&gt;Node13 -->
<g id="edge15" class="edge"><title>Node11&#45;&gt;Node13</title>
<path fill="none" stroke="midnightblue" d="M837.772,-224.216C845.702,-210.932 857.724,-185.434 846,-168 750.17,-25.4985 513.545,-10.9599 428.806,-10.4831"/>
<polygon fill="midnightblue" stroke="midnightblue" points="428.56,-6.98323 418.563,-10.4919 428.566,-13.9832 428.56,-6.98323"/>
</g>
<!-- Node14 -->
<g id="node14" class="node"><title>Node14</title>
<polygon fill="white" stroke="#bfbfbf" points="602,-168.5 602,-187.5 668,-187.5 668,-168.5 602,-168.5"/>
<text text-anchor="middle" x="635" y="-175.5" font-family="Helvetica,sans-Serif" font-size="10.00">string_view</text>
</g>
<!-- Node11&#45;&gt;Node14 -->
<g id="edge16" class="edge"><title>Node11&#45;&gt;Node14</title>
<path fill="none" stroke="midnightblue" d="M803.775,-225.263C770.276,-216.081 714.151,-200.696 675.896,-190.21"/>
<polygon fill="midnightblue" stroke="midnightblue" points="676.668,-186.793 666.098,-187.524 674.817,-193.543 676.668,-186.793"/>
</g>
<!-- Node15 -->
<g id="node15" class="node"><title>Node15</title>
<polygon fill="white" stroke="#bfbfbf" points="1006.5,-168.5 1006.5,-187.5 1051.5,-187.5 1051.5,-168.5 1006.5,-168.5"/>
<text text-anchor="middle" x="1029" y="-175.5" font-family="Helvetica,sans-Serif" font-size="10.00">cstdlib</text>
</g>
<!-- Node11&#45;&gt;Node15 -->
<g id="edge17" class="edge"><title>Node11&#45;&gt;Node15</title>
<path fill="none" stroke="midnightblue" d="M860.225,-225.263C896.207,-215.4 958.295,-198.381 996.3,-187.964"/>
<polygon fill="midnightblue" stroke="midnightblue" points="997.62,-191.231 1006.34,-185.212 995.769,-184.48 997.62,-191.231"/>
</g>
<!-- Node16 -->
<g id="node16" class="node"><title>Node16</title>
<polygon fill="white" stroke="#bfbfbf" points="445,-56.5 445,-75.5 489,-75.5 489,-56.5 445,-56.5"/>
<text text-anchor="middle" x="467" y="-63.5" font-family="Helvetica,sans-Serif" font-size="10.00">cmath</text>
</g>
<!-- Node11&#45;&gt;Node16 -->
<g id="edge18" class="edge"><title>Node11&#45;&gt;Node16</title>
<path fill="none" stroke="midnightblue" d="M860.004,-227.02C893.741,-219.181 947.357,-204.477 959,-188 964.129,-180.74 964.618,-174.888 959,-168 900.376,-96.1189 599.396,-73.9564 499.367,-68.5194"/>
<polygon fill="midnightblue" stroke="midnightblue" points="499.423,-65.0177 489.254,-67.9901 499.057,-72.0081 499.423,-65.0177"/>
</g>
<!-- Node17&#45;&gt;Node2 -->
<g id="edge21" class="edge"><title>Node17&#45;&gt;Node2</title>
<path fill="none" stroke="midnightblue" d="M245.657,-228.447C193.378,-222.023 108.482,-208.719 85,-188 65.1825,-170.515 69.5106,-158.041 65,-132 55.1122,-74.9154 127.813,-39.1343 174.227,-22.3433"/>
<polygon fill="midnightblue" stroke="midnightblue" points="175.399,-25.6411 183.693,-19.0477 173.098,-19.0303 175.399,-25.6411"/>
</g>
<!-- Node17&#45;&gt;Node7 -->
<g id="edge22" class="edge"><title>Node17&#45;&gt;Node7</title>
<path fill="none" stroke="midnightblue" d="M330.041,-225.142C376.21,-216.427 452.501,-201.773 518,-188 519.254,-187.736 520.529,-187.465 521.817,-187.189"/>
<polygon fill="midnightblue" stroke="midnightblue" points="522.752,-190.567 531.773,-185.012 521.256,-183.729 522.752,-190.567"/>
</g>
<!-- Node17&#45;&gt;Node13 -->
<g id="edge24" class="edge"><title>Node17&#45;&gt;Node13</title>
<path fill="none" stroke="midnightblue" d="M330.322,-229.221C371.607,-224.209 435.276,-212.89 485,-188 519.4,-170.781 534.838,-166.91 551,-132 565.191,-101.348 571.236,-83.0451 551,-56 536.344,-36.4129 469.021,-22.4253 428.723,-15.6396"/>
<polygon fill="midnightblue" stroke="midnightblue" points="429.057,-12.1479 418.624,-13.9941 427.931,-19.0568 429.057,-12.1479"/>
</g>
<!-- Node17&#45;&gt;Node14 -->
<g id="edge25" class="edge"><title>Node17&#45;&gt;Node14</title>
<path fill="none" stroke="midnightblue" d="M330.075,-227.667C387.135,-220.243 492.441,-205.861 591.677,-188.148"/>
<polygon fill="midnightblue" stroke="midnightblue" points="592.346,-191.584 601.568,-186.368 591.106,-184.695 592.346,-191.584"/>
</g>
<!-- Node18 -->
<g id="node18" class="node"><title>Node18</title>
<polygon fill="white" stroke="#bfbfbf" points="104,-168.5 104,-187.5 144,-187.5 144,-168.5 104,-168.5"/>
<text text-anchor="middle" x="124" y="-175.5" font-family="Helvetica,sans-Serif" font-size="10.00">utility</text>
</g>
<!-- Node17&#45;&gt;Node18 -->
<g id="edge23" class="edge"><title>Node17&#45;&gt;Node18</title>
<path fill="none" stroke="midnightblue" d="M262.014,-224.444C232.639,-214.771 184.893,-199.05 153.969,-188.868"/>
<polygon fill="midnightblue" stroke="midnightblue" points="154.771,-185.447 144.178,-185.644 152.581,-192.096 154.771,-185.447"/>
</g>
<!-- Node19 -->
<g id="node19" class="node"><title>Node19</title>
<g id="a_node19"><a xlink:href="shape_8h.html" target="_top" xlink:title="shape.h">
<polygon fill="white" stroke="black" points="185.5,-56.5 185.5,-75.5 236.5,-75.5 236.5,-56.5 185.5,-56.5"/>
<text text-anchor="middle" x="211" y="-63.5" font-family="Helvetica,sans-Serif" font-size="10.00">shape.h</text>
</a>
</g>
</g>
<!-- Node17&#45;&gt;Node19 -->
<g id="edge26" class="edge"><title>Node17&#45;&gt;Node19</title>
<path fill="none" stroke="midnightblue" d="M273.402,-224.391C249.373,-209.26 202.329,-175.35 184,-132 177.118,-115.723 186.629,-97.0915 196.207,-83.9611"/>
<polygon fill="midnightblue" stroke="midnightblue" points="199.173,-85.8546 202.649,-75.8462 193.69,-81.5026 199.173,-85.8546"/>
</g>
<!-- Node20 -->
<g id="node20" class="node"><title>Node20</title>
<g id="a_node20"><a xlink:href="triangle_8h.html" target="_top" xlink:title="triangle.h">
<polygon fill="white" stroke="black" points="313,-112.5 313,-131.5 369,-131.5 369,-112.5 313,-112.5"/>
<text text-anchor="middle" x="341" y="-119.5" font-family="Helvetica,sans-Serif" font-size="10.00">triangle.h</text>
</a>
</g>
</g>
<!-- Node17&#45;&gt;Node20 -->
<g id="edge29" class="edge"><title>Node17&#45;&gt;Node20</title>
<path fill="none" stroke="midnightblue" d="M280.78,-224.135C271.17,-211.183 256.538,-186.607 267,-168 275.221,-153.378 290.331,-142.954 304.763,-135.846"/>
<polygon fill="midnightblue" stroke="midnightblue" points="306.397,-138.949 314.071,-131.644 303.516,-132.569 306.397,-138.949"/>
</g>
<!-- Node21 -->
<g id="node21" class="node"><title>Node21</title>
<g id="a_node21"><a xlink:href="rightTriangle_8h.html" target="_top" xlink:title="rightTriangle.h">
<polygon fill="white" stroke="black" points="398,-168.5 398,-187.5 476,-187.5 476,-168.5 398,-168.5"/>
<text text-anchor="middle" x="437" y="-175.5" font-family="Helvetica,sans-Serif" font-size="10.00">rightTriangle.h</text>
</a>
</g>
</g>
<!-- Node17&#45;&gt;Node21 -->
<g id="edge34" class="edge"><title>Node17&#45;&gt;Node21</title>
<path fill="none" stroke="midnightblue" d="M311.609,-224.444C336.458,-215.438 375.774,-201.189 403.754,-191.049"/>
<polygon fill="midnightblue" stroke="midnightblue" points="405.292,-194.214 413.501,-187.516 402.907,-187.633 405.292,-194.214"/>
</g>
<!-- Node22 -->
<g id="node22" class="node"><title>Node22</title>
<g id="a_node22"><a xlink:href="equilateralTriangle_8h.html" target="_top" xlink:title="equilateralTriangle.h">
<polygon fill="white" stroke="black" points="276,-168.5 276,-187.5 380,-187.5 380,-168.5 276,-168.5"/>
<text text-anchor="middle" x="328" y="-175.5" font-family="Helvetica,sans-Serif" font-size="10.00">equilateralTriangle.h</text>
</a>
</g>
</g>
<!-- Node17&#45;&gt;Node22 -->
<g id="edge39" class="edge"><title>Node17&#45;&gt;Node22</title>
<path fill="none" stroke="midnightblue" d="M294.605,-224.083C300.255,-216.455 308.545,-205.264 315.451,-195.941"/>
<polygon fill="midnightblue" stroke="midnightblue" points="318.378,-197.87 321.518,-187.751 312.753,-193.703 318.378,-197.87"/>
</g>
<!-- Node23 -->
<g id="node23" class="node"><title>Node23</title>
<g id="a_node23"><a xlink:href="square_8h.html" target="_top" xlink:title="square.h">
<polygon fill="white" stroke="black" points="74,-112.5 74,-131.5 128,-131.5 128,-112.5 74,-112.5"/>
<text text-anchor="middle" x="101" y="-119.5" font-family="Helvetica,sans-Serif" font-size="10.00">square.h</text>
</a>
</g>
</g>
<!-- Node17&#45;&gt;Node23 -->
<g id="edge44" class="edge"><title>Node17&#45;&gt;Node23</title>
<path fill="none" stroke="midnightblue" d="M245.684,-229.179C194.665,-223.595 113.448,-211.244 95,-188 84.6701,-174.984 88.1415,-155.555 92.9933,-141.329"/>
<polygon fill="midnightblue" stroke="midnightblue" points="96.3929,-142.245 96.767,-131.657 89.8716,-139.701 96.3929,-142.245"/>
</g>
<!-- Node24 -->
<g id="node24" class="node"><title>Node24</title>
<g id="a_node24"><a xlink:href="circle_8h.html" target="_top" xlink:title="circle.h">
<polygon fill="white" stroke="black" points="193,-112.5 193,-131.5 241,-131.5 241,-112.5 193,-112.5"/>
<text text-anchor="middle" x="217" y="-119.5" font-family="Helvetica,sans-Serif" font-size="10.00">circle.h</text>
</a>
</g>
</g>
<!-- Node17&#45;&gt;Node24 -->
<g id="edge48" class="edge"><title>Node17&#45;&gt;Node24</title>
<path fill="none" stroke="midnightblue" d="M282.429,-224.368C270.764,-206.296 243.577,-164.176 228.171,-140.307"/>
<polygon fill="midnightblue" stroke="midnightblue" points="230.909,-138.095 222.545,-131.591 225.028,-141.891 230.909,-138.095"/>
</g>
<!-- Node19&#45;&gt;Node2 -->
<g id="edge27" class="edge"><title>Node19&#45;&gt;Node2</title>
<path fill="none" stroke="midnightblue" d="M211,-56.083C211,-49.0059 211,-38.8611 211,-29.9865"/>
<polygon fill="midnightblue" stroke="midnightblue" points="214.5,-29.751 211,-19.7511 207.5,-29.7511 214.5,-29.751"/>
</g>
<!-- Node19&#45;&gt;Node13 -->
<g id="edge28" class="edge"><title>Node19&#45;&gt;Node13</title>
<path fill="none" stroke="midnightblue" d="M236.609,-57.6048C270.659,-47.7723 330.77,-30.4139 367.239,-19.8828"/>
<polygon fill="midnightblue" stroke="midnightblue" points="368.664,-23.1146 377.3,-16.9776 366.721,-16.3894 368.664,-23.1146"/>
</g>
<!-- Node20&#45;&gt;Node2 -->
<g id="edge30" class="edge"><title>Node20&#45;&gt;Node2</title>
<path fill="none" stroke="midnightblue" d="M333.91,-112.412C322.921,-99.3839 300.767,-74.2155 279,-56 265.151,-44.4106 248.22,-33.1978 234.717,-24.8638"/>
<polygon fill="midnightblue" stroke="midnightblue" points="236.363,-21.7692 225.996,-19.5848 232.738,-27.7575 236.363,-21.7692"/>
</g>
<!-- Node20&#45;&gt;Node13 -->
<g id="edge31" class="edge"><title>Node20&#45;&gt;Node13</title>
<path fill="none" stroke="midnightblue" d="M345.473,-112.368C354.796,-94.376 376.469,-52.5503 388.866,-28.6267"/>
<polygon fill="midnightblue" stroke="midnightblue" points="392.055,-30.0805 393.548,-19.5914 385.84,-26.8599 392.055,-30.0805"/>
</g>
<!-- Node20&#45;&gt;Node16 -->
<g id="edge32" class="edge"><title>Node20&#45;&gt;Node16</title>
<path fill="none" stroke="midnightblue" d="M360.965,-112.444C381.609,-103.596 414.063,-89.6875 437.632,-79.5865"/>
<polygon fill="midnightblue" stroke="midnightblue" points="439.316,-82.6727 447.128,-75.5164 436.558,-76.2387 439.316,-82.6727"/>
</g>
<!-- Node20&#45;&gt;Node19 -->
<g id="edge33" class="edge"><title>Node20&#45;&gt;Node19</title>
<path fill="none" stroke="midnightblue" d="M320.401,-112.444C299.007,-103.557 265.319,-89.5632 240.976,-79.4514"/>
<polygon fill="midnightblue" stroke="midnightblue" points="242.08,-76.1203 231.503,-75.5164 239.395,-82.5848 242.08,-76.1203"/>
</g>
<!-- Node21&#45;&gt;Node2 -->
<g id="edge35" class="edge"><title>Node21&#45;&gt;Node2</title>
<path fill="none" stroke="midnightblue" d="M447.628,-168.241C472.08,-147.065 527.931,-92.1789 497,-56 481.006,-37.2926 322.065,-20.8691 248.28,-14.1857"/>
<polygon fill="midnightblue" stroke="midnightblue" points="248.31,-10.6745 238.038,-13.2712 247.687,-17.6468 248.31,-10.6745"/>
</g>
<!-- Node21&#45;&gt;Node13 -->
<g id="edge36" class="edge"><title>Node21&#45;&gt;Node13</title>
<path fill="none" stroke="midnightblue" d="M476.182,-168.742C496.251,-162.313 518.945,-151.136 531,-132 549.004,-103.42 550.688,-83.4464 531,-56 507.831,-23.7014 460.215,-14.2915 428.696,-11.7159"/>
<polygon fill="midnightblue" stroke="midnightblue" points="428.885,-8.22091 418.683,-11.0813 428.442,-15.2069 428.885,-8.22091"/>
</g>
<!-- Node21&#45;&gt;Node16 -->
<g id="edge37" class="edge"><title>Node21&#45;&gt;Node16</title>
<path fill="none" stroke="midnightblue" d="M441.117,-168.218C445.163,-159.278 451.26,-144.933 455,-132 459.439,-116.653 462.598,-98.7748 464.558,-85.6572"/>
<polygon fill="midnightblue" stroke="midnightblue" points="468.054,-85.9267 465.972,-75.5384 461.121,-84.9574 468.054,-85.9267"/>
</g>
<!-- Node21&#45;&gt;Node20 -->
<g id="edge38" class="edge"><title>Node21&#45;&gt;Node20</title>
<path fill="none" stroke="midnightblue" d="M421.576,-168.324C406.46,-159.822 383.185,-146.729 365.529,-136.797"/>
<polygon fill="midnightblue" stroke="midnightblue" points="366.817,-133.507 356.386,-131.655 363.386,-139.608 366.817,-133.507"/>
</g>
<!-- Node22&#45;&gt;Node2 -->
<g id="edge40" class="edge"><title>Node22&#45;&gt;Node2</title>
<path fill="none" stroke="midnightblue" d="M322.296,-168.398C309.025,-148.446 274.923,-97.5495 245,-56 238.12,-46.4466 230.203,-35.9406 223.74,-27.4842"/>
<polygon fill="midnightblue" stroke="midnightblue" points="226.504,-25.3372 217.636,-19.5396 220.953,-29.6018 226.504,-25.3372"/>
</g>
<!-- Node22&#45;&gt;Node13 -->
<g id="edge41" class="edge"><title>Node22&#45;&gt;Node13</title>
<path fill="none" stroke="midnightblue" d="M341.524,-168.383C352.888,-160.383 368.585,-147.408 377,-132 394.91,-99.2078 398.14,-54.6092 398.396,-29.7355"/>
<polygon fill="midnightblue" stroke="midnightblue" points="401.895,-29.5077 398.34,-19.527 394.895,-29.546 401.895,-29.5077"/>
</g>
<!-- Node22&#45;&gt;Node16 -->
<g id="edge42" class="edge"><title>Node22&#45;&gt;Node16</title>
<path fill="none" stroke="midnightblue" d="M351.617,-168.457C370.601,-160.83 397.263,-148.343 417,-132 433.394,-118.425 447.692,-98.5378 456.751,-84.3403"/>
<polygon fill="midnightblue" stroke="midnightblue" points="459.889,-85.9192 462.148,-75.5679 453.927,-82.2516 459.889,-85.9192"/>
</g>
<!-- Node22&#45;&gt;Node20 -->
<g id="edge43" class="edge"><title>Node22&#45;&gt;Node20</title>
<path fill="none" stroke="midnightblue" d="M330.147,-168.083C331.869,-160.927 334.347,-150.635 336.5,-141.691"/>
<polygon fill="midnightblue" stroke="midnightblue" points="339.955,-142.293 338.893,-131.751 333.15,-140.654 339.955,-142.293"/>
</g>
<!-- Node23&#45;&gt;Node2 -->
<g id="edge45" class="edge"><title>Node23&#45;&gt;Node2</title>
<path fill="none" stroke="midnightblue" d="M109.632,-112.368C128.106,-93.8941 171.707,-50.2926 195.256,-26.7436"/>
<polygon fill="midnightblue" stroke="midnightblue" points="197.812,-29.1374 202.409,-19.5914 192.863,-24.1876 197.812,-29.1374"/>
</g>
<!-- Node23&#45;&gt;Node13 -->
<g id="edge46" class="edge"><title>Node23&#45;&gt;Node13</title>
<path fill="none" stroke="midnightblue" d="M108.305,-112.25C120.68,-98.0474 147.241,-70.1429 176,-56 239.246,-24.8974 322.744,-15.2884 367.139,-12.3222"/>
<polygon fill="midnightblue" stroke="midnightblue" points="367.516,-15.806 377.29,-11.7157 367.099,-8.81849 367.516,-15.806"/>
</g>
<!-- Node23&#45;&gt;Node19 -->
<g id="edge47" class="edge"><title>Node23&#45;&gt;Node19</title>
<path fill="none" stroke="midnightblue" d="M118.673,-112.324C136.394,-103.625 163.903,-90.1202 184.288,-80.113"/>
<polygon fill="midnightblue" stroke="midnightblue" points="185.936,-83.2031 193.37,-75.6545 182.851,-76.9195 185.936,-83.2031"/>
</g>
<!-- Node24&#45;&gt;Node2 -->
<g id="edge49" class="edge"><title>Node24&#45;&gt;Node2</title>
<path fill="none" stroke="midnightblue" d="M205.459,-112.49C195.521,-104.379 181.878,-91.1778 176,-76 169.178,-58.3822 181.816,-39.5024 193.766,-26.6551"/>
<polygon fill="midnightblue" stroke="midnightblue" points="196.33,-29.0411 200.938,-19.5006 191.387,-24.0855 196.33,-29.0411"/>
</g>
<!-- Node24&#45;&gt;Node13 -->
<g id="edge50" class="edge"><title>Node24&#45;&gt;Node13</title>
<path fill="none" stroke="midnightblue" d="M231.203,-112.368C262.395,-93.4121 337.117,-48.0006 375.058,-24.9424"/>
<polygon fill="midnightblue" stroke="midnightblue" points="377.135,-27.7759 383.863,-19.5914 373.5,-21.794 377.135,-27.7759"/>
</g>
<!-- Node24&#45;&gt;Node19 -->
<g id="edge51" class="edge"><title>Node24&#45;&gt;Node19</title>
<path fill="none" stroke="midnightblue" d="M216.009,-112.083C215.214,-104.927 214.071,-94.6353 213.077,-85.6911"/>
<polygon fill="midnightblue" stroke="midnightblue" points="216.555,-85.3034 211.972,-75.7511 209.598,-86.0765 216.555,-85.3034"/>
</g>
</g>
</svg>
