<?xml version="1.0" encoding="UTF-8" standalone="no"?>
<!DOCTYPE svg PUBLIC "-//W3C//DTD SVG 1.1//EN"
 "http://www.w3.org/Graphics/SVG/1.1/DTD/svg11.dtd">
<!-- Generated by graphviz version 2.36.0 (20140111.2315)
 -->
<!-- Title: main Pages: 1 -->
<svg width="340pt" height="191pt"
 viewBox="0.00 0.00 340.00 191.00" xmlns="http://www.w3.org/2000/svg" xmlns:xlink="http://www.w3.org/1999/xlink">
<g id="graph0" class="graph" transform="scale(1 1) rotate(0) translate(4 187)">
<title>main</title>
<polygon fill="white" stroke="none" points="-4,4 -4,-187 336,-187 336,4 -4,4"/>
<!-- Node1 -->
<g id="node1" class="node"><title>Node1</title>
<polygon fill="#bfbfbf" stroke="black" points="0,-76.5 0,-95.5 38,-95.5 38,-76.5 0,-76.5"/>
<text text-anchor="middle" x="19" y="-83.5" font-family="Helvetica,sans-Serif" font-size="10.00">main</text>
</g>
<!-- Node2 -->
<g id="node2" class="node"><title>Node2</title>
<g id="a_node2"><a xlink:href="namespaceutilities.html#a1f46097b875ad1755e6ca8c9828df8be" target="_top" xlink:title="utilities::generateProject\lHeading">
<polygon fill="white" stroke="black" points="90,-153 90,-183 212,-183 212,-153 90,-153"/>
<text text-anchor="start" x="98" y="-171" font-family="Helvetica,sans-Serif" font-size="10.00">utilities::generateProject</text>
<text text-anchor="middle" x="151" y="-160" font-family="Helvetica,sans-Serif" font-size="10.00">Heading</text>
</a>
</g>
</g>
<!-- Node1&#45;&gt;Node2 -->
<g id="edge1" class="edge"><title>Node1&#45;&gt;Node2</title>
<path fill="none" stroke="midnightblue" d="M26.9063,-95.8886C36.2208,-108.53 53.9687,-130.298 74,-143 77.1782,-145.015 80.535,-146.884 83.9969,-148.615"/>
<polygon fill="midnightblue" stroke="midnightblue" points="82.8049,-151.918 93.356,-152.879 85.7073,-145.548 82.8049,-151.918"/>
</g>
<!-- Node3 -->
<g id="node3" class="node"><title>Node3</title>
<g id="a_node3"><a xlink:href="classShapeFactory.html#a8618cdfc6a7320bee3bf96e95e92eaff" target="_top" xlink:title="ShapeFactory::listKnown">
<polygon fill="white" stroke="black" points="88,-114.5 88,-133.5 214,-133.5 214,-114.5 88,-114.5"/>
<text text-anchor="middle" x="151" y="-121.5" font-family="Helvetica,sans-Serif" font-size="10.00">ShapeFactory::listKnown</text>
</a>
</g>
</g>
<!-- Node1&#45;&gt;Node3 -->
<g id="edge2" class="edge"><title>Node1&#45;&gt;Node3</title>
<path fill="none" stroke="midnightblue" d="M38.3543,-92.9371C48.7376,-96.7404 62.0065,-101.399 74,-105 82.0518,-107.417 90.6462,-109.775 99.0516,-111.961"/>
<polygon fill="midnightblue" stroke="midnightblue" points="98.2338,-115.364 108.788,-114.441 99.9619,-108.581 98.2338,-115.364"/>
</g>
<!-- Node4 -->
<g id="node4" class="node"><title>Node4</title>
<g id="a_node4"><a xlink:href="namespaceutilities.html#afc173f28a756b5faec6cb1db0fb2b843" target="_top" xlink:title="utilities::generateHorizontalLine">
<polygon fill="white" stroke="black" points="74.5,-76.5 74.5,-95.5 227.5,-95.5 227.5,-76.5 74.5,-76.5"/>
<text text-anchor="middle" x="151" y="-83.5" font-family="Helvetica,sans-Serif" font-size="10.00">utilities::generateHorizontalLine</text>
</a>
</g>
</g>
<!-- Node1&#45;&gt;Node4 -->
<g id="edge3" class="edge"><title>Node1&#45;&gt;Node4</title>
<path fill="none" stroke="midnightblue" d="M38.0759,-86C45.3769,-86 54.3691,-86 64.0561,-86"/>
<polygon fill="midnightblue" stroke="midnightblue" points="64.3609,-89.5001 74.3608,-86 64.3608,-82.5001 64.3609,-89.5001"/>
</g>
<!-- Node5 -->
<g id="node5" class="node"><title>Node5</title>
<g id="a_node5"><a xlink:href="classShapeFactory.html#a914d40208527df461c103f4045b62e42" target="_top" xlink:title="ShapeFactory::numberKnown">
<polygon fill="white" stroke="black" points="78,-38.5 78,-57.5 224,-57.5 224,-38.5 78,-38.5"/>
<text text-anchor="middle" x="151" y="-45.5" font-family="Helvetica,sans-Serif" font-size="10.00">ShapeFactory::numberKnown</text>
</a>
</g>
</g>
<!-- Node1&#45;&gt;Node5 -->
<g id="edge4" class="edge"><title>Node1&#45;&gt;Node5</title>
<path fill="none" stroke="midnightblue" d="M38.3543,-79.0629C48.7376,-75.2596 62.0065,-70.6006 74,-67 82.0518,-64.5828 90.6462,-62.2251 99.0516,-60.0392"/>
<polygon fill="midnightblue" stroke="midnightblue" points="99.9619,-63.4192 108.788,-57.5588 98.2338,-56.6358 99.9619,-63.4192"/>
</g>
<!-- Node6 -->
<g id="node6" class="node"><title>Node6</title>
<g id="a_node6"><a xlink:href="runShapes_8cpp.html#a0223e658d108bc16bce442b4c24ad7e5" target="_top" xlink:title="readShapes">
<polygon fill="white" stroke="black" points="117,-0.5 117,-19.5 185,-19.5 185,-0.5 117,-0.5"/>
<text text-anchor="middle" x="151" y="-7.5" font-family="Helvetica,sans-Serif" font-size="10.00">readShapes</text>
</a>
</g>
</g>
<!-- Node1&#45;&gt;Node6 -->
<g id="edge5" class="edge"><title>Node1&#45;&gt;Node6</title>
<path fill="none" stroke="midnightblue" d="M26.4553,-76.3252C35.5292,-63.5049 53.2842,-41.1015 74,-29 83.8903,-23.2224 95.4985,-19.1899 106.624,-16.3796"/>
<polygon fill="midnightblue" stroke="midnightblue" points="107.653,-19.7356 116.642,-14.1273 106.118,-12.906 107.653,-19.7356"/>
</g>
<!-- Node7 -->
<g id="node7" class="node"><title>Node7</title>
<g id="a_node7"><a xlink:href="runShapes_8cpp.html#a9f1833f9da101044d5f76ec973f0c711" target="_top" xlink:title="transform_if">
<polygon fill="white" stroke="black" points="264,-0.5 264,-19.5 332,-19.5 332,-0.5 264,-0.5"/>
<text text-anchor="middle" x="298" y="-7.5" font-family="Helvetica,sans-Serif" font-size="10.00">transform_if</text>
</a>
</g>
</g>
<!-- Node6&#45;&gt;Node7 -->
<g id="edge6" class="edge"><title>Node6&#45;&gt;Node7</title>
<path fill="none" stroke="midnightblue" d="M185.266,-10C205.621,-10 231.88,-10 253.827,-10"/>
<polygon fill="midnightblue" stroke="midnightblue" points="253.889,-13.5001 263.889,-10 253.889,-6.5001 253.889,-13.5001"/>
</g>
</g>
</svg>
