<?xml version="1.0" encoding="UTF-8" standalone="no"?>
<!DOCTYPE svg PUBLIC "-//W3C//DTD SVG 1.1//EN"
 "http://www.w3.org/Graphics/SVG/1.1/DTD/svg11.dtd">
<!-- Generated by graphviz version 2.36.0 (20140111.2315)
 -->
<!-- Title: shapeFactory.h Pages: 1 -->
<!--zoomable 252 -->
<svg id="main" version="1.1" xmlns="http://www.w3.org/2000/svg" xmlns:xlink="http://www.w3.org/1999/xlink" xml:space="preserve" onload="init(evt)">
<style type="text/css"><![CDATA[
.edge:hover path { stroke: red; }
.edge:hover polygon { stroke: red; fill: red; }
]]></style>
<script type="text/javascript"><![CDATA[
var edges = document.getElementsByTagName('g');
if (edges && edges.length) {
  for (var i=0;i<edges.length;i++) {
    if (edges[i].id.substr(0,4)=='edge') {
      edges[i].setAttribute('class','edge');
    }
  }
}
]]></script>
        <defs>
                <circle id="rim" cx="0" cy="0" r="7"/>
                <circle id="rim2" cx="0" cy="0" r="3.5"/>
                <g id="zoomPlus">
                        <use xlink:href="#rim" fill="#404040">
                                <set attributeName="fill" to="#808080" begin="zoomplus.mouseover" end="zoomplus.mouseout"/>
                        </use>
                        <path d="M-4,0h8M0,-4v8" fill="none" stroke="white" stroke-width="1.5" pointer-events="none"/>
                </g>
                <g id="zoomMin">
                        <use xlink:href="#rim" fill="#404040">
                                <set attributeName="fill" to="#808080" begin="zoomminus.mouseover" end="zoomminus.mouseout"/>
                        </use>
                        <path d="M-4,0h8" fill="none" stroke="white" stroke-width="1.5" pointer-events="none"/>
                </g>
                <g id="dirArrow">
                        <path fill="none" stroke="white" stroke-width="1.5" d="M0,-3.0v7 M-2.5,-0.5L0,-3.0L2.5,-0.5"/>
                </g>
               <g id="resetDef">
                       <use xlink:href="#rim2" fill="#404040">
                               <set attributeName="fill" to="#808080" begin="reset.mouseover" end="reset.mouseout"/>
                       </use>
               </g>
        </defs>

<script type="text/javascript">
var viewWidth = 699;
var viewHeight = 252;
var sectionId = 'dynsection-0';
</script>
<script xlink:href="svgpan.js"/>
<svg id="graph" class="graph">
<g id="viewport">
<title>shapeFactory.h</title>
<polygon fill="white" stroke="none" points="-4,4 -4,-248 695.242,-248 695.242,4 -4,4"/>
<!-- Node1 -->
<g id="node1" class="node"><title>Node1</title>
<polygon fill="#bfbfbf" stroke="black" points="255.242,-224.5 255.242,-243.5 339.242,-243.5 339.242,-224.5 255.242,-224.5"/>
<text text-anchor="middle" x="297.242" y="-231.5" font-family="Helvetica,sans-Serif" font-size="10.00">shapeFactory.h</text>
</g>
<!-- Node2 -->
<g id="node2" class="node"><title>Node2</title>
<polygon fill="white" stroke="#bfbfbf" points="13.2421,-0.5 13.2421,-19.5 67.2421,-19.5 67.2421,-0.5 13.2421,-0.5"/>
<text text-anchor="middle" x="40.2421" y="-7.5" font-family="Helvetica,sans-Serif" font-size="10.00">iostream</text>
</g>
<!-- Node1&#45;&gt;Node2 -->
<g id="edge1" class="edge"><title>Node1&#45;&gt;Node2</title>
<path fill="none" stroke="midnightblue" d="M255.123,-230.999C208.481,-227.352 132.108,-217.058 73.2421,-188 39.3504,-171.27 24.86,-166.418 9.24208,-132 -4.71545,-101.241 -0.792036,-88.253 9.24208,-56 12.4707,-45.6222 19.0178,-35.5209 25.2668,-27.5268"/>
<polygon fill="midnightblue" stroke="midnightblue" points="28.0272,-29.6818 31.7594,-19.7661 22.6583,-25.1902 28.0272,-29.6818"/>
</g>
<!-- Node3 -->
<g id="node3" class="node"><title>Node3</title>
<polygon fill="white" stroke="#bfbfbf" points="497.242,-168.5 497.242,-187.5 549.242,-187.5 549.242,-168.5 497.242,-168.5"/>
<text text-anchor="middle" x="523.242" y="-175.5" font-family="Helvetica,sans-Serif" font-size="10.00">memory</text>
</g>
<!-- Node1&#45;&gt;Node3 -->
<g id="edge2" class="edge"><title>Node1&#45;&gt;Node3</title>
<path fill="none" stroke="midnightblue" d="M333.052,-224.444C375.252,-214.361 444.962,-197.704 487.243,-187.602"/>
<polygon fill="midnightblue" stroke="midnightblue" points="488.198,-190.972 497.111,-185.244 486.571,-184.164 488.198,-190.972"/>
</g>
<!-- Node4 -->
<g id="node4" class="node"><title>Node4</title>
<polygon fill="white" stroke="#bfbfbf" points="567.242,-168.5 567.242,-187.5 607.242,-187.5 607.242,-168.5 567.242,-168.5"/>
<text text-anchor="middle" x="587.242" y="-175.5" font-family="Helvetica,sans-Serif" font-size="10.00">utility</text>
</g>
<!-- Node1&#45;&gt;Node4 -->
<g id="edge3" class="edge"><title>Node1&#45;&gt;Node4</title>
<path fill="none" stroke="midnightblue" d="M339.627,-227.424C389.573,-220.472 475.179,-207.365 557.316,-187.967"/>
<polygon fill="midnightblue" stroke="midnightblue" points="558.145,-191.368 567.054,-185.633 556.514,-184.561 558.145,-191.368"/>
</g>
<!-- Node5 -->
<g id="node5" class="node"><title>Node5</title>
<polygon fill="white" stroke="#bfbfbf" points="203.742,-0.5 203.742,-19.5 244.742,-19.5 244.742,-0.5 203.742,-0.5"/>
<text text-anchor="middle" x="224.242" y="-7.5" font-family="Helvetica,sans-Serif" font-size="10.00">string</text>
</g>
<!-- Node1&#45;&gt;Node5 -->
<g id="edge4" class="edge"><title>Node1&#45;&gt;Node5</title>
<path fill="none" stroke="midnightblue" d="M339.561,-231.986C372.251,-228.71 415.612,-218.403 438.242,-188 473.275,-140.933 477.259,-101.523 440.242,-56 417.246,-27.7197 309.067,-16.6175 255.066,-12.782"/>
<polygon fill="midnightblue" stroke="midnightblue" points="255.241,-9.28597 245.029,-12.1088 254.772,-16.2703 255.241,-9.28597"/>
</g>
<!-- Node6 -->
<g id="node6" class="node"><title>Node6</title>
<polygon fill="white" stroke="#bfbfbf" points="625.242,-168.5 625.242,-187.5 691.242,-187.5 691.242,-168.5 625.242,-168.5"/>
<text text-anchor="middle" x="658.242" y="-175.5" font-family="Helvetica,sans-Serif" font-size="10.00">string_view</text>
</g>
<!-- Node1&#45;&gt;Node6 -->
<g id="edge5" class="edge"><title>Node1&#45;&gt;Node6</title>
<path fill="none" stroke="midnightblue" d="M339.45,-228.014C398.743,-220.798 510.279,-206.449 614.729,-188.168"/>
<polygon fill="midnightblue" stroke="midnightblue" points="615.575,-191.573 624.813,-186.387 614.357,-184.68 615.575,-191.573"/>
</g>
<!-- Node7 -->
<g id="node7" class="node"><title>Node7</title>
<g id="a_node7"><a xlink:href="shape_8h.html" target="_top" xlink:title="shape.h">
<polygon fill="white" stroke="black" points="106.742,-56.5 106.742,-75.5 157.742,-75.5 157.742,-56.5 106.742,-56.5"/>
<text text-anchor="middle" x="132.242" y="-63.5" font-family="Helvetica,sans-Serif" font-size="10.00">shape.h</text>
</a>
</g>
</g>
<!-- Node1&#45;&gt;Node7 -->
<g id="edge6" class="edge"><title>Node1&#45;&gt;Node7</title>
<path fill="none" stroke="midnightblue" d="M255.178,-225.354C228.064,-218.847 193.163,-207.376 167.242,-188 142.744,-169.688 136.576,-161.127 127.242,-132 122.385,-116.843 124.373,-98.7245 127.151,-85.4715"/>
<polygon fill="midnightblue" stroke="midnightblue" points="130.576,-86.1991 129.538,-75.6552 123.774,-84.5452 130.576,-86.1991"/>
</g>
<!-- Node8 -->
<g id="node8" class="node"><title>Node8</title>
<g id="a_node8"><a xlink:href="triangle_8h.html" target="_top" xlink:title="triangle.h">
<polygon fill="white" stroke="black" points="246.242,-112.5 246.242,-131.5 302.242,-131.5 302.242,-112.5 246.242,-112.5"/>
<text text-anchor="middle" x="274.242" y="-119.5" font-family="Helvetica,sans-Serif" font-size="10.00">triangle.h</text>
</a>
</g>
</g>
<!-- Node1&#45;&gt;Node8 -->
<g id="edge9" class="edge"><title>Node1&#45;&gt;Node8</title>
<path fill="none" stroke="midnightblue" d="M295.437,-224.368C291.726,-206.617 283.163,-165.666 278.131,-141.597"/>
<polygon fill="midnightblue" stroke="midnightblue" points="281.511,-140.663 276.038,-131.591 274.659,-142.096 281.511,-140.663"/>
</g>
<!-- Node10 -->
<g id="node10" class="node"><title>Node10</title>
<g id="a_node10"><a xlink:href="rightTriangle_8h.html" target="_top" xlink:title="rightTriangle.h">
<polygon fill="white" stroke="black" points="191.242,-168.5 191.242,-187.5 269.242,-187.5 269.242,-168.5 191.242,-168.5"/>
<text text-anchor="middle" x="230.242" y="-175.5" font-family="Helvetica,sans-Serif" font-size="10.00">rightTriangle.h</text>
</a>
</g>
</g>
<!-- Node1&#45;&gt;Node10 -->
<g id="edge14" class="edge"><title>Node1&#45;&gt;Node10</title>
<path fill="none" stroke="midnightblue" d="M286.477,-224.324C276.476,-216.263 261.356,-204.077 249.312,-194.369"/>
<polygon fill="midnightblue" stroke="midnightblue" points="251.185,-191.384 241.203,-187.834 246.792,-196.834 251.185,-191.384"/>
</g>
<!-- Node11 -->
<g id="node11" class="node"><title>Node11</title>
<g id="a_node11"><a xlink:href="equilateralTriangle_8h.html" target="_top" xlink:title="equilateralTriangle.h">
<polygon fill="white" stroke="black" points="325.242,-168.5 325.242,-187.5 429.242,-187.5 429.242,-168.5 325.242,-168.5"/>
<text text-anchor="middle" x="377.242" y="-175.5" font-family="Helvetica,sans-Serif" font-size="10.00">equilateralTriangle.h</text>
</a>
</g>
</g>
<!-- Node1&#45;&gt;Node11 -->
<g id="edge19" class="edge"><title>Node1&#45;&gt;Node11</title>
<path fill="none" stroke="midnightblue" d="M310.095,-224.324C322.458,-215.979 341.372,-203.212 355.979,-193.352"/>
<polygon fill="midnightblue" stroke="midnightblue" points="358.09,-196.15 364.421,-187.655 354.174,-190.348 358.09,-196.15"/>
</g>
<!-- Node12 -->
<g id="node12" class="node"><title>Node12</title>
<g id="a_node12"><a xlink:href="square_8h.html" target="_top" xlink:title="square.h">
<polygon fill="white" stroke="black" points="136.242,-112.5 136.242,-131.5 190.242,-131.5 190.242,-112.5 136.242,-112.5"/>
<text text-anchor="middle" x="163.242" y="-119.5" font-family="Helvetica,sans-Serif" font-size="10.00">square.h</text>
</a>
</g>
</g>
<!-- Node1&#45;&gt;Node12 -->
<g id="edge24" class="edge"><title>Node1&#45;&gt;Node12</title>
<path fill="none" stroke="midnightblue" d="M255.045,-226.041C230.645,-219.931 201.13,-208.64 182.242,-188 170.718,-175.407 166.155,-156.191 164.363,-141.915"/>
<polygon fill="midnightblue" stroke="midnightblue" points="167.829,-141.388 163.44,-131.745 160.858,-142.021 167.829,-141.388"/>
</g>
<!-- Node13 -->
<g id="node13" class="node"><title>Node13</title>
<g id="a_node13"><a xlink:href="circle_8h.html" target="_top" xlink:title="circle.h">
<polygon fill="white" stroke="black" points="32.2421,-112.5 32.2421,-131.5 80.2421,-131.5 80.2421,-112.5 32.2421,-112.5"/>
<text text-anchor="middle" x="56.2421" y="-119.5" font-family="Helvetica,sans-Serif" font-size="10.00">circle.h</text>
</a>
</g>
</g>
<!-- Node1&#45;&gt;Node13 -->
<g id="edge28" class="edge"><title>Node1&#45;&gt;Node13</title>
<path fill="none" stroke="midnightblue" d="M255.16,-233.223C211.086,-231.429 141.788,-222.664 94.2421,-188 78.4328,-176.474 68.1203,-156.207 62.281,-141.36"/>
<polygon fill="midnightblue" stroke="midnightblue" points="65.4867,-139.932 58.8051,-131.709 58.9008,-142.304 65.4867,-139.932"/>
</g>
<!-- Node7&#45;&gt;Node2 -->
<g id="edge7" class="edge"><title>Node7&#45;&gt;Node2</title>
<path fill="none" stroke="midnightblue" d="M117.461,-56.324C102.975,-47.8215 80.669,-34.7288 63.7489,-24.7975"/>
<polygon fill="midnightblue" stroke="midnightblue" points="65.3827,-21.6981 54.9868,-19.6545 61.8392,-27.735 65.3827,-21.6981"/>
</g>
<!-- Node7&#45;&gt;Node5 -->
<g id="edge8" class="edge"><title>Node7&#45;&gt;Node5</title>
<path fill="none" stroke="midnightblue" d="M147.023,-56.324C161.509,-47.8215 183.815,-34.7288 200.735,-24.7975"/>
<polygon fill="midnightblue" stroke="midnightblue" points="202.645,-27.735 209.497,-19.6545 199.101,-21.6981 202.645,-27.735"/>
</g>
<!-- Node8&#45;&gt;Node2 -->
<g id="edge10" class="edge"><title>Node8&#45;&gt;Node2</title>
<path fill="none" stroke="midnightblue" d="M261.734,-112.34C242.071,-98.993 202.434,-73.1449 166.242,-56 137.147,-42.2171 102.623,-30.1679 77.0767,-22.0153"/>
<polygon fill="midnightblue" stroke="midnightblue" points="78.0011,-18.6371 67.4118,-18.9797 75.9035,-25.3155 78.0011,-18.6371"/>
</g>
<!-- Node8&#45;&gt;Node5 -->
<g id="edge11" class="edge"><title>Node8&#45;&gt;Node5</title>
<path fill="none" stroke="midnightblue" d="M276.9,-112.102C280.269,-99.1093 284.69,-74.4829 276.242,-56 270.465,-43.3602 259.19,-32.911 248.611,-25.2737"/>
<polygon fill="midnightblue" stroke="midnightblue" points="250.284,-22.1817 240.025,-19.5333 246.393,-28.0009 250.284,-22.1817"/>
</g>
<!-- Node8&#45;&gt;Node7 -->
<g id="edge13" class="edge"><title>Node8&#45;&gt;Node7</title>
<path fill="none" stroke="midnightblue" d="M251.742,-112.444C228.165,-103.478 190.92,-89.314 164.278,-79.1827"/>
<polygon fill="midnightblue" stroke="midnightblue" points="165.228,-75.7995 154.637,-75.5164 162.74,-82.3424 165.228,-75.7995"/>
</g>
<!-- Node9 -->
<g id="node9" class="node"><title>Node9</title>
<polygon fill="white" stroke="#bfbfbf" points="328.242,-56.5 328.242,-75.5 372.242,-75.5 372.242,-56.5 328.242,-56.5"/>
<text text-anchor="middle" x="350.242" y="-63.5" font-family="Helvetica,sans-Serif" font-size="10.00">cmath</text>
</g>
<!-- Node8&#45;&gt;Node9 -->
<g id="edge12" class="edge"><title>Node8&#45;&gt;Node9</title>
<path fill="none" stroke="midnightblue" d="M286.453,-112.324C298.018,-104.107 315.617,-91.6017 329.403,-81.8069"/>
<polygon fill="midnightblue" stroke="midnightblue" points="331.685,-84.4791 337.809,-75.8339 327.63,-78.7729 331.685,-84.4791"/>
</g>
<!-- Node10&#45;&gt;Node2 -->
<g id="edge15" class="edge"><title>Node10&#45;&gt;Node2</title>
<path fill="none" stroke="midnightblue" d="M191.055,-174.09C137.144,-169.193 44.3513,-157.255 23.2421,-132 -1.37885,-102.544 17.3072,-54.2636 30.3741,-28.4955"/>
<polygon fill="midnightblue" stroke="midnightblue" points="33.5435,-29.9905 35.1662,-19.5206 27.3686,-26.6934 33.5435,-29.9905"/>
</g>
<!-- Node10&#45;&gt;Node5 -->
<g id="edge16" class="edge"><title>Node10&#45;&gt;Node5</title>
<path fill="none" stroke="midnightblue" d="M229.919,-168.075C228.975,-141.945 226.201,-65.2106 224.914,-29.577"/>
<polygon fill="midnightblue" stroke="midnightblue" points="228.411,-29.4351 224.552,-19.5681 221.415,-29.688 228.411,-29.4351"/>
</g>
<!-- Node10&#45;&gt;Node8 -->
<g id="edge18" class="edge"><title>Node10&#45;&gt;Node8</title>
<path fill="none" stroke="midnightblue" d="M237.508,-168.083C243.787,-160.377 253.03,-149.033 260.673,-139.653"/>
<polygon fill="midnightblue" stroke="midnightblue" points="263.508,-141.714 267.112,-131.751 258.081,-137.293 263.508,-141.714"/>
</g>
<!-- Node10&#45;&gt;Node9 -->
<g id="edge17" class="edge"><title>Node10&#45;&gt;Node9</title>
<path fill="none" stroke="midnightblue" d="M251.866,-168.458C269.159,-160.832 293.241,-148.346 310.242,-132 324.384,-118.402 335.548,-98.7905 342.448,-84.6698"/>
<polygon fill="midnightblue" stroke="midnightblue" points="345.659,-86.0662 346.7,-75.5227 339.311,-83.1153 345.659,-86.0662"/>
</g>
<!-- Node11&#45;&gt;Node2 -->
<g id="edge20" class="edge"><title>Node11&#45;&gt;Node2</title>
<path fill="none" stroke="midnightblue" d="M380.932,-168.364C389.631,-146.5 408.634,-88.3971 380.242,-56 360.508,-33.4816 161.879,-18.5682 77.6642,-13.2111"/>
<polygon fill="midnightblue" stroke="midnightblue" points="77.7085,-9.70715 67.5096,-12.5763 77.2717,-16.6935 77.7085,-9.70715"/>
</g>
<!-- Node11&#45;&gt;Node5 -->
<g id="edge21" class="edge"><title>Node11&#45;&gt;Node5</title>
<path fill="none" stroke="midnightblue" d="M389.74,-168.302C400.116,-160.251 414.129,-147.245 420.242,-132 432.813,-100.649 441.285,-82.422 420.242,-56 399.928,-30.4932 304.906,-18.2508 255.016,-13.4957"/>
<polygon fill="midnightblue" stroke="midnightblue" points="255.086,-9.98769 244.81,-12.5676 254.452,-16.9589 255.086,-9.98769"/>
</g>
<!-- Node11&#45;&gt;Node8 -->
<g id="edge23" class="edge"><title>Node11&#45;&gt;Node8</title>
<path fill="none" stroke="midnightblue" d="M360.693,-168.324C344.25,-159.703 318.807,-146.364 299.774,-136.386"/>
<polygon fill="midnightblue" stroke="midnightblue" points="301.232,-133.198 290.75,-131.655 297.981,-139.398 301.232,-133.198"/>
</g>
<!-- Node11&#45;&gt;Node9 -->
<g id="edge22" class="edge"><title>Node11&#45;&gt;Node9</title>
<path fill="none" stroke="midnightblue" d="M375.123,-168.368C370.766,-150.617 360.715,-109.666 354.807,-85.5974"/>
<polygon fill="midnightblue" stroke="midnightblue" points="358.134,-84.4688 352.351,-75.5914 351.336,-86.1375 358.134,-84.4688"/>
</g>
<!-- Node12&#45;&gt;Node2 -->
<g id="edge25" class="edge"><title>Node12&#45;&gt;Node2</title>
<path fill="none" stroke="midnightblue" d="M148.579,-112.491C134.674,-104.088 113.544,-90.4328 97.2421,-76 80.4644,-61.1463 63.8696,-41.5104 52.9506,-27.7221"/>
<polygon fill="midnightblue" stroke="midnightblue" points="55.5499,-25.363 46.65,-19.6147 50.0227,-29.6584 55.5499,-25.363"/>
</g>
<!-- Node12&#45;&gt;Node5 -->
<g id="edge26" class="edge"><title>Node12&#45;&gt;Node5</title>
<path fill="none" stroke="midnightblue" d="M168.029,-112.368C178.006,-94.376 201.201,-52.5503 214.467,-28.6267"/>
<polygon fill="midnightblue" stroke="midnightblue" points="217.689,-30.0342 219.478,-19.5914 211.567,-26.6393 217.689,-30.0342"/>
</g>
<!-- Node12&#45;&gt;Node7 -->
<g id="edge27" class="edge"><title>Node12&#45;&gt;Node7</title>
<path fill="none" stroke="midnightblue" d="M158.123,-112.083C153.835,-104.613 147.584,-93.7244 142.3,-84.5199"/>
<polygon fill="midnightblue" stroke="midnightblue" points="145.28,-82.6811 137.266,-75.7511 139.209,-86.1662 145.28,-82.6811"/>
</g>
<!-- Node13&#45;&gt;Node2 -->
<g id="edge29" class="edge"><title>Node13&#45;&gt;Node2</title>
<path fill="none" stroke="midnightblue" d="M48.0285,-112.182C40.6983,-103.663 30.4867,-90.0191 26.2421,-76 21.491,-60.3081 26.3212,-42.0203 31.5635,-28.8473"/>
<polygon fill="midnightblue" stroke="midnightblue" points="34.8416,-30.0882 35.681,-19.5267 28.4386,-27.2596 34.8416,-30.0882"/>
</g>
<!-- Node13&#45;&gt;Node5 -->
<g id="edge30" class="edge"><title>Node13&#45;&gt;Node5</title>
<path fill="none" stroke="midnightblue" d="M59.5966,-112.105C65.2745,-98.2007 78.0653,-71.3273 97.2421,-56 125.434,-33.4668 165.775,-21.749 193.381,-15.9949"/>
<polygon fill="midnightblue" stroke="midnightblue" points="194.136,-19.4137 203.285,-14.0714 192.801,-12.5421 194.136,-19.4137"/>
</g>
<!-- Node13&#45;&gt;Node7 -->
<g id="edge31" class="edge"><title>Node13&#45;&gt;Node7</title>
<path fill="none" stroke="midnightblue" d="M68.4528,-112.324C80.018,-104.107 97.6175,-91.6017 111.403,-81.8069"/>
<polygon fill="midnightblue" stroke="midnightblue" points="113.685,-84.4791 119.809,-75.8339 109.63,-78.7729 113.685,-84.4791"/>
</g>
</g>
</svg>
        <g id="navigator" transform="translate(0 0)" fill="#404254">
                <rect fill="#f2f5e9" fill-opacity="0.5" stroke="#606060" stroke-width=".5" x="0" y="0" width="60" height="60"/>
                <use id="zoomplus" xlink:href="#zoomPlus" x="17" y="9" onmousedown="handleZoom(evt,'in')"/>
                <use id="zoomminus" xlink:href="#zoomMin" x="42" y="9" onmousedown="handleZoom(evt,'out')"/>
                <use id="reset" xlink:href="#resetDef" x="30" y="36" onmousedown="handleReset()"/>
                <g id="arrowUp" xlink:href="#dirArrow" transform="translate(30 24)" onmousedown="handlePan(0,-1)">
                  <use xlink:href="#rim" fill="#404040">
                        <set attributeName="fill" to="#808080" begin="arrowUp.mouseover" end="arrowUp.mouseout"/>
                  </use>
                  <path fill="none" stroke="white" stroke-width="1.5" d="M0,-3.0v7 M-2.5,-0.5L0,-3.0L2.5,-0.5"/>
                </g>
                <g id="arrowRight" xlink:href="#dirArrow" transform="rotate(90) translate(36 -43)" onmousedown="handlePan(1,0)">
                  <use xlink:href="#rim" fill="#404040">
                        <set attributeName="fill" to="#808080" begin="arrowRight.mouseover" end="arrowRight.mouseout"/>
                  </use>
                  <path fill="none" stroke="white" stroke-width="1.5" d="M0,-3.0v7 M-2.5,-0.5L0,-3.0L2.5,-0.5"/>
                </g>
                <g id="arrowDown" xlink:href="#dirArrow" transform="rotate(180) translate(-30 -48)" onmousedown="handlePan(0,1)">
                  <use xlink:href="#rim" fill="#404040">
                        <set attributeName="fill" to="#808080" begin="arrowDown.mouseover" end="arrowDown.mouseout"/>
                  </use>
                  <path fill="none" stroke="white" stroke-width="1.5" d="M0,-3.0v7 M-2.5,-0.5L0,-3.0L2.5,-0.5"/>
                </g>
                <g id="arrowLeft" xlink:href="#dirArrow" transform="rotate(270) translate(-36 17)" onmousedown="handlePan(-1,0)">
                  <use xlink:href="#rim" fill="#404040">
                        <set attributeName="fill" to="#808080" begin="arrowLeft.mouseover" end="arrowLeft.mouseout"/>
                  </use>
                  <path fill="none" stroke="white" stroke-width="1.5" d="M0,-3.0v7 M-2.5,-0.5L0,-3.0L2.5,-0.5"/>
                </g>
        </g>
        <svg viewBox="0 0 15 15" width="100%" height="30px" preserveAspectRatio="xMaxYMin meet">
         <g id="arrow_out" transform="scale(0.3 0.3)">
          <a xlink:href="shapeFactory_8h__incl_org.svg" target="_base">
           <rect id="button" ry="5" rx="5" y="6" x="6" height="38" width="38"
                fill="#f2f5e9" fill-opacity="0.5" stroke="#606060" stroke-width="1.0"/>
           <path id="arrow"
             d="M 11.500037,31.436501 C 11.940474,20.09759 22.043105,11.32322 32.158766,21.979434 L 37.068811,17.246167 C 37.068811,17.246167 37.088388,32 37.088388,32 L 22.160133,31.978069 C 22.160133,31.978069 26.997745,27.140456 26.997745,27.140456 C 18.528582,18.264221 13.291696,25.230495 11.500037,31.436501 z"
             style="fill:#404040;"/>
          </a>
         </g>
        </svg>
</svg>
