<?xml version="1.0" encoding="UTF-8" standalone="no"?>
<!DOCTYPE svg PUBLIC "-//W3C//DTD SVG 1.1//EN"
 "http://www.w3.org/Graphics/SVG/1.1/DTD/svg11.dtd">
<!-- Generated by graphviz version 2.36.0 (20140111.2315)
 -->
<!-- Title: utilities.h Pages: 1 -->
<svg width="594pt" height="84pt"
 viewBox="0.00 0.00 594.00 84.00" xmlns="http://www.w3.org/2000/svg" xmlns:xlink="http://www.w3.org/1999/xlink">
<g id="graph0" class="graph" transform="scale(1 1) rotate(0) translate(4 80)">
<title>utilities.h</title>
<polygon fill="white" stroke="none" points="-4,4 -4,-80 590,-80 590,4 -4,4"/>
<!-- Node1 -->
<g id="node1" class="node"><title>Node1</title>
<polygon fill="#bfbfbf" stroke="black" points="271,-56.5 271,-75.5 327,-75.5 327,-56.5 271,-56.5"/>
<text text-anchor="middle" x="299" y="-63.5" font-family="Helvetica,sans-Serif" font-size="10.00">utilities.h</text>
</g>
<!-- Node2 -->
<g id="node2" class="node"><title>Node2</title>
<polygon fill="white" stroke="#bfbfbf" points="0,-0.5 0,-19.5 54,-19.5 54,-0.5 0,-0.5"/>
<text text-anchor="middle" x="27" y="-7.5" font-family="Helvetica,sans-Serif" font-size="10.00">iostream</text>
</g>
<!-- Node1&#45;&gt;Node2 -->
<g id="edge1" class="edge"><title>Node1&#45;&gt;Node2</title>
<path fill="none" stroke="midnightblue" d="M270.922,-60.1763C228.326,-52.7439 144.622,-37.6925 63.9128,-20.1036"/>
<polygon fill="midnightblue" stroke="midnightblue" points="64.606,-16.6725 54.0881,-17.9464 63.1048,-23.5097 64.606,-16.6725"/>
</g>
<!-- Node3 -->
<g id="node3" class="node"><title>Node3</title>
<polygon fill="white" stroke="#bfbfbf" points="72,-0.5 72,-19.5 122,-19.5 122,-0.5 72,-0.5"/>
<text text-anchor="middle" x="97" y="-7.5" font-family="Helvetica,sans-Serif" font-size="10.00">fstream</text>
</g>
<!-- Node1&#45;&gt;Node3 -->
<g id="edge2" class="edge"><title>Node1&#45;&gt;Node3</title>
<path fill="none" stroke="midnightblue" d="M270.913,-57.4915C234.613,-47.7876 171.407,-30.8909 132.015,-20.3604"/>
<polygon fill="midnightblue" stroke="midnightblue" points="132.867,-16.9654 122.302,-17.764 131.059,-23.7279 132.867,-16.9654"/>
</g>
<!-- Node4 -->
<g id="node4" class="node"><title>Node4</title>
<polygon fill="white" stroke="#bfbfbf" points="140,-0.5 140,-19.5 192,-19.5 192,-0.5 140,-0.5"/>
<text text-anchor="middle" x="166" y="-7.5" font-family="Helvetica,sans-Serif" font-size="10.00">sstream</text>
</g>
<!-- Node1&#45;&gt;Node4 -->
<g id="edge3" class="edge"><title>Node1&#45;&gt;Node4</title>
<path fill="none" stroke="midnightblue" d="M277.926,-56.4435C255.94,-47.5171 221.266,-33.4387 196.336,-23.3168"/>
<polygon fill="midnightblue" stroke="midnightblue" points="197.558,-20.0355 186.976,-19.5164 194.924,-26.5213 197.558,-20.0355"/>
</g>
<!-- Node5 -->
<g id="node5" class="node"><title>Node5</title>
<polygon fill="white" stroke="#bfbfbf" points="210,-0.5 210,-19.5 260,-19.5 260,-0.5 210,-0.5"/>
<text text-anchor="middle" x="235" y="-7.5" font-family="Helvetica,sans-Serif" font-size="10.00">iomanip</text>
</g>
<!-- Node1&#45;&gt;Node5 -->
<g id="edge4" class="edge"><title>Node1&#45;&gt;Node5</title>
<path fill="none" stroke="midnightblue" d="M288.717,-56.324C279.164,-48.2631 264.72,-36.0765 253.216,-26.3695"/>
<polygon fill="midnightblue" stroke="midnightblue" points="255.37,-23.6076 245.47,-19.8339 250.856,-28.9577 255.37,-23.6076"/>
</g>
<!-- Node6 -->
<g id="node6" class="node"><title>Node6</title>
<polygon fill="white" stroke="#bfbfbf" points="278.5,-0.5 278.5,-19.5 319.5,-19.5 319.5,-0.5 278.5,-0.5"/>
<text text-anchor="middle" x="299" y="-7.5" font-family="Helvetica,sans-Serif" font-size="10.00">string</text>
</g>
<!-- Node1&#45;&gt;Node6 -->
<g id="edge5" class="edge"><title>Node1&#45;&gt;Node6</title>
<path fill="none" stroke="midnightblue" d="M299,-56.083C299,-49.0059 299,-38.8611 299,-29.9865"/>
<polygon fill="midnightblue" stroke="midnightblue" points="302.5,-29.751 299,-19.7511 295.5,-29.7511 302.5,-29.751"/>
</g>
<!-- Node7 -->
<g id="node7" class="node"><title>Node7</title>
<polygon fill="white" stroke="#bfbfbf" points="338,-0.5 338,-19.5 404,-19.5 404,-0.5 338,-0.5"/>
<text text-anchor="middle" x="371" y="-7.5" font-family="Helvetica,sans-Serif" font-size="10.00">string_view</text>
</g>
<!-- Node1&#45;&gt;Node7 -->
<g id="edge6" class="edge"><title>Node1&#45;&gt;Node7</title>
<path fill="none" stroke="midnightblue" d="M310.568,-56.324C321.42,-48.1849 337.881,-35.8395 350.883,-26.0874"/>
<polygon fill="midnightblue" stroke="midnightblue" points="353.321,-28.6339 359.221,-19.8339 349.121,-23.0339 353.321,-28.6339"/>
</g>
<!-- Node8 -->
<g id="node8" class="node"><title>Node8</title>
<polygon fill="white" stroke="#bfbfbf" points="422.5,-0.5 422.5,-19.5 467.5,-19.5 467.5,-0.5 422.5,-0.5"/>
<text text-anchor="middle" x="445" y="-7.5" font-family="Helvetica,sans-Serif" font-size="10.00">cstdlib</text>
</g>
<!-- Node1&#45;&gt;Node8 -->
<g id="edge7" class="edge"><title>Node1&#45;&gt;Node8</title>
<path fill="none" stroke="midnightblue" d="M322.134,-56.4435C346.625,-47.3851 385.461,-33.0213 412.906,-22.8705"/>
<polygon fill="midnightblue" stroke="midnightblue" points="414.289,-26.0907 422.454,-19.339 411.861,-19.5253 414.289,-26.0907"/>
</g>
<!-- Node9 -->
<g id="node9" class="node"><title>Node9</title>
<polygon fill="white" stroke="#bfbfbf" points="486,-0.5 486,-19.5 530,-19.5 530,-0.5 486,-0.5"/>
<text text-anchor="middle" x="508" y="-7.5" font-family="Helvetica,sans-Serif" font-size="10.00">cmath</text>
</g>
<!-- Node1&#45;&gt;Node9 -->
<g id="edge8" class="edge"><title>Node1&#45;&gt;Node9</title>
<path fill="none" stroke="midnightblue" d="M327.26,-58.0484C362.246,-49.3887 423.626,-34.0205 476,-20 476.101,-19.973 476.202,-19.9458 476.304,-19.9187"/>
<polygon fill="midnightblue" stroke="midnightblue" points="477.264,-23.2846 485.986,-17.27 475.417,-16.5327 477.264,-23.2846"/>
</g>
<!-- Node10 -->
<g id="node10" class="node"><title>Node10</title>
<polygon fill="white" stroke="#bfbfbf" points="548,-0.5 548,-19.5 586,-19.5 586,-0.5 548,-0.5"/>
<text text-anchor="middle" x="567" y="-7.5" font-family="Helvetica,sans-Serif" font-size="10.00">array</text>
</g>
<!-- Node1&#45;&gt;Node10 -->
<g id="edge9" class="edge"><title>Node1&#45;&gt;Node10</title>
<path fill="none" stroke="midnightblue" d="M327.19,-60.7687C372.122,-53.7837 462.603,-38.7318 538,-20 538.099,-19.9754 538.198,-19.9506 538.298,-19.9257"/>
<polygon fill="midnightblue" stroke="midnightblue" points="539.038,-23.3524 547.744,-17.3143 537.173,-16.6055 539.038,-23.3524"/>
</g>
</g>
</svg>
