<?xml version="1.0" encoding="UTF-8" standalone="no"?>
<!DOCTYPE svg PUBLIC "-//W3C//DTD SVG 1.1//EN"
 "http://www.w3.org/Graphics/SVG/1.1/DTD/svg11.dtd">
<!-- Generated by graphviz version 2.36.0 (20140111.2315)
 -->
<!-- Title: runShapes.cpp Pages: 1 -->
<!--zoomable 308 -->
<svg id="main" version="1.1" xmlns="http://www.w3.org/2000/svg" xmlns:xlink="http://www.w3.org/1999/xlink" xml:space="preserve" onload="init(evt)">
<style type="text/css"><![CDATA[
.edge:hover path { stroke: red; }
.edge:hover polygon { stroke: red; fill: red; }
]]></style>
<script type="text/javascript"><![CDATA[
var edges = document.getElementsByTagName('g');
if (edges && edges.length) {
  for (var i=0;i<edges.length;i++) {
    if (edges[i].id.substr(0,4)=='edge') {
      edges[i].setAttribute('class','edge');
    }
  }
}
]]></script>
        <defs>
                <circle id="rim" cx="0" cy="0" r="7"/>
                <circle id="rim2" cx="0" cy="0" r="3.5"/>
                <g id="zoomPlus">
                        <use xlink:href="#rim" fill="#404040">
                                <set attributeName="fill" to="#808080" begin="zoomplus.mouseover" end="zoomplus.mouseout"/>
                        </use>
                        <path d="M-4,0h8M0,-4v8" fill="none" stroke="white" stroke-width="1.5" pointer-events="none"/>
                </g>
                <g id="zoomMin">
                        <use xlink:href="#rim" fill="#404040">
                                <set attributeName="fill" to="#808080" begin="zoomminus.mouseover" end="zoomminus.mouseout"/>
                        </use>
                        <path d="M-4,0h8" fill="none" stroke="white" stroke-width="1.5" pointer-events="none"/>
                </g>
                <g id="dirArrow">
                        <path fill="none" stroke="white" stroke-width="1.5" d="M0,-3.0v7 M-2.5,-0.5L0,-3.0L2.5,-0.5"/>
                </g>
               <g id="resetDef">
                       <use xlink:href="#rim2" fill="#404040">
                               <set attributeName="fill" to="#808080" begin="reset.mouseover" end="reset.mouseout"/>
                       </use>
               </g>
        </defs>

<script type="text/javascript">
var viewWidth = 1039;
var viewHeight = 308;
var sectionId = 'dynsection-0';
</script>
<script xlink:href="svgpan.js"/>
<svg id="graph" class="graph">
<g id="viewport">
<title>runShapes.cpp</title>
<polygon fill="white" stroke="none" points="-4,4 -4,-304 1034.94,-304 1034.94,4 -4,4"/>
<!-- Node1 -->
<g id="node1" class="node"><title>Node1</title>
<polygon fill="#bfbfbf" stroke="black" points="392,-280.5 392,-299.5 474,-299.5 474,-280.5 392,-280.5"/>
<text text-anchor="middle" x="433" y="-287.5" font-family="Helvetica,sans-Serif" font-size="10.00">runShapes.cpp</text>
</g>
<!-- Node2 -->
<g id="node2" class="node"><title>Node2</title>
<polygon fill="white" stroke="#bfbfbf" points="666,-0.5 666,-19.5 720,-19.5 720,-0.5 666,-0.5"/>
<text text-anchor="middle" x="693" y="-7.5" font-family="Helvetica,sans-Serif" font-size="10.00">iostream</text>
</g>
<!-- Node1&#45;&gt;Node2 -->
<g id="edge1" class="edge"><title>Node1&#45;&gt;Node2</title>
<path fill="none" stroke="midnightblue" d="M474.034,-285.798C608.913,-274.732 1030,-235.647 1030,-179 1030,-179 1030,-179 1030,-121 1030,-90.9022 1033.76,-75.6984 1011,-56 969.713,-20.2614 805.451,-12.868 730.56,-11.3666"/>
<polygon fill="midnightblue" stroke="midnightblue" points="730.244,-7.8606 720.185,-11.1851 730.122,-14.8595 730.244,-7.8606"/>
</g>
<!-- Node3 -->
<g id="node3" class="node"><title>Node3</title>
<polygon fill="white" stroke="#bfbfbf" points="0,-168.5 0,-187.5 50,-187.5 50,-168.5 0,-168.5"/>
<text text-anchor="middle" x="25" y="-175.5" font-family="Helvetica,sans-Serif" font-size="10.00">iomanip</text>
</g>
<!-- Node1&#45;&gt;Node3 -->
<g id="edge2" class="edge"><title>Node1&#45;&gt;Node3</title>
<path fill="none" stroke="midnightblue" d="M391.724,-286.598C335.732,-282.411 233.152,-271.427 150,-244 111.857,-231.419 71.2181,-208.235 46.9778,-193.226"/>
<polygon fill="midnightblue" stroke="midnightblue" points="48.5635,-190.089 38.2356,-187.725 44.8354,-196.014 48.5635,-190.089"/>
</g>
<!-- Node4 -->
<g id="node4" class="node"><title>Node4</title>
<polygon fill="white" stroke="#bfbfbf" points="68,-168.5 68,-187.5 118,-187.5 118,-168.5 68,-168.5"/>
<text text-anchor="middle" x="93" y="-175.5" font-family="Helvetica,sans-Serif" font-size="10.00">fstream</text>
</g>
<!-- Node1&#45;&gt;Node4 -->
<g id="edge3" class="edge"><title>Node1&#45;&gt;Node4</title>
<path fill="none" stroke="midnightblue" d="M391.587,-286.454C342.044,-282.264 257.352,-271.43 190,-244 159.692,-231.657 129.036,-209.033 110.523,-194.003"/>
<polygon fill="midnightblue" stroke="midnightblue" points="112.621,-191.196 102.69,-187.505 108.151,-196.584 112.621,-191.196"/>
</g>
<!-- Node5 -->
<g id="node5" class="node"><title>Node5</title>
<g id="a_node5"><a xlink:href="utilities_8h.html" target="_top" xlink:title="utilities.h">
<polygon fill="white" stroke="black" points="199,-224.5 199,-243.5 255,-243.5 255,-224.5 199,-224.5"/>
<text text-anchor="middle" x="227" y="-231.5" font-family="Helvetica,sans-Serif" font-size="10.00">utilities.h</text>
</a>
</g>
</g>
<!-- Node1&#45;&gt;Node5 -->
<g id="edge4" class="edge"><title>Node1&#45;&gt;Node5</title>
<path fill="none" stroke="midnightblue" d="M400.359,-280.444C363.596,-270.807 303.927,-255.165 265.072,-244.98"/>
<polygon fill="midnightblue" stroke="midnightblue" points="265.746,-241.539 255.185,-242.388 263.971,-248.31 265.746,-241.539"/>
</g>
<!-- Node10 -->
<g id="node10" class="node"><title>Node10</title>
<g id="a_node10"><a xlink:href="shapeFactory_8h.html" target="_top" xlink:title="shapeFactory.h">
<polygon fill="white" stroke="black" points="589,-224.5 589,-243.5 673,-243.5 673,-224.5 589,-224.5"/>
<text text-anchor="middle" x="631" y="-231.5" font-family="Helvetica,sans-Serif" font-size="10.00">shapeFactory.h</text>
</a>
</g>
</g>
<!-- Node1&#45;&gt;Node10 -->
<g id="edge12" class="edge"><title>Node1&#45;&gt;Node10</title>
<path fill="none" stroke="midnightblue" d="M464.374,-280.444C498.263,-271.201 552.403,-256.436 589.724,-246.257"/>
<polygon fill="midnightblue" stroke="midnightblue" points="591.046,-249.524 599.773,-243.516 589.205,-242.771 591.046,-249.524"/>
</g>
<!-- Node17 -->
<g id="node17" class="node"><title>Node17</title>
<g id="a_node17"><a xlink:href="ShapeCollection_8h.html" target="_top" xlink:title="ShapeCollection.h">
<polygon fill="white" stroke="black" points="862,-112.5 862,-131.5 958,-131.5 958,-112.5 862,-112.5"/>
<text text-anchor="middle" x="910" y="-119.5" font-family="Helvetica,sans-Serif" font-size="10.00">ShapeCollection.h</text>
</a>
</g>
</g>
<!-- Node1&#45;&gt;Node17 -->
<g id="edge40" class="edge"><title>Node1&#45;&gt;Node17</title>
<path fill="none" stroke="midnightblue" d="M474.087,-287.61C552.682,-283.196 727.227,-264.78 848,-188 868.054,-175.251 886.2,-154.651 897.605,-140.062"/>
<polygon fill="midnightblue" stroke="midnightblue" points="900.553,-141.967 903.792,-131.879 894.969,-137.745 900.553,-141.967"/>
</g>
<!-- Node5&#45;&gt;Node2 -->
<g id="edge5" class="edge"><title>Node5&#45;&gt;Node2</title>
<path fill="none" stroke="midnightblue" d="M255.393,-228.698C280.275,-223.42 315.569,-212.013 336,-188 375.051,-142.102 322.443,-96.5743 367,-56 388.073,-36.8103 574.358,-20.1958 655.5,-13.8007"/>
<polygon fill="midnightblue" stroke="midnightblue" points="656.071,-17.267 665.769,-13.0019 655.528,-10.2881 656.071,-17.267"/>
</g>
<!-- Node5&#45;&gt;Node3 -->
<g id="edge8" class="edge"><title>Node5&#45;&gt;Node3</title>
<path fill="none" stroke="midnightblue" d="M198.913,-225.492C162.613,-215.788 99.4068,-198.891 60.0147,-188.36"/>
<polygon fill="midnightblue" stroke="midnightblue" points="60.8671,-184.965 50.3024,-185.764 59.0592,-191.728 60.8671,-184.965"/>
</g>
<!-- Node5&#45;&gt;Node4 -->
<g id="edge6" class="edge"><title>Node5&#45;&gt;Node4</title>
<path fill="none" stroke="midnightblue" d="M205.767,-224.444C183.616,-215.517 148.681,-201.439 123.564,-191.317"/>
<polygon fill="midnightblue" stroke="midnightblue" points="124.717,-188.008 114.133,-187.516 122.1,-194.501 124.717,-188.008"/>
</g>
<!-- Node6 -->
<g id="node6" class="node"><title>Node6</title>
<polygon fill="white" stroke="#bfbfbf" points="174,-168.5 174,-187.5 226,-187.5 226,-168.5 174,-168.5"/>
<text text-anchor="middle" x="200" y="-175.5" font-family="Helvetica,sans-Serif" font-size="10.00">sstream</text>
</g>
<!-- Node5&#45;&gt;Node6 -->
<g id="edge7" class="edge"><title>Node5&#45;&gt;Node6</title>
<path fill="none" stroke="midnightblue" d="M222.541,-224.083C218.846,-216.691 213.477,-205.953 208.906,-196.811"/>
<polygon fill="midnightblue" stroke="midnightblue" points="211.978,-195.13 204.376,-187.751 205.717,-198.261 211.978,-195.13"/>
</g>
<!-- Node7 -->
<g id="node7" class="node"><title>Node7</title>
<polygon fill="white" stroke="#bfbfbf" points="477.5,-0.5 477.5,-19.5 518.5,-19.5 518.5,-0.5 477.5,-0.5"/>
<text text-anchor="middle" x="498" y="-7.5" font-family="Helvetica,sans-Serif" font-size="10.00">string</text>
</g>
<!-- Node5&#45;&gt;Node7 -->
<g id="edge9" class="edge"><title>Node5&#45;&gt;Node7</title>
<path fill="none" stroke="midnightblue" d="M207.68,-224.445C185.102,-213.131 152.335,-191.822 165,-168 225.358,-54.4656 396.491,-22.4166 467.026,-13.8965"/>
<polygon fill="midnightblue" stroke="midnightblue" points="467.52,-17.3629 477.064,-12.7625 466.735,-10.4072 467.52,-17.3629"/>
</g>
<!-- Node8 -->
<g id="node8" class="node"><title>Node8</title>
<polygon fill="white" stroke="#bfbfbf" points="282.5,-168.5 282.5,-187.5 327.5,-187.5 327.5,-168.5 282.5,-168.5"/>
<text text-anchor="middle" x="305" y="-175.5" font-family="Helvetica,sans-Serif" font-size="10.00">cstdlib</text>
</g>
<!-- Node5&#45;&gt;Node8 -->
<g id="edge10" class="edge"><title>Node5&#45;&gt;Node8</title>
<path fill="none" stroke="midnightblue" d="M239.532,-224.324C251.586,-215.979 270.027,-203.212 284.269,-193.352"/>
<polygon fill="midnightblue" stroke="midnightblue" points="286.269,-196.224 292.499,-187.655 282.285,-190.469 286.269,-196.224"/>
</g>
<!-- Node9 -->
<g id="node9" class="node"><title>Node9</title>
<polygon fill="white" stroke="#bfbfbf" points="388,-56.5 388,-75.5 432,-75.5 432,-56.5 388,-56.5"/>
<text text-anchor="middle" x="410" y="-63.5" font-family="Helvetica,sans-Serif" font-size="10.00">cmath</text>
</g>
<!-- Node5&#45;&gt;Node9 -->
<g id="edge11" class="edge"><title>Node5&#45;&gt;Node9</title>
<path fill="none" stroke="midnightblue" d="M231.892,-224.349C239.565,-211.238 255.382,-185.963 273,-168 308.474,-131.831 357.879,-98.808 386.646,-80.9392"/>
<polygon fill="midnightblue" stroke="midnightblue" points="388.52,-83.8956 395.216,-75.6854 384.861,-77.9277 388.52,-83.8956"/>
</g>
<!-- Node10&#45;&gt;Node2 -->
<g id="edge13" class="edge"><title>Node10&#45;&gt;Node2</title>
<path fill="none" stroke="midnightblue" d="M666.648,-224.407C709.044,-212.035 777.744,-184.661 807,-132 818.585,-111.147 798.651,-65.9514 790,-56 774.405,-38.0598 750.143,-26.8081 729.786,-20.0423"/>
<polygon fill="midnightblue" stroke="midnightblue" points="730.748,-16.6766 720.161,-17.0717 728.684,-23.3653 730.748,-16.6766"/>
</g>
<!-- Node11 -->
<g id="node11" class="node"><title>Node11</title>
<g id="a_node11"><a xlink:href="shape_8h.html" target="_top" xlink:title="shape.h">
<polygon fill="white" stroke="black" points="640.5,-56.5 640.5,-75.5 691.5,-75.5 691.5,-56.5 640.5,-56.5"/>
<text text-anchor="middle" x="666" y="-63.5" font-family="Helvetica,sans-Serif" font-size="10.00">shape.h</text>
</a>
</g>
</g>
<!-- Node10&#45;&gt;Node11 -->
<g id="edge14" class="edge"><title>Node10&#45;&gt;Node11</title>
<path fill="none" stroke="midnightblue" d="M632.882,-224.075C638.391,-197.945 654.57,-121.211 662.083,-85.577"/>
<polygon fill="midnightblue" stroke="midnightblue" points="665.555,-86.0751 664.193,-75.5681 658.706,-84.6309 665.555,-86.0751"/>
</g>
<!-- Node12 -->
<g id="node12" class="node"><title>Node12</title>
<g id="a_node12"><a xlink:href="triangle_8h.html" target="_top" xlink:title="triangle.h">
<polygon fill="white" stroke="black" points="504,-112.5 504,-131.5 560,-131.5 560,-112.5 504,-112.5"/>
<text text-anchor="middle" x="532" y="-119.5" font-family="Helvetica,sans-Serif" font-size="10.00">triangle.h</text>
</a>
</g>
</g>
<!-- Node10&#45;&gt;Node12 -->
<g id="edge17" class="edge"><title>Node10&#45;&gt;Node12</title>
<path fill="none" stroke="midnightblue" d="M627.296,-224.282C621.4,-211.083 608.903,-185.694 593,-168 582.205,-155.988 567.742,-145.152 555.608,-137.124"/>
<polygon fill="midnightblue" stroke="midnightblue" points="557.196,-133.986 546.883,-131.56 553.432,-139.888 557.196,-133.986"/>
</g>
<!-- Node13 -->
<g id="node13" class="node"><title>Node13</title>
<g id="a_node13"><a xlink:href="rightTriangle_8h.html" target="_top" xlink:title="rightTriangle.h">
<polygon fill="white" stroke="black" points="384,-168.5 384,-187.5 462,-187.5 462,-168.5 384,-168.5"/>
<text text-anchor="middle" x="423" y="-175.5" font-family="Helvetica,sans-Serif" font-size="10.00">rightTriangle.h</text>
</a>
</g>
</g>
<!-- Node10&#45;&gt;Node13 -->
<g id="edge22" class="edge"><title>Node10&#45;&gt;Node13</title>
<path fill="none" stroke="midnightblue" d="M598.042,-224.444C562.213,-215.142 504.837,-200.246 465.609,-190.062"/>
<polygon fill="midnightblue" stroke="midnightblue" points="466.363,-186.642 455.804,-187.516 464.604,-193.417 466.363,-186.642"/>
</g>
<!-- Node14 -->
<g id="node14" class="node"><title>Node14</title>
<g id="a_node14"><a xlink:href="equilateralTriangle_8h.html" target="_top" xlink:title="equilateralTriangle.h">
<polygon fill="white" stroke="black" points="480,-168.5 480,-187.5 584,-187.5 584,-168.5 480,-168.5"/>
<text text-anchor="middle" x="532" y="-175.5" font-family="Helvetica,sans-Serif" font-size="10.00">equilateralTriangle.h</text>
</a>
</g>
</g>
<!-- Node10&#45;&gt;Node14 -->
<g id="edge27" class="edge"><title>Node10&#45;&gt;Node14</title>
<path fill="none" stroke="midnightblue" d="M615.094,-224.324C599.362,-215.743 575.058,-202.486 556.791,-192.522"/>
<polygon fill="midnightblue" stroke="midnightblue" points="558.322,-189.37 547.867,-187.655 554.97,-195.516 558.322,-189.37"/>
</g>
<!-- Node15 -->
<g id="node15" class="node"><title>Node15</title>
<g id="a_node15"><a xlink:href="square_8h.html" target="_top" xlink:title="square.h">
<polygon fill="white" stroke="black" points="678,-112.5 678,-131.5 732,-131.5 732,-112.5 678,-112.5"/>
<text text-anchor="middle" x="705" y="-119.5" font-family="Helvetica,sans-Serif" font-size="10.00">square.h</text>
</a>
</g>
</g>
<!-- Node10&#45;&gt;Node15 -->
<g id="edge32" class="edge"><title>Node10&#45;&gt;Node15</title>
<path fill="none" stroke="midnightblue" d="M637.761,-224.167C644.567,-215.188 655.276,-200.813 664,-188 674.876,-172.026 686.57,-153.32 694.674,-140.087"/>
<polygon fill="midnightblue" stroke="midnightblue" points="697.669,-141.898 699.879,-131.536 691.69,-138.259 697.669,-141.898"/>
</g>
<!-- Node16 -->
<g id="node16" class="node"><title>Node16</title>
<g id="a_node16"><a xlink:href="circle_8h.html" target="_top" xlink:title="circle.h">
<polygon fill="white" stroke="black" points="750,-112.5 750,-131.5 798,-131.5 798,-112.5 750,-112.5"/>
<text text-anchor="middle" x="774" y="-119.5" font-family="Helvetica,sans-Serif" font-size="10.00">circle.h</text>
</a>
</g>
</g>
<!-- Node10&#45;&gt;Node16 -->
<g id="edge36" class="edge"><title>Node10&#45;&gt;Node16</title>
<path fill="none" stroke="midnightblue" d="M642.221,-224.368C666.551,-205.653 724.404,-161.151 754.718,-137.832"/>
<polygon fill="midnightblue" stroke="midnightblue" points="757.039,-140.463 762.831,-131.591 752.771,-134.914 757.039,-140.463"/>
</g>
<!-- Node11&#45;&gt;Node2 -->
<g id="edge15" class="edge"><title>Node11&#45;&gt;Node2</title>
<path fill="none" stroke="midnightblue" d="M670.459,-56.083C674.154,-48.6913 679.523,-37.9533 684.094,-28.8111"/>
<polygon fill="midnightblue" stroke="midnightblue" points="687.283,-30.2606 688.624,-19.7511 681.022,-27.1301 687.283,-30.2606"/>
</g>
<!-- Node11&#45;&gt;Node7 -->
<g id="edge16" class="edge"><title>Node11&#45;&gt;Node7</title>
<path fill="none" stroke="midnightblue" d="M640.484,-56.7986C610.418,-47.1343 560.506,-31.0911 528.446,-20.7862"/>
<polygon fill="midnightblue" stroke="midnightblue" points="529.303,-17.3855 518.712,-17.6574 527.161,-24.0497 529.303,-17.3855"/>
</g>
<!-- Node12&#45;&gt;Node2 -->
<g id="edge18" class="edge"><title>Node12&#45;&gt;Node2</title>
<path fill="none" stroke="midnightblue" d="M538.97,-112.491C550.262,-99.1155 573.747,-72.9536 598,-56 617.234,-42.5554 641.113,-31.2637 660.12,-23.3541"/>
<polygon fill="midnightblue" stroke="midnightblue" points="661.607,-26.5281 669.564,-19.5328 658.981,-20.0392 661.607,-26.5281"/>
</g>
<!-- Node12&#45;&gt;Node7 -->
<g id="edge19" class="edge"><title>Node12&#45;&gt;Node7</title>
<path fill="none" stroke="midnightblue" d="M529.332,-112.368C523.82,-94.5366 511.073,-53.2953 503.648,-29.2717"/>
<polygon fill="midnightblue" stroke="midnightblue" points="506.953,-28.1119 500.656,-19.5914 500.265,-30.179 506.953,-28.1119"/>
</g>
<!-- Node12&#45;&gt;Node9 -->
<g id="edge20" class="edge"><title>Node12&#45;&gt;Node9</title>
<path fill="none" stroke="midnightblue" d="M512.669,-112.444C492.68,-103.596 461.257,-89.6875 438.436,-79.5865"/>
<polygon fill="midnightblue" stroke="midnightblue" points="439.802,-76.3635 429.241,-75.5164 436.968,-82.7645 439.802,-76.3635"/>
</g>
<!-- Node12&#45;&gt;Node11 -->
<g id="edge21" class="edge"><title>Node12&#45;&gt;Node11</title>
<path fill="none" stroke="midnightblue" d="M553.233,-112.444C575.384,-103.517 610.319,-89.4387 635.436,-79.3168"/>
<polygon fill="midnightblue" stroke="midnightblue" points="636.9,-82.5006 644.867,-75.5164 634.283,-76.0079 636.9,-82.5006"/>
</g>
<!-- Node13&#45;&gt;Node2 -->
<g id="edge23" class="edge"><title>Node13&#45;&gt;Node2</title>
<path fill="none" stroke="midnightblue" d="M414.594,-168.316C394.806,-146.834 349.131,-90.455 379,-56 396.93,-35.3166 576.411,-19.6173 655.69,-13.6363"/>
<polygon fill="midnightblue" stroke="midnightblue" points="656.025,-17.1211 665.738,-12.8899 655.506,-10.1403 656.025,-17.1211"/>
</g>
<!-- Node13&#45;&gt;Node7 -->
<g id="edge24" class="edge"><title>Node13&#45;&gt;Node7</title>
<path fill="none" stroke="midnightblue" d="M394.628,-168.495C377.248,-161.653 356.404,-150.13 346,-132 329.188,-102.703 325.788,-83.0631 346,-56 373.834,-18.7318 431.17,-11.0589 466.92,-10.1474"/>
<polygon fill="midnightblue" stroke="midnightblue" points="467.296,-13.6443 477.265,-10.0563 467.234,-6.64458 467.296,-13.6443"/>
</g>
<!-- Node13&#45;&gt;Node9 -->
<g id="edge25" class="edge"><title>Node13&#45;&gt;Node9</title>
<path fill="none" stroke="midnightblue" d="M421.98,-168.368C419.882,-150.617 415.042,-109.666 412.198,-85.5974"/>
<polygon fill="midnightblue" stroke="midnightblue" points="415.665,-85.1115 411.015,-75.5914 408.713,-85.9331 415.665,-85.1115"/>
</g>
<!-- Node13&#45;&gt;Node12 -->
<g id="edge26" class="edge"><title>Node13&#45;&gt;Node12</title>
<path fill="none" stroke="midnightblue" d="M440.513,-168.324C458.072,-159.625 485.331,-146.12 505.531,-136.113"/>
<polygon fill="midnightblue" stroke="midnightblue" points="507.124,-139.23 514.531,-131.655 504.016,-132.958 507.124,-139.23"/>
</g>
<!-- Node14&#45;&gt;Node2 -->
<g id="edge28" class="edge"><title>Node14&#45;&gt;Node2</title>
<path fill="none" stroke="midnightblue" d="M538.996,-168.325C560.699,-141.432 625.744,-60.96 631,-56 643.22,-44.4674 658.479,-33.358 670.801,-25.0629"/>
<polygon fill="midnightblue" stroke="midnightblue" points="672.74,-27.9764 679.168,-19.5543 668.891,-22.1296 672.74,-27.9764"/>
</g>
<!-- Node14&#45;&gt;Node7 -->
<g id="edge29" class="edge"><title>Node14&#45;&gt;Node7</title>
<path fill="none" stroke="midnightblue" d="M521.562,-168.245C512.576,-159.969 500.254,-146.663 495,-132 482.639,-97.504 488.51,-53.8589 493.51,-29.5357"/>
<polygon fill="midnightblue" stroke="midnightblue" points="496.977,-30.0692 495.745,-19.5463 490.146,-28.5413 496.977,-30.0692"/>
</g>
<!-- Node14&#45;&gt;Node9 -->
<g id="edge30" class="edge"><title>Node14&#45;&gt;Node9</title>
<path fill="none" stroke="midnightblue" d="M514.524,-168.368C499.158,-160.269 476.703,-147.155 460,-132 444.408,-117.853 430.146,-98.3616 420.88,-84.4202"/>
<polygon fill="midnightblue" stroke="midnightblue" points="423.672,-82.2923 415.308,-75.7891 417.791,-86.0889 423.672,-82.2923"/>
</g>
<!-- Node14&#45;&gt;Node12 -->
<g id="edge31" class="edge"><title>Node14&#45;&gt;Node12</title>
<path fill="none" stroke="midnightblue" d="M532,-168.083C532,-161.006 532,-150.861 532,-141.986"/>
<polygon fill="midnightblue" stroke="midnightblue" points="535.5,-141.751 532,-131.751 528.5,-141.751 535.5,-141.751"/>
</g>
<!-- Node15&#45;&gt;Node2 -->
<g id="edge33" class="edge"><title>Node15&#45;&gt;Node2</title>
<path fill="none" stroke="midnightblue" d="M704.537,-112.148C703.833,-99.6196 702.323,-76.0118 700,-56 698.985,-47.2529 697.528,-37.5994 696.206,-29.4838"/>
<polygon fill="midnightblue" stroke="midnightblue" points="699.654,-28.8794 694.541,-19.5998 692.751,-30.0423 699.654,-28.8794"/>
</g>
<!-- Node15&#45;&gt;Node7 -->
<g id="edge34" class="edge"><title>Node15&#45;&gt;Node7</title>
<path fill="none" stroke="midnightblue" d="M688.757,-112.368C652.782,-93.2515 566.176,-47.229 523.143,-24.361"/>
<polygon fill="midnightblue" stroke="midnightblue" points="524.641,-21.1933 514.167,-19.5914 521.356,-27.3748 524.641,-21.1933"/>
</g>
<!-- Node15&#45;&gt;Node11 -->
<g id="edge35" class="edge"><title>Node15&#45;&gt;Node11</title>
<path fill="none" stroke="midnightblue" d="M698.56,-112.083C693.051,-104.455 684.969,-93.2645 678.235,-83.9408"/>
<polygon fill="midnightblue" stroke="midnightblue" points="681.013,-81.8087 672.32,-75.7511 675.338,-85.9071 681.013,-81.8087"/>
</g>
<!-- Node16&#45;&gt;Node2 -->
<g id="edge37" class="edge"><title>Node16&#45;&gt;Node2</title>
<path fill="none" stroke="midnightblue" d="M776.252,-112.259C779.138,-99.0305 782.598,-73.6042 772,-56 762.629,-40.4338 745.713,-29.768 729.932,-22.7429"/>
<polygon fill="midnightblue" stroke="midnightblue" points="730.911,-19.3625 720.33,-18.828 728.268,-25.8445 730.911,-19.3625"/>
</g>
<!-- Node16&#45;&gt;Node7 -->
<g id="edge38" class="edge"><title>Node16&#45;&gt;Node7</title>
<path fill="none" stroke="midnightblue" d="M766.788,-112.309C754.572,-98.1898 728.357,-70.4032 700,-56 643.834,-27.4722 569.85,-16.9129 528.801,-13.0908"/>
<polygon fill="midnightblue" stroke="midnightblue" points="528.883,-9.58516 518.621,-12.2196 528.286,-16.5597 528.883,-9.58516"/>
</g>
<!-- Node16&#45;&gt;Node11 -->
<g id="edge39" class="edge"><title>Node16&#45;&gt;Node11</title>
<path fill="none" stroke="midnightblue" d="M756.648,-112.324C739.328,-103.664 712.485,-90.2424 692.498,-80.249"/>
<polygon fill="midnightblue" stroke="midnightblue" points="693.819,-76.9962 683.309,-75.6545 690.688,-83.2572 693.819,-76.9962"/>
</g>
<!-- Node17&#45;&gt;Node2 -->
<g id="edge41" class="edge"><title>Node17&#45;&gt;Node2</title>
<path fill="none" stroke="midnightblue" d="M904.189,-112.455C894.288,-98.5474 872.793,-71.0571 848,-56 811.369,-33.7533 763.182,-22.0266 730.322,-16.1904"/>
<polygon fill="midnightblue" stroke="midnightblue" points="730.667,-12.6995 720.226,-14.4967 729.509,-19.603 730.667,-12.6995"/>
</g>
<!-- Node17&#45;&gt;Node11 -->
<g id="edge44" class="edge"><title>Node17&#45;&gt;Node11</title>
<path fill="none" stroke="midnightblue" d="M871.337,-112.444C824.712,-102.125 746.979,-84.9217 701.714,-74.9039"/>
<polygon fill="midnightblue" stroke="midnightblue" points="702.277,-71.4439 691.757,-72.7003 700.765,-78.2786 702.277,-71.4439"/>
</g>
<!-- Node18 -->
<g id="node18" class="node"><title>Node18</title>
<polygon fill="white" stroke="#bfbfbf" points="900,-56.5 900,-75.5 944,-75.5 944,-56.5 900,-56.5"/>
<text text-anchor="middle" x="922" y="-63.5" font-family="Helvetica,sans-Serif" font-size="10.00">vector</text>
</g>
<!-- Node17&#45;&gt;Node18 -->
<g id="edge42" class="edge"><title>Node17&#45;&gt;Node18</title>
<path fill="none" stroke="midnightblue" d="M911.982,-112.083C913.572,-104.927 915.859,-94.6353 917.846,-85.6911"/>
<polygon fill="midnightblue" stroke="midnightblue" points="921.303,-86.2722 920.055,-75.7511 914.469,-84.7537 921.303,-86.2722"/>
</g>
<!-- Node19 -->
<g id="node19" class="node"><title>Node19</title>
<polygon fill="white" stroke="#bfbfbf" points="962,-56.5 962,-75.5 1002,-75.5 1002,-56.5 962,-56.5"/>
<text text-anchor="middle" x="982" y="-63.5" font-family="Helvetica,sans-Serif" font-size="10.00">utility</text>
</g>
<!-- Node17&#45;&gt;Node19 -->
<g id="edge43" class="edge"><title>Node17&#45;&gt;Node19</title>
<path fill="none" stroke="midnightblue" d="M921.568,-112.324C932.42,-104.185 948.881,-91.8395 961.883,-82.0874"/>
<polygon fill="midnightblue" stroke="midnightblue" points="964.321,-84.6339 970.221,-75.8339 960.121,-79.0339 964.321,-84.6339"/>
</g>
</g>
</svg>
        <g id="navigator" transform="translate(0 0)" fill="#404254">
                <rect fill="#f2f5e9" fill-opacity="0.5" stroke="#606060" stroke-width=".5" x="0" y="0" width="60" height="60"/>
                <use id="zoomplus" xlink:href="#zoomPlus" x="17" y="9" onmousedown="handleZoom(evt,'in')"/>
                <use id="zoomminus" xlink:href="#zoomMin" x="42" y="9" onmousedown="handleZoom(evt,'out')"/>
                <use id="reset" xlink:href="#resetDef" x="30" y="36" onmousedown="handleReset()"/>
                <g id="arrowUp" xlink:href="#dirArrow" transform="translate(30 24)" onmousedown="handlePan(0,-1)">
                  <use xlink:href="#rim" fill="#404040">
                        <set attributeName="fill" to="#808080" begin="arrowUp.mouseover" end="arrowUp.mouseout"/>
                  </use>
                  <path fill="none" stroke="white" stroke-width="1.5" d="M0,-3.0v7 M-2.5,-0.5L0,-3.0L2.5,-0.5"/>
                </g>
                <g id="arrowRight" xlink:href="#dirArrow" transform="rotate(90) translate(36 -43)" onmousedown="handlePan(1,0)">
                  <use xlink:href="#rim" fill="#404040">
                        <set attributeName="fill" to="#808080" begin="arrowRight.mouseover" end="arrowRight.mouseout"/>
                  </use>
                  <path fill="none" stroke="white" stroke-width="1.5" d="M0,-3.0v7 M-2.5,-0.5L0,-3.0L2.5,-0.5"/>
                </g>
                <g id="arrowDown" xlink:href="#dirArrow" transform="rotate(180) translate(-30 -48)" onmousedown="handlePan(0,1)">
                  <use xlink:href="#rim" fill="#404040">
                        <set attributeName="fill" to="#808080" begin="arrowDown.mouseover" end="arrowDown.mouseout"/>
                  </use>
                  <path fill="none" stroke="white" stroke-width="1.5" d="M0,-3.0v7 M-2.5,-0.5L0,-3.0L2.5,-0.5"/>
                </g>
                <g id="arrowLeft" xlink:href="#dirArrow" transform="rotate(270) translate(-36 17)" onmousedown="handlePan(-1,0)">
                  <use xlink:href="#rim" fill="#404040">
                        <set attributeName="fill" to="#808080" begin="arrowLeft.mouseover" end="arrowLeft.mouseout"/>
                  </use>
                  <path fill="none" stroke="white" stroke-width="1.5" d="M0,-3.0v7 M-2.5,-0.5L0,-3.0L2.5,-0.5"/>
                </g>
        </g>
        <svg viewBox="0 0 15 15" width="100%" height="30px" preserveAspectRatio="xMaxYMin meet">
         <g id="arrow_out" transform="scale(0.3 0.3)">
          <a xlink:href="runShapes_8cpp__incl_org.svg" target="_base">
           <rect id="button" ry="5" rx="5" y="6" x="6" height="38" width="38"
                fill="#f2f5e9" fill-opacity="0.5" stroke="#606060" stroke-width="1.0"/>
           <path id="arrow"
             d="M 11.500037,31.436501 C 11.940474,20.09759 22.043105,11.32322 32.158766,21.979434 L 37.068811,17.246167 C 37.068811,17.246167 37.088388,32 37.088388,32 L 22.160133,31.978069 C 22.160133,31.978069 26.997745,27.140456 26.997745,27.140456 C 18.528582,18.264221 13.291696,25.230495 11.500037,31.436501 z"
             style="fill:#404040;"/>
          </a>
         </g>
        </svg>
</svg>
