<?xml version="1.0" encoding="UTF-8" standalone="no"?>
<!DOCTYPE svg PUBLIC "-//W3C//DTD SVG 1.1//EN"
 "http://www.w3.org/Graphics/SVG/1.1/DTD/svg11.dtd">
<!-- Generated by graphviz version 2.36.0 (20140111.2315)
 -->
<!-- Title: ShapeCollection.h Pages: 1 -->
<svg width="191pt" height="140pt"
 viewBox="0.00 0.00 190.92 140.00" xmlns="http://www.w3.org/2000/svg" xmlns:xlink="http://www.w3.org/1999/xlink">
<g id="graph0" class="graph" transform="scale(1 1) rotate(0) translate(4 136)">
<title>ShapeCollection.h</title>
<polygon fill="white" stroke="none" points="-4,4 -4,-136 186.92,-136 186.92,4 -4,4"/>
<!-- Node1 -->
<g id="node1" class="node"><title>Node1</title>
<polygon fill="#bfbfbf" stroke="black" points="15.9197,-112.5 15.9197,-131.5 111.92,-131.5 111.92,-112.5 15.9197,-112.5"/>
<text text-anchor="middle" x="63.9197" y="-119.5" font-family="Helvetica,sans-Serif" font-size="10.00">ShapeCollection.h</text>
</g>
<!-- Node2 -->
<g id="node2" class="node"><title>Node2</title>
<polygon fill="white" stroke="#bfbfbf" points="10.9197,-0.5 10.9197,-19.5 64.9197,-19.5 64.9197,-0.5 10.9197,-0.5"/>
<text text-anchor="middle" x="37.9197" y="-7.5" font-family="Helvetica,sans-Serif" font-size="10.00">iostream</text>
</g>
<!-- Node1&#45;&gt;Node2 -->
<g id="edge1" class="edge"><title>Node1&#45;&gt;Node2</title>
<path fill="none" stroke="midnightblue" d="M44.0136,-112.41C29.6947,-105.04 11.4617,-92.9163 2.91971,-76 -5.59612,-59.1355 7.2993,-40.1415 19.772,-27.0618"/>
<polygon fill="midnightblue" stroke="midnightblue" points="22.5582,-29.2344 27.2882,-19.754 17.6785,-24.2156 22.5582,-29.2344"/>
</g>
<!-- Node3 -->
<g id="node3" class="node"><title>Node3</title>
<polygon fill="white" stroke="#bfbfbf" points="11.9197,-56.5 11.9197,-75.5 55.9197,-75.5 55.9197,-56.5 11.9197,-56.5"/>
<text text-anchor="middle" x="33.9197" y="-63.5" font-family="Helvetica,sans-Serif" font-size="10.00">vector</text>
</g>
<!-- Node1&#45;&gt;Node3 -->
<g id="edge2" class="edge"><title>Node1&#45;&gt;Node3</title>
<path fill="none" stroke="midnightblue" d="M58.9658,-112.083C54.8157,-104.613 48.7666,-93.7244 43.653,-84.5199"/>
<polygon fill="midnightblue" stroke="midnightblue" points="46.6975,-82.7929 38.7814,-75.7511 40.5784,-86.1924 46.6975,-82.7929"/>
</g>
<!-- Node4 -->
<g id="node4" class="node"><title>Node4</title>
<polygon fill="white" stroke="#bfbfbf" points="73.9197,-56.5 73.9197,-75.5 113.92,-75.5 113.92,-56.5 73.9197,-56.5"/>
<text text-anchor="middle" x="93.9197" y="-63.5" font-family="Helvetica,sans-Serif" font-size="10.00">utility</text>
</g>
<!-- Node1&#45;&gt;Node4 -->
<g id="edge3" class="edge"><title>Node1&#45;&gt;Node4</title>
<path fill="none" stroke="midnightblue" d="M68.8736,-112.083C73.0238,-104.613 79.0728,-93.7244 84.1865,-84.5199"/>
<polygon fill="midnightblue" stroke="midnightblue" points="87.2611,-86.1924 89.058,-75.7511 81.142,-82.7929 87.2611,-86.1924"/>
</g>
<!-- Node5 -->
<g id="node5" class="node"><title>Node5</title>
<g id="a_node5"><a xlink:href="shape_8h.html" target="_top" xlink:title="shape.h">
<polygon fill="white" stroke="black" points="132.42,-56.5 132.42,-75.5 183.42,-75.5 183.42,-56.5 132.42,-56.5"/>
<text text-anchor="middle" x="157.92" y="-63.5" font-family="Helvetica,sans-Serif" font-size="10.00">shape.h</text>
</a>
</g>
</g>
<!-- Node1&#45;&gt;Node5 -->
<g id="edge4" class="edge"><title>Node1&#45;&gt;Node5</title>
<path fill="none" stroke="midnightblue" d="M79.0224,-112.324C93.823,-103.822 116.614,-90.7288 133.902,-80.7975"/>
<polygon fill="midnightblue" stroke="midnightblue" points="135.927,-83.6707 142.854,-75.6545 132.44,-77.6009 135.927,-83.6707"/>
</g>
<!-- Node5&#45;&gt;Node2 -->
<g id="edge5" class="edge"><title>Node5&#45;&gt;Node2</title>
<path fill="none" stroke="midnightblue" d="M138.905,-56.4435C119.332,-47.6356 88.6121,-33.8116 66.1908,-23.722"/>
<polygon fill="midnightblue" stroke="midnightblue" points="67.4006,-20.4284 56.8451,-19.5164 64.528,-26.8119 67.4006,-20.4284"/>
</g>
<!-- Node6 -->
<g id="node6" class="node"><title>Node6</title>
<polygon fill="white" stroke="#bfbfbf" points="137.42,-0.5 137.42,-19.5 178.42,-19.5 178.42,-0.5 137.42,-0.5"/>
<text text-anchor="middle" x="157.92" y="-7.5" font-family="Helvetica,sans-Serif" font-size="10.00">string</text>
</g>
<!-- Node5&#45;&gt;Node6 -->
<g id="edge6" class="edge"><title>Node5&#45;&gt;Node6</title>
<path fill="none" stroke="midnightblue" d="M157.92,-56.083C157.92,-49.0059 157.92,-38.8611 157.92,-29.9865"/>
<polygon fill="midnightblue" stroke="midnightblue" points="161.42,-29.751 157.92,-19.7511 154.42,-29.7511 161.42,-29.751"/>
</g>
</g>
</svg>
