<?xml version="1.0" encoding="UTF-8" standalone="no"?>
<!DOCTYPE svg PUBLIC "-//W3C//DTD SVG 1.1//EN"
 "http://www.w3.org/Graphics/SVG/1.1/DTD/svg11.dtd">
<!-- Generated by graphviz version 2.36.0 (20140111.2315)
 -->
<!-- Title: runShapes.cpp Pages: 1 -->
<!--zoomable 308 -->
<svg id="main" version="1.1" xmlns="http://www.w3.org/2000/svg" xmlns:xlink="http://www.w3.org/1999/xlink" xml:space="preserve" onload="init(evt)">
<style type="text/css"><![CDATA[
.edge:hover path { stroke: red; }
.edge:hover polygon { stroke: red; fill: red; }
]]></style>
<script type="text/javascript"><![CDATA[
var edges = document.getElementsByTagName('g');
if (edges && edges.length) {
  for (var i=0;i<edges.length;i++) {
    if (edges[i].id.substr(0,4)=='edge') {
      edges[i].setAttribute('class','edge');
    }
  }
}
]]></script>
        <defs>
                <circle id="rim" cx="0" cy="0" r="7"/>
                <circle id="rim2" cx="0" cy="0" r="3.5"/>
                <g id="zoomPlus">
                        <use xlink:href="#rim" fill="#404040">
                                <set attributeName="fill" to="#808080" begin="zoomplus.mouseover" end="zoomplus.mouseout"/>
                        </use>
                        <path d="M-4,0h8M0,-4v8" fill="none" stroke="white" stroke-width="1.5" pointer-events="none"/>
                </g>
                <g id="zoomMin">
                        <use xlink:href="#rim" fill="#404040">
                                <set attributeName="fill" to="#808080" begin="zoomminus.mouseover" end="zoomminus.mouseout"/>
                        </use>
                        <path d="M-4,0h8" fill="none" stroke="white" stroke-width="1.5" pointer-events="none"/>
                </g>
                <g id="dirArrow">
                        <path fill="none" stroke="white" stroke-width="1.5" d="M0,-3.0v7 M-2.5,-0.5L0,-3.0L2.5,-0.5"/>
                </g>
               <g id="resetDef">
                       <use xlink:href="#rim2" fill="#404040">
                               <set attributeName="fill" to="#808080" begin="reset.mouseover" end="reset.mouseout"/>
                       </use>
               </g>
        </defs>

<script type="text/javascript">
var viewWidth = 1082;
var viewHeight = 308;
var sectionId = 'dynsection-0';
</script>
<script xlink:href="svgpan.js"/>
<svg id="graph" class="graph">
<g id="viewport">
<title>runShapes.cpp</title>
<polygon fill="white" stroke="none" points="-4,4 -4,-304 1078,-304 1078,4 -4,4"/>
<!-- Node1 -->
<g id="node1" class="node"><title>Node1</title>
<polygon fill="#bfbfbf" stroke="black" points="642,-280.5 642,-299.5 724,-299.5 724,-280.5 642,-280.5"/>
<text text-anchor="middle" x="683" y="-287.5" font-family="Helvetica,sans-Serif" font-size="10.00">runShapes.cpp</text>
</g>
<!-- Node2 -->
<g id="node2" class="node"><title>Node2</title>
<polygon fill="white" stroke="#bfbfbf" points="684,-0.5 684,-19.5 738,-19.5 738,-0.5 684,-0.5"/>
<text text-anchor="middle" x="711" y="-7.5" font-family="Helvetica,sans-Serif" font-size="10.00">iostream</text>
</g>
<!-- Node1&#45;&gt;Node2 -->
<g id="edge1" class="edge"><title>Node1&#45;&gt;Node2</title>
<path fill="none" stroke="midnightblue" d="M724.162,-286.811C788.596,-280.921 906,-259.187 906,-179 906,-179 906,-179 906,-121 906,-49.2804 804.697,-23.8015 748.123,-15.1645"/>
<polygon fill="midnightblue" stroke="midnightblue" points="748.507,-11.684 738.114,-13.7404 747.521,-18.6142 748.507,-11.684"/>
</g>
<!-- Node3 -->
<g id="node3" class="node"><title>Node3</title>
<polygon fill="white" stroke="#bfbfbf" points="0,-56.5 0,-75.5 50,-75.5 50,-56.5 0,-56.5"/>
<text text-anchor="middle" x="25" y="-63.5" font-family="Helvetica,sans-Serif" font-size="10.00">iomanip</text>
</g>
<!-- Node1&#45;&gt;Node3 -->
<g id="edge2" class="edge"><title>Node1&#45;&gt;Node3</title>
<path fill="none" stroke="midnightblue" d="M641.683,-282.799C597.238,-275.6 524.759,-262.327 464,-244 303.526,-195.596 120.084,-111.962 52.1455,-79.9644"/>
<polygon fill="midnightblue" stroke="midnightblue" points="53.5128,-76.7394 42.9763,-75.6285 50.5203,-83.0676 53.5128,-76.7394"/>
</g>
<!-- Node4 -->
<g id="node4" class="node"><title>Node4</title>
<g id="a_node4"><a xlink:href="utilities_8h.html" target="_top" xlink:title="utilities.h">
<polygon fill="white" stroke="black" points="225,-112.5 225,-131.5 281,-131.5 281,-112.5 225,-112.5"/>
<text text-anchor="middle" x="253" y="-119.5" font-family="Helvetica,sans-Serif" font-size="10.00">utilities.h</text>
</a>
</g>
</g>
<!-- Node1&#45;&gt;Node4 -->
<g id="edge3" class="edge"><title>Node1&#45;&gt;Node4</title>
<path fill="none" stroke="midnightblue" d="M649.448,-280.402C591.453,-265.046 469.238,-230.497 371,-188 336.474,-173.064 298.753,-151.238 275.481,-137.076"/>
<polygon fill="midnightblue" stroke="midnightblue" points="277.082,-133.952 266.73,-131.696 273.416,-139.915 277.082,-133.952"/>
</g>
<!-- Node10 -->
<g id="node10" class="node"><title>Node10</title>
<g id="a_node10"><a xlink:href="shapeFactory_8h.html" target="_top" xlink:title="shapeFactory.h">
<polygon fill="white" stroke="black" points="641,-224.5 641,-243.5 725,-243.5 725,-224.5 641,-224.5"/>
<text text-anchor="middle" x="683" y="-231.5" font-family="Helvetica,sans-Serif" font-size="10.00">shapeFactory.h</text>
</a>
</g>
</g>
<!-- Node1&#45;&gt;Node10 -->
<g id="edge11" class="edge"><title>Node1&#45;&gt;Node10</title>
<path fill="none" stroke="midnightblue" d="M683,-280.083C683,-273.006 683,-262.861 683,-253.986"/>
<polygon fill="midnightblue" stroke="midnightblue" points="686.5,-253.751 683,-243.751 679.5,-253.751 686.5,-253.751"/>
</g>
<!-- Node17 -->
<g id="node17" class="node"><title>Node17</title>
<g id="a_node17"><a xlink:href="ShapeCollection_8h.html" target="_top" xlink:title="ShapeCollection.h">
<polygon fill="white" stroke="black" points="934,-112.5 934,-131.5 1030,-131.5 1030,-112.5 934,-112.5"/>
<text text-anchor="middle" x="982" y="-119.5" font-family="Helvetica,sans-Serif" font-size="10.00">ShapeCollection.h</text>
</a>
</g>
</g>
<!-- Node1&#45;&gt;Node17 -->
<g id="edge39" class="edge"><title>Node1&#45;&gt;Node17</title>
<path fill="none" stroke="midnightblue" d="M724.293,-285.524C783.745,-279.802 889.655,-266.71 920,-244 954.216,-218.394 971.046,-168.484 977.967,-141.455"/>
<polygon fill="midnightblue" stroke="midnightblue" points="981.376,-142.249 980.284,-131.71 974.566,-140.63 981.376,-142.249"/>
</g>
<!-- Node4&#45;&gt;Node2 -->
<g id="edge4" class="edge"><title>Node4&#45;&gt;Node2</title>
<path fill="none" stroke="midnightblue" d="M266.074,-112.402C288.412,-98.159 335.808,-69.8685 380,-56 434.124,-39.0148 598.82,-21.7106 673.488,-14.4936"/>
<polygon fill="midnightblue" stroke="midnightblue" points="674.207,-17.9409 683.828,-13.5033 673.54,-10.9728 674.207,-17.9409"/>
</g>
<!-- Node4&#45;&gt;Node3 -->
<g id="edge7" class="edge"><title>Node4&#45;&gt;Node3</title>
<path fill="none" stroke="midnightblue" d="M224.985,-114.787C189.056,-106.756 124.585,-92.1389 60.1482,-76.2303"/>
<polygon fill="midnightblue" stroke="midnightblue" points="60.7772,-72.7803 50.2287,-73.7708 59.0925,-79.5746 60.7772,-72.7803"/>
</g>
<!-- Node5 -->
<g id="node5" class="node"><title>Node5</title>
<polygon fill="white" stroke="#bfbfbf" points="132,-56.5 132,-75.5 182,-75.5 182,-56.5 132,-56.5"/>
<text text-anchor="middle" x="157" y="-63.5" font-family="Helvetica,sans-Serif" font-size="10.00">fstream</text>
</g>
<!-- Node4&#45;&gt;Node5 -->
<g id="edge5" class="edge"><title>Node4&#45;&gt;Node5</title>
<path fill="none" stroke="midnightblue" d="M237.576,-112.324C222.46,-103.822 199.185,-90.7288 181.529,-80.7975"/>
<polygon fill="midnightblue" stroke="midnightblue" points="182.817,-77.5066 172.386,-75.6545 179.386,-83.6077 182.817,-77.5066"/>
</g>
<!-- Node6 -->
<g id="node6" class="node"><title>Node6</title>
<polygon fill="white" stroke="#bfbfbf" points="200,-56.5 200,-75.5 252,-75.5 252,-56.5 200,-56.5"/>
<text text-anchor="middle" x="226" y="-63.5" font-family="Helvetica,sans-Serif" font-size="10.00">sstream</text>
</g>
<!-- Node4&#45;&gt;Node6 -->
<g id="edge6" class="edge"><title>Node4&#45;&gt;Node6</title>
<path fill="none" stroke="midnightblue" d="M248.541,-112.083C244.846,-104.691 239.477,-93.9533 234.906,-84.8111"/>
<polygon fill="midnightblue" stroke="midnightblue" points="237.978,-83.1301 230.376,-75.7511 231.717,-86.2606 237.978,-83.1301"/>
</g>
<!-- Node7 -->
<g id="node7" class="node"><title>Node7</title>
<polygon fill="white" stroke="#bfbfbf" points="549.5,-0.5 549.5,-19.5 590.5,-19.5 590.5,-0.5 549.5,-0.5"/>
<text text-anchor="middle" x="570" y="-7.5" font-family="Helvetica,sans-Serif" font-size="10.00">string</text>
</g>
<!-- Node4&#45;&gt;Node7 -->
<g id="edge8" class="edge"><title>Node4&#45;&gt;Node7</title>
<path fill="none" stroke="midnightblue" d="M257.211,-112.137C264.537,-97.7711 281.07,-69.6377 304,-56 343.399,-32.5675 478.068,-18.6596 539.278,-13.4108"/>
<polygon fill="midnightblue" stroke="midnightblue" points="539.799,-16.8796 549.472,-12.5588 539.216,-9.90392 539.799,-16.8796"/>
</g>
<!-- Node8 -->
<g id="node8" class="node"><title>Node8</title>
<polygon fill="white" stroke="#bfbfbf" points="68.5,-56.5 68.5,-75.5 113.5,-75.5 113.5,-56.5 68.5,-56.5"/>
<text text-anchor="middle" x="91" y="-63.5" font-family="Helvetica,sans-Serif" font-size="10.00">cstdlib</text>
</g>
<!-- Node4&#45;&gt;Node8 -->
<g id="edge9" class="edge"><title>Node4&#45;&gt;Node8</title>
<path fill="none" stroke="midnightblue" d="M227.331,-112.444C199.196,-103.065 154,-88.0001 123.434,-77.8112"/>
<polygon fill="midnightblue" stroke="midnightblue" points="124.268,-74.3999 113.674,-74.558 122.054,-81.0407 124.268,-74.3999"/>
</g>
<!-- Node9 -->
<g id="node9" class="node"><title>Node9</title>
<polygon fill="white" stroke="#bfbfbf" points="422,-56.5 422,-75.5 466,-75.5 466,-56.5 422,-56.5"/>
<text text-anchor="middle" x="444" y="-63.5" font-family="Helvetica,sans-Serif" font-size="10.00">cmath</text>
</g>
<!-- Node4&#45;&gt;Node9 -->
<g id="edge10" class="edge"><title>Node4&#45;&gt;Node9</title>
<path fill="none" stroke="midnightblue" d="M281.183,-113.032C316.183,-103.137 375.728,-86.3021 412.29,-75.9653"/>
<polygon fill="midnightblue" stroke="midnightblue" points="413.282,-79.3219 421.953,-73.2332 411.378,-72.5859 413.282,-79.3219"/>
</g>
<!-- Node10&#45;&gt;Node2 -->
<g id="edge12" class="edge"><title>Node10&#45;&gt;Node2</title>
<path fill="none" stroke="midnightblue" d="M709.27,-224.42C744.532,-211.181 804.95,-181.938 824,-132 829.524,-117.52 836.977,-76.2853 823,-56 806.281,-31.7339 774.134,-20.5486 748.554,-15.3954"/>
<polygon fill="midnightblue" stroke="midnightblue" points="748.871,-11.8969 738.412,-13.5905 747.644,-18.7886 748.871,-11.8969"/>
</g>
<!-- Node11 -->
<g id="node11" class="node"><title>Node11</title>
<g id="a_node11"><a xlink:href="shape_8h.html" target="_top" xlink:title="shape.h">
<polygon fill="white" stroke="black" points="712.5,-56.5 712.5,-75.5 763.5,-75.5 763.5,-56.5 712.5,-56.5"/>
<text text-anchor="middle" x="738" y="-63.5" font-family="Helvetica,sans-Serif" font-size="10.00">shape.h</text>
</a>
</g>
</g>
<!-- Node10&#45;&gt;Node11 -->
<g id="edge13" class="edge"><title>Node10&#45;&gt;Node11</title>
<path fill="none" stroke="midnightblue" d="M686.252,-224.411C692.779,-207.058 707.809,-166.532 719,-132 724.04,-116.447 729.211,-98.6108 732.884,-85.5615"/>
<polygon fill="midnightblue" stroke="midnightblue" points="736.268,-86.4536 735.58,-75.8811 729.525,-84.5752 736.268,-86.4536"/>
</g>
<!-- Node12 -->
<g id="node12" class="node"><title>Node12</title>
<g id="a_node12"><a xlink:href="triangle_8h.html" target="_top" xlink:title="triangle.h">
<polygon fill="white" stroke="black" points="498,-112.5 498,-131.5 554,-131.5 554,-112.5 498,-112.5"/>
<text text-anchor="middle" x="526" y="-119.5" font-family="Helvetica,sans-Serif" font-size="10.00">triangle.h</text>
</a>
</g>
</g>
<!-- Node10&#45;&gt;Node12 -->
<g id="edge16" class="edge"><title>Node10&#45;&gt;Node12</title>
<path fill="none" stroke="midnightblue" d="M640.736,-229.559C610.205,-224.88 570.085,-213.871 545,-188 533.117,-175.745 528.602,-156.484 526.919,-142.105"/>
<polygon fill="midnightblue" stroke="midnightblue" points="530.384,-141.533 526.09,-131.847 523.407,-142.097 530.384,-141.533"/>
</g>
<!-- Node13 -->
<g id="node13" class="node"><title>Node13</title>
<g id="a_node13"><a xlink:href="rightTriangle_8h.html" target="_top" xlink:title="rightTriangle.h">
<polygon fill="white" stroke="black" points="554,-168.5 554,-187.5 632,-187.5 632,-168.5 554,-168.5"/>
<text text-anchor="middle" x="593" y="-175.5" font-family="Helvetica,sans-Serif" font-size="10.00">rightTriangle.h</text>
</a>
</g>
</g>
<!-- Node10&#45;&gt;Node13 -->
<g id="edge21" class="edge"><title>Node10&#45;&gt;Node13</title>
<path fill="none" stroke="midnightblue" d="M668.54,-224.324C654.5,-215.9 632.952,-202.971 616.457,-193.074"/>
<polygon fill="midnightblue" stroke="midnightblue" points="617.8,-189.798 607.424,-187.655 614.198,-195.801 617.8,-189.798"/>
</g>
<!-- Node14 -->
<g id="node14" class="node"><title>Node14</title>
<g id="a_node14"><a xlink:href="equilateralTriangle_8h.html" target="_top" xlink:title="equilateralTriangle.h">
<polygon fill="white" stroke="black" points="380,-168.5 380,-187.5 484,-187.5 484,-168.5 380,-168.5"/>
<text text-anchor="middle" x="432" y="-175.5" font-family="Helvetica,sans-Serif" font-size="10.00">equilateralTriangle.h</text>
</a>
</g>
</g>
<!-- Node10&#45;&gt;Node14 -->
<g id="edge26" class="edge"><title>Node10&#45;&gt;Node14</title>
<path fill="none" stroke="midnightblue" d="M643.228,-224.444C599.442,-215.023 528.986,-199.866 481.62,-189.675"/>
<polygon fill="midnightblue" stroke="midnightblue" points="482.098,-186.198 471.586,-187.516 480.626,-193.041 482.098,-186.198"/>
</g>
<!-- Node15 -->
<g id="node15" class="node"><title>Node15</title>
<g id="a_node15"><a xlink:href="square_8h.html" target="_top" xlink:title="square.h">
<polygon fill="white" stroke="black" points="656,-112.5 656,-131.5 710,-131.5 710,-112.5 656,-112.5"/>
<text text-anchor="middle" x="683" y="-119.5" font-family="Helvetica,sans-Serif" font-size="10.00">square.h</text>
</a>
</g>
</g>
<!-- Node10&#45;&gt;Node15 -->
<g id="edge31" class="edge"><title>Node10&#45;&gt;Node15</title>
<path fill="none" stroke="midnightblue" d="M683,-224.368C683,-206.617 683,-165.666 683,-141.597"/>
<polygon fill="midnightblue" stroke="midnightblue" points="686.5,-141.591 683,-131.591 679.5,-141.591 686.5,-141.591"/>
</g>
<!-- Node16 -->
<g id="node16" class="node"><title>Node16</title>
<g id="a_node16"><a xlink:href="circle_8h.html" target="_top" xlink:title="circle.h">
<polygon fill="white" stroke="black" points="767,-112.5 767,-131.5 815,-131.5 815,-112.5 767,-112.5"/>
<text text-anchor="middle" x="791" y="-119.5" font-family="Helvetica,sans-Serif" font-size="10.00">circle.h</text>
</a>
</g>
</g>
<!-- Node10&#45;&gt;Node16 -->
<g id="edge35" class="edge"><title>Node10&#45;&gt;Node16</title>
<path fill="none" stroke="midnightblue" d="M700.74,-224.349C715.704,-216.415 737.019,-203.554 752,-188 765.371,-174.119 776.207,-154.847 783.033,-140.895"/>
<polygon fill="midnightblue" stroke="midnightblue" points="786.206,-142.371 787.273,-131.829 779.866,-139.405 786.206,-142.371"/>
</g>
<!-- Node11&#45;&gt;Node2 -->
<g id="edge14" class="edge"><title>Node11&#45;&gt;Node2</title>
<path fill="none" stroke="midnightblue" d="M733.541,-56.083C729.846,-48.6913 724.477,-37.9533 719.906,-28.8111"/>
<polygon fill="midnightblue" stroke="midnightblue" points="722.978,-27.1301 715.376,-19.7511 716.717,-30.2606 722.978,-27.1301"/>
</g>
<!-- Node11&#45;&gt;Node7 -->
<g id="edge15" class="edge"><title>Node11&#45;&gt;Node7</title>
<path fill="none" stroke="midnightblue" d="M712.484,-56.7986C682.418,-47.1343 632.506,-31.0911 600.446,-20.7862"/>
<polygon fill="midnightblue" stroke="midnightblue" points="601.303,-17.3855 590.712,-17.6574 599.161,-24.0497 601.303,-17.3855"/>
</g>
<!-- Node12&#45;&gt;Node2 -->
<g id="edge17" class="edge"><title>Node12&#45;&gt;Node2</title>
<path fill="none" stroke="midnightblue" d="M533.088,-112.285C544.595,-98.6294 568.62,-72.0894 594,-56 618.768,-40.2983 649.878,-28.6585 673.792,-21.1548"/>
<polygon fill="midnightblue" stroke="midnightblue" points="675.006,-24.444 683.56,-18.1925 672.975,-17.7452 675.006,-24.444"/>
</g>
<!-- Node12&#45;&gt;Node7 -->
<g id="edge18" class="edge"><title>Node12&#45;&gt;Node7</title>
<path fill="none" stroke="midnightblue" d="M522.054,-112.137C516.904,-99.1868 509.492,-74.6136 518,-56 523.777,-43.3602 535.052,-32.911 545.631,-25.2737"/>
<polygon fill="midnightblue" stroke="midnightblue" points="547.849,-28.0009 554.217,-19.5333 543.958,-22.1817 547.849,-28.0009"/>
</g>
<!-- Node12&#45;&gt;Node9 -->
<g id="edge19" class="edge"><title>Node12&#45;&gt;Node9</title>
<path fill="none" stroke="midnightblue" d="M512.825,-112.324C500.153,-103.979 480.767,-91.2122 465.794,-81.3524"/>
<polygon fill="midnightblue" stroke="midnightblue" points="467.419,-78.2313 457.142,-75.6545 463.569,-84.0776 467.419,-78.2313"/>
</g>
<!-- Node12&#45;&gt;Node11 -->
<g id="edge20" class="edge"><title>Node12&#45;&gt;Node11</title>
<path fill="none" stroke="midnightblue" d="M554.152,-113.829C592.444,-104.076 660.942,-86.628 702.65,-76.0043"/>
<polygon fill="midnightblue" stroke="midnightblue" points="703.562,-79.3839 712.388,-73.5237 701.834,-72.6005 703.562,-79.3839"/>
</g>
<!-- Node13&#45;&gt;Node2 -->
<g id="edge22" class="edge"><title>Node13&#45;&gt;Node2</title>
<path fill="none" stroke="midnightblue" d="M599.344,-168.075C618.24,-141.493 674.365,-62.5379 699.084,-27.7633"/>
<polygon fill="midnightblue" stroke="midnightblue" points="701.968,-29.7466 704.909,-19.5681 696.263,-25.6909 701.968,-29.7466"/>
</g>
<!-- Node13&#45;&gt;Node7 -->
<g id="edge23" class="edge"><title>Node13&#45;&gt;Node7</title>
<path fill="none" stroke="midnightblue" d="M591.763,-168.075C588.143,-141.945 577.511,-65.2106 572.574,-29.577"/>
<polygon fill="midnightblue" stroke="midnightblue" points="576.027,-28.9931 571.187,-19.5681 569.093,-29.9539 576.027,-28.9931"/>
</g>
<!-- Node13&#45;&gt;Node9 -->
<g id="edge24" class="edge"><title>Node13&#45;&gt;Node9</title>
<path fill="none" stroke="midnightblue" d="M561.41,-168.412C539.405,-161.285 510.298,-149.464 489,-132 473.133,-118.989 460.452,-99.0073 452.646,-84.6333"/>
<polygon fill="midnightblue" stroke="midnightblue" points="455.745,-83.0068 448.042,-75.7327 449.528,-86.2228 455.745,-83.0068"/>
</g>
<!-- Node13&#45;&gt;Node12 -->
<g id="edge25" class="edge"><title>Node13&#45;&gt;Node12</title>
<path fill="none" stroke="midnightblue" d="M582.235,-168.324C572.234,-160.263 557.113,-148.077 545.07,-138.369"/>
<polygon fill="midnightblue" stroke="midnightblue" points="546.943,-135.384 536.961,-131.834 542.55,-140.834 546.943,-135.384"/>
</g>
<!-- Node14&#45;&gt;Node2 -->
<g id="edge27" class="edge"><title>Node14&#45;&gt;Node2</title>
<path fill="none" stroke="midnightblue" d="M426.653,-168.441C413.856,-146.758 384.57,-89.0453 413,-56 429.825,-36.4434 597.596,-20.3112 673.748,-13.9344"/>
<polygon fill="midnightblue" stroke="midnightblue" points="674.182,-17.4106 683.86,-13.1 673.606,-10.4343 674.182,-17.4106"/>
</g>
<!-- Node14&#45;&gt;Node7 -->
<g id="edge28" class="edge"><title>Node14&#45;&gt;Node7</title>
<path fill="none" stroke="midnightblue" d="M416.217,-168.467C403.797,-160.769 387.395,-148.179 380,-132 365.958,-101.279 359.048,-82.4942 380,-56 399.541,-31.2905 490.859,-18.7404 539.43,-13.7183"/>
<polygon fill="midnightblue" stroke="midnightblue" points="539.779,-17.2009 549.386,-12.7326 539.089,-10.235 539.779,-17.2009"/>
</g>
<!-- Node14&#45;&gt;Node9 -->
<g id="edge29" class="edge"><title>Node14&#45;&gt;Node9</title>
<path fill="none" stroke="midnightblue" d="M432.942,-168.368C434.878,-150.617 439.345,-109.666 441.971,-85.5974"/>
<polygon fill="midnightblue" stroke="midnightblue" points="445.458,-85.912 443.063,-75.5914 438.499,-85.1528 445.458,-85.912"/>
</g>
<!-- Node14&#45;&gt;Node12 -->
<g id="edge30" class="edge"><title>Node14&#45;&gt;Node12</title>
<path fill="none" stroke="midnightblue" d="M447.103,-168.324C461.903,-159.822 484.694,-146.729 501.982,-136.797"/>
<polygon fill="midnightblue" stroke="midnightblue" points="504.007,-139.671 510.935,-131.655 500.52,-133.601 504.007,-139.671"/>
</g>
<!-- Node15&#45;&gt;Node2 -->
<g id="edge32" class="edge"><title>Node15&#45;&gt;Node2</title>
<path fill="none" stroke="midnightblue" d="M685.197,-112.368C689.716,-94.617 700.139,-53.6664 706.266,-29.5974"/>
<polygon fill="midnightblue" stroke="midnightblue" points="709.738,-30.1458 708.813,-19.5914 702.954,-28.419 709.738,-30.1458"/>
</g>
<!-- Node15&#45;&gt;Node7 -->
<g id="edge33" class="edge"><title>Node15&#45;&gt;Node7</title>
<path fill="none" stroke="midnightblue" d="M674.133,-112.368C655.155,-93.8941 610.364,-50.2926 586.173,-26.7436"/>
<polygon fill="midnightblue" stroke="midnightblue" points="588.433,-24.0588 578.826,-19.5914 583.55,-29.0747 588.433,-24.0588"/>
</g>
<!-- Node15&#45;&gt;Node11 -->
<g id="edge34" class="edge"><title>Node15&#45;&gt;Node11</title>
<path fill="none" stroke="midnightblue" d="M692.082,-112.083C700.171,-104.141 712.195,-92.3354 721.91,-82.7973"/>
<polygon fill="midnightblue" stroke="midnightblue" points="724.403,-85.2545 729.087,-75.7511 719.499,-80.2595 724.403,-85.2545"/>
</g>
<!-- Node16&#45;&gt;Node2 -->
<g id="edge36" class="edge"><title>Node16&#45;&gt;Node2</title>
<path fill="none" stroke="midnightblue" d="M796.861,-112.311C804.935,-99.1501 817.271,-73.8111 806,-56 793.336,-35.9885 769.101,-24.702 748.28,-18.437"/>
<polygon fill="midnightblue" stroke="midnightblue" points="748.966,-14.9966 738.398,-15.7487 747.128,-21.7511 748.966,-14.9966"/>
</g>
<!-- Node16&#45;&gt;Node7 -->
<g id="edge37" class="edge"><title>Node16&#45;&gt;Node7</title>
<path fill="none" stroke="midnightblue" d="M791.095,-112.432C790.757,-98.4893 787.959,-70.9508 772,-56 747.46,-33.0096 650.809,-19.5811 600.621,-14.023"/>
<polygon fill="midnightblue" stroke="midnightblue" points="600.976,-10.541 590.66,-12.9558 600.23,-17.5012 600.976,-10.541"/>
</g>
<!-- Node16&#45;&gt;Node11 -->
<g id="edge38" class="edge"><title>Node16&#45;&gt;Node11</title>
<path fill="none" stroke="midnightblue" d="M782.248,-112.083C774.53,-104.22 763.095,-92.5688 753.783,-83.0813"/>
<polygon fill="midnightblue" stroke="midnightblue" points="756.092,-80.4363 746.589,-75.7511 751.096,-85.3396 756.092,-80.4363"/>
</g>
<!-- Node17&#45;&gt;Node2 -->
<g id="edge40" class="edge"><title>Node17&#45;&gt;Node2</title>
<path fill="none" stroke="midnightblue" d="M976.305,-112.257C966.57,-98.0646 945.308,-70.1743 920,-56 865.402,-25.4214 792.068,-15.6019 748.358,-12.4613"/>
<polygon fill="midnightblue" stroke="midnightblue" points="748.379,-8.9557 738.177,-11.8128 747.934,-15.9415 748.379,-8.9557"/>
</g>
<!-- Node17&#45;&gt;Node11 -->
<g id="edge43" class="edge"><title>Node17&#45;&gt;Node11</title>
<path fill="none" stroke="midnightblue" d="M943.337,-112.444C896.712,-102.125 818.979,-84.9217 773.714,-74.9039"/>
<polygon fill="midnightblue" stroke="midnightblue" points="774.277,-71.4439 763.757,-72.7003 772.765,-78.2786 774.277,-71.4439"/>
</g>
<!-- Node18 -->
<g id="node18" class="node"><title>Node18</title>
<polygon fill="white" stroke="#bfbfbf" points="972,-56.5 972,-75.5 1016,-75.5 1016,-56.5 972,-56.5"/>
<text text-anchor="middle" x="994" y="-63.5" font-family="Helvetica,sans-Serif" font-size="10.00">vector</text>
</g>
<!-- Node17&#45;&gt;Node18 -->
<g id="edge41" class="edge"><title>Node17&#45;&gt;Node18</title>
<path fill="none" stroke="midnightblue" d="M983.982,-112.083C985.572,-104.927 987.859,-94.6353 989.846,-85.6911"/>
<polygon fill="midnightblue" stroke="midnightblue" points="993.303,-86.2722 992.055,-75.7511 986.469,-84.7537 993.303,-86.2722"/>
</g>
<!-- Node19 -->
<g id="node19" class="node"><title>Node19</title>
<polygon fill="white" stroke="#bfbfbf" points="1034,-56.5 1034,-75.5 1074,-75.5 1074,-56.5 1034,-56.5"/>
<text text-anchor="middle" x="1054" y="-63.5" font-family="Helvetica,sans-Serif" font-size="10.00">utility</text>
</g>
<!-- Node17&#45;&gt;Node19 -->
<g id="edge42" class="edge"><title>Node17&#45;&gt;Node19</title>
<path fill="none" stroke="midnightblue" d="M993.568,-112.324C1004.42,-104.185 1020.88,-91.8395 1033.88,-82.0874"/>
<polygon fill="midnightblue" stroke="midnightblue" points="1036.32,-84.6339 1042.22,-75.8339 1032.12,-79.0339 1036.32,-84.6339"/>
</g>
</g>
</svg>
        <g id="navigator" transform="translate(0 0)" fill="#404254">
                <rect fill="#f2f5e9" fill-opacity="0.5" stroke="#606060" stroke-width=".5" x="0" y="0" width="60" height="60"/>
                <use id="zoomplus" xlink:href="#zoomPlus" x="17" y="9" onmousedown="handleZoom(evt,'in')"/>
                <use id="zoomminus" xlink:href="#zoomMin" x="42" y="9" onmousedown="handleZoom(evt,'out')"/>
                <use id="reset" xlink:href="#resetDef" x="30" y="36" onmousedown="handleReset()"/>
                <g id="arrowUp" xlink:href="#dirArrow" transform="translate(30 24)" onmousedown="handlePan(0,-1)">
                  <use xlink:href="#rim" fill="#404040">
                        <set attributeName="fill" to="#808080" begin="arrowUp.mouseover" end="arrowUp.mouseout"/>
                  </use>
                  <path fill="none" stroke="white" stroke-width="1.5" d="M0,-3.0v7 M-2.5,-0.5L0,-3.0L2.5,-0.5"/>
                </g>
                <g id="arrowRight" xlink:href="#dirArrow" transform="rotate(90) translate(36 -43)" onmousedown="handlePan(1,0)">
                  <use xlink:href="#rim" fill="#404040">
                        <set attributeName="fill" to="#808080" begin="arrowRight.mouseover" end="arrowRight.mouseout"/>
                  </use>
                  <path fill="none" stroke="white" stroke-width="1.5" d="M0,-3.0v7 M-2.5,-0.5L0,-3.0L2.5,-0.5"/>
                </g>
                <g id="arrowDown" xlink:href="#dirArrow" transform="rotate(180) translate(-30 -48)" onmousedown="handlePan(0,1)">
                  <use xlink:href="#rim" fill="#404040">
                        <set attributeName="fill" to="#808080" begin="arrowDown.mouseover" end="arrowDown.mouseout"/>
                  </use>
                  <path fill="none" stroke="white" stroke-width="1.5" d="M0,-3.0v7 M-2.5,-0.5L0,-3.0L2.5,-0.5"/>
                </g>
                <g id="arrowLeft" xlink:href="#dirArrow" transform="rotate(270) translate(-36 17)" onmousedown="handlePan(-1,0)">
                  <use xlink:href="#rim" fill="#404040">
                        <set attributeName="fill" to="#808080" begin="arrowLeft.mouseover" end="arrowLeft.mouseout"/>
                  </use>
                  <path fill="none" stroke="white" stroke-width="1.5" d="M0,-3.0v7 M-2.5,-0.5L0,-3.0L2.5,-0.5"/>
                </g>
        </g>
        <svg viewBox="0 0 15 15" width="100%" height="30px" preserveAspectRatio="xMaxYMin meet">
         <g id="arrow_out" transform="scale(0.3 0.3)">
          <a xlink:href="runShapes_8cpp__incl_org.svg" target="_base">
           <rect id="button" ry="5" rx="5" y="6" x="6" height="38" width="38"
                fill="#f2f5e9" fill-opacity="0.5" stroke="#606060" stroke-width="1.0"/>
           <path id="arrow"
             d="M 11.500037,31.436501 C 11.940474,20.09759 22.043105,11.32322 32.158766,21.979434 L 37.068811,17.246167 C 37.068811,17.246167 37.088388,32 37.088388,32 L 22.160133,31.978069 C 22.160133,31.978069 26.997745,27.140456 26.997745,27.140456 C 18.528582,18.264221 13.291696,25.230495 11.500037,31.436501 z"
             style="fill:#404040;"/>
          </a>
         </g>
        </svg>
</svg>
