<?xml version="1.0" encoding="UTF-8" standalone="no"?>
<!DOCTYPE svg PUBLIC "-//W3C//DTD SVG 1.1//EN"
 "http://www.w3.org/Graphics/SVG/1.1/DTD/svg11.dtd">
<!-- Generated by graphviz version 2.36.0 (20140111.2315)
 -->
<!-- Title: ShapeCollection.cpp Pages: 1 -->
<svg width="247pt" height="196pt"
 viewBox="0.00 0.00 247.00 196.00" xmlns="http://www.w3.org/2000/svg" xmlns:xlink="http://www.w3.org/1999/xlink">
<g id="graph0" class="graph" transform="scale(1 1) rotate(0) translate(4 192)">
<title>ShapeCollection.cpp</title>
<polygon fill="white" stroke="none" points="-4,4 -4,-192 243,-192 243,4 -4,4"/>
<!-- Node1 -->
<g id="node1" class="node"><title>Node1</title>
<polygon fill="#bfbfbf" stroke="black" points="-0.5,-168.5 -0.5,-187.5 106.5,-187.5 106.5,-168.5 -0.5,-168.5"/>
<text text-anchor="middle" x="53" y="-175.5" font-family="Helvetica,sans-Serif" font-size="10.00">ShapeCollection.cpp</text>
</g>
<!-- Node2 -->
<g id="node2" class="node"><title>Node2</title>
<polygon fill="white" stroke="#bfbfbf" points="3,-56.5 3,-75.5 43,-75.5 43,-56.5 3,-56.5"/>
<text text-anchor="middle" x="23" y="-63.5" font-family="Helvetica,sans-Serif" font-size="10.00">utility</text>
</g>
<!-- Node1&#45;&gt;Node2 -->
<g id="edge1" class="edge"><title>Node1&#45;&gt;Node2</title>
<path fill="none" stroke="midnightblue" d="M42.5615,-168.245C33.5764,-159.969 21.2541,-146.663 16,-132 10.616,-116.975 13.2593,-98.8429 16.7354,-85.5516"/>
<polygon fill="midnightblue" stroke="midnightblue" points="20.1699,-86.2838 19.6933,-75.6997 13.4655,-84.2708 20.1699,-86.2838"/>
</g>
<!-- Node3 -->
<g id="node3" class="node"><title>Node3</title>
<polygon fill="white" stroke="#bfbfbf" points="25,-112.5 25,-131.5 81,-131.5 81,-112.5 25,-112.5"/>
<text text-anchor="middle" x="53" y="-119.5" font-family="Helvetica,sans-Serif" font-size="10.00">algorithm</text>
</g>
<!-- Node1&#45;&gt;Node3 -->
<g id="edge2" class="edge"><title>Node1&#45;&gt;Node3</title>
<path fill="none" stroke="midnightblue" d="M53,-168.083C53,-161.006 53,-150.861 53,-141.986"/>
<polygon fill="midnightblue" stroke="midnightblue" points="56.5001,-141.751 53,-131.751 49.5001,-141.751 56.5001,-141.751"/>
</g>
<!-- Node4 -->
<g id="node4" class="node"><title>Node4</title>
<g id="a_node4"><a xlink:href="ShapeCollection_8h.html" target="_top" xlink:title="ShapeCollection.h">
<polygon fill="white" stroke="black" points="99,-112.5 99,-131.5 195,-131.5 195,-112.5 99,-112.5"/>
<text text-anchor="middle" x="147" y="-119.5" font-family="Helvetica,sans-Serif" font-size="10.00">ShapeCollection.h</text>
</a>
</g>
</g>
<!-- Node1&#45;&gt;Node4 -->
<g id="edge3" class="edge"><title>Node1&#45;&gt;Node4</title>
<path fill="none" stroke="midnightblue" d="M68.1027,-168.324C82.9033,-159.822 105.694,-146.729 122.982,-136.797"/>
<polygon fill="midnightblue" stroke="midnightblue" points="125.007,-139.671 131.935,-131.655 121.52,-133.601 125.007,-139.671"/>
</g>
<!-- Node4&#45;&gt;Node2 -->
<g id="edge6" class="edge"><title>Node4&#45;&gt;Node2</title>
<path fill="none" stroke="midnightblue" d="M127.352,-112.444C107.035,-103.596 75.0972,-89.6875 51.9023,-79.5865"/>
<polygon fill="midnightblue" stroke="midnightblue" points="53.1221,-76.3002 42.5562,-75.5164 50.3271,-82.7181 53.1221,-76.3002"/>
</g>
<!-- Node5 -->
<g id="node5" class="node"><title>Node5</title>
<polygon fill="white" stroke="#bfbfbf" points="95,-0.5 95,-19.5 149,-19.5 149,-0.5 95,-0.5"/>
<text text-anchor="middle" x="122" y="-7.5" font-family="Helvetica,sans-Serif" font-size="10.00">iostream</text>
</g>
<!-- Node4&#45;&gt;Node5 -->
<g id="edge4" class="edge"><title>Node4&#45;&gt;Node5</title>
<path fill="none" stroke="midnightblue" d="M138.517,-112.234C130.946,-103.75 120.396,-90.1314 116,-76 111.266,-60.7828 113.543,-42.6701 116.558,-29.4347"/>
<polygon fill="midnightblue" stroke="midnightblue" points="119.976,-30.1954 119.125,-19.6348 113.205,-28.4211 119.976,-30.1954"/>
</g>
<!-- Node6 -->
<g id="node6" class="node"><title>Node6</title>
<polygon fill="white" stroke="#bfbfbf" points="125,-56.5 125,-75.5 169,-75.5 169,-56.5 125,-56.5"/>
<text text-anchor="middle" x="147" y="-63.5" font-family="Helvetica,sans-Serif" font-size="10.00">vector</text>
</g>
<!-- Node4&#45;&gt;Node6 -->
<g id="edge5" class="edge"><title>Node4&#45;&gt;Node6</title>
<path fill="none" stroke="midnightblue" d="M147,-112.083C147,-105.006 147,-94.8611 147,-85.9865"/>
<polygon fill="midnightblue" stroke="midnightblue" points="150.5,-85.751 147,-75.7511 143.5,-85.7511 150.5,-85.751"/>
</g>
<!-- Node7 -->
<g id="node7" class="node"><title>Node7</title>
<g id="a_node7"><a xlink:href="shape_8h.html" target="_top" xlink:title="shape.h">
<polygon fill="white" stroke="black" points="187.5,-56.5 187.5,-75.5 238.5,-75.5 238.5,-56.5 187.5,-56.5"/>
<text text-anchor="middle" x="213" y="-63.5" font-family="Helvetica,sans-Serif" font-size="10.00">shape.h</text>
</a>
</g>
</g>
<!-- Node4&#45;&gt;Node7 -->
<g id="edge7" class="edge"><title>Node4&#45;&gt;Node7</title>
<path fill="none" stroke="midnightblue" d="M157.604,-112.324C167.456,-104.263 182.351,-92.0765 194.215,-82.3695"/>
<polygon fill="midnightblue" stroke="midnightblue" points="196.68,-84.8752 202.203,-75.8339 192.247,-79.4575 196.68,-84.8752"/>
</g>
<!-- Node7&#45;&gt;Node5 -->
<g id="edge8" class="edge"><title>Node7&#45;&gt;Node5</title>
<path fill="none" stroke="midnightblue" d="M198.379,-56.324C184.051,-47.8215 161.987,-34.7288 145.251,-24.7975"/>
<polygon fill="midnightblue" stroke="midnightblue" points="146.97,-21.7478 136.584,-19.6545 143.398,-27.7677 146.97,-21.7478"/>
</g>
<!-- Node8 -->
<g id="node8" class="node"><title>Node8</title>
<polygon fill="white" stroke="#bfbfbf" points="192.5,-0.5 192.5,-19.5 233.5,-19.5 233.5,-0.5 192.5,-0.5"/>
<text text-anchor="middle" x="213" y="-7.5" font-family="Helvetica,sans-Serif" font-size="10.00">string</text>
</g>
<!-- Node7&#45;&gt;Node8 -->
<g id="edge9" class="edge"><title>Node7&#45;&gt;Node8</title>
<path fill="none" stroke="midnightblue" d="M213,-56.083C213,-49.0059 213,-38.8611 213,-29.9865"/>
<polygon fill="midnightblue" stroke="midnightblue" points="216.5,-29.751 213,-19.7511 209.5,-29.7511 216.5,-29.751"/>
</g>
</g>
</svg>
